M48
;GenerationSoftware,Autodesk,EAGLE,9.4.2*%
;CreationDate,2020-03-03T18:37:22Z*%
FMAT,2
ICI,OFF
METRIC,TZ,000.000
T16C0.300
T15C0.350
T14C0.400
T13C0.600
T12C0.800
T11C0.914
T10C1.000
T9C1.016
T8C1.100
T7C1.200
T6C1.300
T5C1.651
T4C1.700
T3C2.200
T2C2.286
T1C2.800
%
G90
M71
T1
X5000Y5000
X170000Y95000
X170000Y5000
X5000Y95000
T2
X13060Y97738
X25100Y97738
T3
X126500Y21000
X117500Y21000
X112000Y21000
X103000Y21000
T4
X126150Y10600
X103350Y10600
X127350Y2200
X102150Y2200
T5
X54997Y95995
X54997Y88984
T6
X73300Y91500
X65700Y91500
T7
X35725Y97980
X30275Y97980
T8
X124500Y14000
X122000Y14000
X119500Y14000
X110000Y14000
X105000Y14000
X107500Y14000
T9
X7426Y48520
X57550Y58540
X60090Y58540
X62630Y58540
X65170Y58540
X67710Y58540
X70250Y58540
X72790Y58540
X75330Y58540
X77870Y58540
X80410Y58540
X82950Y58540
X85490Y58540
X88030Y58540
X90570Y58540
X93110Y58540
X95650Y58540
X98190Y58540
X100730Y58540
X103270Y58540
X105810Y58540
X108350Y58540
X110890Y58540
X113430Y58540
X115970Y58540
X118510Y58540
X121050Y58540
X123590Y58540
X126130Y58540
X52470Y61440
X55010Y61440
X57550Y61440
X60090Y61440
X62630Y61440
X65170Y61440
X67710Y61440
X70250Y61440
X72790Y61440
X75330Y61440
X77870Y61440
X80410Y61440
X82950Y61440
X85490Y61440
X88030Y61440
X90570Y61440
X93110Y61440
X95650Y61440
X98190Y61440
X100730Y61440
X103270Y61440
X105810Y61440
X108350Y61440
X110890Y61440
X113430Y61440
X115970Y61440
X118510Y61440
X121050Y61440
X123590Y61440
X126130Y61440
X52470Y64340
X55010Y64340
X57550Y64340
X60090Y64340
X62630Y64340
X65170Y64340
X67710Y64340
X70250Y64340
X72790Y64340
X75330Y64340
X77870Y64340
X80410Y64340
X82950Y64340
X85490Y64340
X88030Y64340
X90570Y64340
X93110Y64340
X95650Y64340
X98190Y64340
X100730Y64340
X103270Y64340
X105810Y64340
X108350Y64340
X110890Y64340
X142640Y76620
X113430Y64340
X115970Y64340
X118510Y64340
X123590Y64340
X126130Y64340
X52470Y68280
X55010Y68280
X57550Y68280
X60090Y68280
X62630Y68280
X65170Y68280
X67710Y68280
X70250Y68280
X72790Y68280
X75330Y68280
X77870Y68280
X80410Y68280
X82950Y68280
X85490Y68280
X88030Y68280
X90570Y68280
X93110Y68280
X95650Y68280
X98190Y68280
X100730Y68280
X103270Y68280
X105810Y68280
X108350Y68280
X110890Y68280
X113430Y68280
X115970Y68280
X118510Y68280
X121050Y68280
X123590Y68280
X126130Y68280
X55460Y75800
X58000Y75800
X60540Y75800
X68160Y75800
X70700Y75800
X97640Y80630
X95100Y80630
X92560Y80630
X90020Y80630
X87480Y80630
X84940Y80630
X82400Y80630
X79860Y80630
X77320Y80630
X84960Y83600
X87500Y83600
X90040Y83600
X106310Y97600
X103770Y97600
X101230Y97600
X98690Y97600
X117730Y84000
X120270Y84000
X126000Y79040
X126000Y76500
X126000Y73960
X111000Y80310
X111000Y77770
X111000Y75230
X111000Y72690
X58000Y72960
X60540Y72960
X63080Y72960
X65620Y72960
X68160Y72960
X70700Y72960
X125095Y44132
X125095Y46672
X125095Y49212
X7426Y40900
X7426Y43440
X7426Y45980
X7426Y51060
X7426Y53600
X7426Y56140
X7426Y58680
X7426Y61220
X7426Y63760
X17426Y63770
X17426Y61230
X17426Y58690
X17426Y56150
X17426Y53610
X17426Y51070
X17426Y48530
X17426Y45990
X17426Y43450
X17426Y40910
X20146Y40900
X20146Y43440
X20146Y45980
X20146Y48520
X20146Y51060
X20146Y53600
X20146Y56140
X20146Y58680
X20146Y61220
X20146Y63760
X30146Y63770
X30146Y61230
X30146Y58690
X30146Y56150
X30146Y53610
X30146Y51070
X30146Y48530
X30146Y45990
X30146Y43450
X30146Y40910
X32866Y40900
X32866Y43440
X32866Y45980
X32866Y48520
X32866Y51060
X32866Y53600
X32866Y56140
X32866Y58680
X32866Y61220
X32866Y63760
X42866Y63770
X42866Y61230
X42866Y58690
X42866Y56150
X42866Y53610
X42866Y51070
X42866Y48530
X42866Y45990
X42866Y43450
X42866Y40910
X27121Y14910
X27121Y17450
X27121Y19990
X27121Y22530
X27121Y25070
X27121Y27610
X27121Y30150
X27121Y32690
X27121Y35230
X27121Y37770
X40856Y37770
X40856Y35230
X40856Y32690
X40856Y30150
X40856Y27610
X40856Y25070
X40856Y22530
X40856Y19990
X40856Y17450
X40856Y14910
X9686Y14900
X9686Y17440
X9686Y19980
X9686Y22520
X9686Y25060
X9686Y27600
X9686Y30140
X9686Y32680
X9686Y35220
X9686Y37760
X23171Y37770
X23171Y35230
X23171Y32690
X23171Y30150
X23171Y27610
X23171Y25070
X23171Y22530
X23171Y19990
X23171Y17450
X23171Y14910
X5440Y87860
X5440Y85320
X5440Y82780
X5440Y80240
X5440Y77700
X5440Y75160
X7980Y87860
X7980Y85320
X7980Y82780
X7980Y80240
X7980Y77700
X7980Y75160
X5440Y72620
X5440Y70080
X7980Y72620
X7980Y70080
X26200Y86590
X28740Y86590
X26200Y84050
X28740Y84050
X26200Y81510
X28740Y81510
X26200Y78970
X28740Y78970
X26200Y76430
X28740Y76430
X26200Y73890
X28740Y73890
X26200Y71350
X28740Y71350
X131540Y59900
X131540Y57360
X131540Y54820
X131540Y52280
X131540Y49740
X131540Y47200
X131540Y44660
X131540Y42120
X146780Y59900
X146780Y57360
X146780Y54820
X146780Y52280
X146780Y49740
X146780Y47200
X146780Y44660
X146780Y42120
X132480Y76620
X135020Y76620
X137560Y76620
X140100Y76620
X121050Y64340
X145180Y76620
X147720Y76620
X150260Y76620
X153570Y76620
X156110Y76620
X158650Y76620
X161190Y76620
X163730Y76620
X166270Y76620
X168810Y76620
X171350Y76620
X160770Y64170
X158230Y64170
X155690Y64170
X153150Y64170
X150610Y64170
X148070Y64170
X145530Y64170
X142990Y64170
X143940Y54820
X143940Y52280
X143940Y49740
X143940Y47200
X159180Y54820
X159180Y52280
X159180Y49740
X159180Y47200
X172830Y57360
X172830Y54820
X172830Y52280
X172830Y49740
X172830Y47200
X172830Y44660
X134130Y22180
X134130Y24720
X134130Y27260
X134130Y33180
X134130Y35720
X134130Y38260
X156130Y22180
X156130Y24720
X156130Y27260
X156130Y33180
X156130Y35720
X156130Y38260
X148130Y23450
X148130Y25990
X148130Y34450
X148130Y36990
X170130Y23450
X170130Y25990
X170130Y34450
X170130Y36990
X132600Y91780
X132600Y89240
X132600Y86700
X132600Y84160
X141600Y91780
X141600Y89240
X141600Y86700
X141600Y84160
X146460Y86000
X149000Y86000
X151540Y86000
X156460Y86000
X159000Y86000
X161540Y86000
X166460Y86000
X169000Y86000
X171540Y86000
X146460Y95000
X149000Y95000
X151540Y95000
X156460Y95000
X159000Y95000
X161540Y95000
X143389Y12041
X143389Y14581
X143389Y17121
X158389Y14581
X162020Y57360
X162020Y54820
X162020Y52280
X162020Y49740
X162020Y47200
X162020Y44660
X43000Y4460
X43000Y7000
X43000Y9540
X61460Y39000
X64000Y39000
X66540Y39000
X117290Y32250
X114750Y32250
X112210Y32250
X110040Y39000
X107500Y39000
X104960Y39000
X124540Y39000
X122000Y39000
X119460Y39000
X52500Y48270
X52500Y45730
X84960Y39000
X87500Y39000
X90040Y39000
X66500Y48270
X66500Y45730
X107500Y48270
X107500Y45730
X52470Y54600
X55010Y54600
X57550Y54600
X60090Y54600
X62630Y54600
X65170Y54600
X67710Y54600
X70250Y54600
X72790Y54600
X75330Y54600
X77870Y54600
X80410Y54600
X82950Y54600
X85490Y54600
X88030Y54600
X90570Y54600
X93110Y54600
X95650Y54600
X98190Y54600
X100730Y54600
X103270Y54600
X105810Y54600
X108350Y54600
X110890Y54600
X113430Y54600
X115970Y54600
X118510Y54600
X121050Y54600
X123590Y54600
X126130Y54600
X52470Y58540
X55010Y58540
T10
X41349Y95000
X41350Y92500
X35520Y94950
X30480Y94940
X44650Y97500
X44651Y95000
X44650Y92500
X41350Y97500
T11
X17830Y93039
X20330Y93039
X20330Y95020
X17830Y95020
T12
X75500Y45400
X113920Y87420
X116460Y87420
X98250Y8150
X75500Y48600
X124080Y87420
X98250Y4650
X131250Y8150
X121540Y97580
X119000Y97580
X116460Y97580
X124080Y97580
X113920Y97580
X121540Y87420
X119000Y87420
T13
X60400Y47800
X60400Y46200
T14
X87500Y36500
T15
X119300Y44100
X111300Y47400
X116500Y42200
X129000Y51460
T16
X149000Y55100
X147900Y58600
X142800Y59200
X87500Y46000
X83400Y43600
X139550Y66250
X142650Y69800
X144150Y71000
X139550Y78600
X156750Y67000
X163150Y69800
X164450Y70650
X160700Y78100
X138200Y74700
X166700Y65650
X155200Y66350
X155350Y72950
X142900Y21500
X137900Y33700
X164900Y21600
X159800Y33600
X142900Y38700
X164800Y38900
X151300Y81400
X161400Y81400
X171400Y81450
X151550Y90400
X161350Y90400
X145359Y15861
X155159Y13461
X150159Y16061
X171350Y49050
X165850Y61200
X163950Y59950
X168600Y55950
X166400Y51900
X167650Y56500
X166850Y54550
X163000Y51000
X166400Y49150
X166400Y46600
X133350Y50550
X141750Y50950
X140700Y58100
X139000Y62950
X137700Y56800
X137400Y61400
X138360Y53740
X139250Y55200
X142600Y47950
X142600Y46200
X135400Y45500
X157000Y50500
X149400Y59850
X155150Y56900
X144400Y57100
X153850Y55400
X160400Y50850
X159550Y44400
X157000Y49250
X150300Y56400
X10800Y75400
X148700Y49250
X153950Y56600
X152050Y56650
X152300Y53800
X150550Y45700
X148650Y50650
X56200Y32500
X56200Y28700
X56200Y20800
X56200Y17200
X56200Y9200
X56200Y5800
X66200Y31800
X66200Y28800
X66100Y20700
X66100Y17400
X66100Y9300
X66100Y5800
X90400Y42800
X84600Y45050
X93900Y40900
X59000Y83100
X62500Y95000
X42800Y70400
X34400Y78200
X38200Y73000
X44300Y72100
X40000Y76835
X40200Y83600
X97900Y87700
X110950Y90600
X101700Y80850
X116050Y81650
X102930Y78710
X105470Y72060
X120300Y96650
X122250Y84300
X106750Y74350
X128450Y91100
X99300Y78150
X122750Y88800
X99550Y76500
X113150Y76500
X115350Y76500
X77500Y70500
X80000Y70500
X82500Y70500
X38600Y79375
X87500Y70500
X90000Y70500
X92500Y70500
X95000Y70500
X97500Y70500
X92300Y87800
X94000Y97300
X109700Y46400
X44200Y75500
X158000Y58800
X143600Y61700
X111900Y45700
X134600Y58700
X155700Y58900
X163000Y58900
X162900Y53600
X130100Y63400
X99700Y92700
X38400Y83500
X22700Y82100
X22900Y78800
X22700Y75600
X150300Y59000
X141750Y49700
X94500Y92500
X22800Y72200
X92900Y43900
X162916Y70984
X120904Y46716
X4210Y68771
X28400Y91900
X10700Y89600
X10700Y86000
X87500Y36500
X10700Y82500
X10700Y79000
X10800Y71800
X10600Y68300
X134850Y57150
X164700Y55700
X136100Y73450
X156450Y71900
X107950Y87400
X107900Y83650
X151200Y19500
X85000Y70500
M30