G04 EAGLE Gerber RS-274X export*
G75*
%MOMM*%
%FSLAX34Y34*%
%LPD*%
%INSilkscreen Bottom*%
%IPPOS*%
%AMOC8*
5,1,8,0,0,1.08239X$1,22.5*%
G01*
%ADD10R,8.340000X0.060000*%
%ADD11R,18.420000X0.060000*%
%ADD12R,18.900000X0.060000*%
%ADD13R,19.260000X0.060000*%
%ADD14R,19.560000X0.060000*%
%ADD15R,8.280000X0.060000*%
%ADD16R,19.800000X0.060000*%
%ADD17R,19.980000X0.060000*%
%ADD18R,20.160000X0.060000*%
%ADD19R,20.280000X0.060000*%
%ADD20R,0.960000X0.060000*%
%ADD21R,1.080000X0.060000*%
%ADD22R,0.840000X0.060000*%
%ADD23R,0.780000X0.060000*%
%ADD24R,0.720000X0.060000*%
%ADD25R,0.660000X0.060000*%
%ADD26R,0.600000X0.060000*%
%ADD27R,0.540000X0.060000*%
%ADD28R,0.480000X0.060000*%
%ADD29R,0.180000X0.060000*%
%ADD30R,0.360000X0.060000*%
%ADD31R,0.420000X0.060000*%
%ADD32R,0.300000X0.060000*%
%ADD33R,0.240000X0.060000*%
%ADD34R,1.020000X0.060000*%
%ADD35R,1.260000X0.060000*%
%ADD36R,0.900000X0.060000*%
%ADD37R,1.380000X0.060000*%
%ADD38R,1.200000X0.060000*%
%ADD39R,1.440000X0.060000*%
%ADD40R,1.560000X0.060000*%
%ADD41R,1.500000X0.060000*%
%ADD42R,1.320000X0.060000*%
%ADD43R,1.620000X0.060000*%
%ADD44R,0.120000X0.060000*%
%ADD45R,0.060000X0.060000*%
%ADD46R,1.740000X0.060000*%
%ADD47R,1.800000X0.060000*%
%ADD48R,1.140000X0.060000*%
%ADD49R,1.860000X0.060000*%
%ADD50R,1.920000X0.060000*%
%ADD51R,2.040000X0.060000*%
%ADD52R,2.100000X0.060000*%
%ADD53R,2.160000X0.060000*%
%ADD54R,2.220000X0.060000*%
%ADD55R,2.400000X0.060000*%
%ADD56R,2.280000X0.060000*%
%ADD57R,2.340000X0.060000*%
%ADD58R,2.460000X0.060000*%
%ADD59R,2.520000X0.060000*%
%ADD60R,3.120000X0.060000*%
%ADD61R,3.060000X0.060000*%
%ADD62R,3.000000X0.060000*%
%ADD63R,2.640000X0.060000*%
%ADD64R,2.700000X0.060000*%
%ADD65R,2.820000X0.060000*%
%ADD66R,1.680000X0.060000*%
%ADD67R,3.420000X0.060000*%
%ADD68R,2.580000X0.060000*%
%ADD69R,2.880000X0.060000*%
%ADD70R,1.980000X0.060000*%
%ADD71R,3.180000X0.060000*%
%ADD72R,2.940000X0.060000*%
%ADD73R,2.760000X0.060000*%
%ADD74R,20.340000X0.060000*%
%ADD75R,5.400000X0.060000*%
%ADD76R,19.620000X0.060000*%
%ADD77R,5.460000X0.060000*%
%ADD78R,19.320000X0.060000*%
%ADD79R,5.520000X0.060000*%
%ADD80R,18.960000X0.060000*%
%ADD81R,18.480000X0.060000*%
%ADD82C,0.152400*%
%ADD83R,0.736600X1.752600*%
%ADD84C,0.076200*%
%ADD85C,0.101600*%
%ADD86R,0.750100X1.700000*%
%ADD87R,0.125000X1.200000*%
%ADD88R,0.300000X1.250000*%
%ADD89R,0.150000X2.400000*%
%ADD90R,0.475000X4.250000*%
%ADD91C,0.127000*%
%ADD92C,0.050800*%
%ADD93R,0.508000X1.143000*%
%ADD94R,0.457200X0.584200*%
%ADD95C,0.203200*%
%ADD96R,1.100000X0.490000*%
%ADD97R,0.863600X0.406400*%
%ADD98R,0.406400X0.863600*%
%ADD99R,1.143000X0.508000*%
%ADD100R,1.752600X0.736600*%
%ADD101R,1.700000X0.750100*%
%ADD102R,0.500000X0.650000*%

G36*
X1376135Y911997D02*
X1376135Y911997D01*
X1376221Y911999D01*
X1376245Y912009D01*
X1376272Y912012D01*
X1376392Y912069D01*
X1376428Y912084D01*
X1376434Y912089D01*
X1376442Y912092D01*
X1384062Y917172D01*
X1384088Y917198D01*
X1384115Y917214D01*
X1384138Y917242D01*
X1384180Y917274D01*
X1384198Y917304D01*
X1384224Y917328D01*
X1384247Y917376D01*
X1384256Y917388D01*
X1384263Y917407D01*
X1384299Y917464D01*
X1384306Y917499D01*
X1384321Y917530D01*
X1384327Y917598D01*
X1384328Y917600D01*
X1384328Y917606D01*
X1384328Y917607D01*
X1384344Y917684D01*
X1384339Y917719D01*
X1384342Y917753D01*
X1384322Y917829D01*
X1384310Y917906D01*
X1384293Y917936D01*
X1384284Y917970D01*
X1384239Y918034D01*
X1384201Y918102D01*
X1384171Y918128D01*
X1384154Y918153D01*
X1384115Y918179D01*
X1384062Y918228D01*
X1376442Y923308D01*
X1376417Y923318D01*
X1376396Y923335D01*
X1376318Y923362D01*
X1376293Y923375D01*
X1376285Y923376D01*
X1376236Y923397D01*
X1376209Y923399D01*
X1376184Y923407D01*
X1376098Y923405D01*
X1376012Y923409D01*
X1375986Y923401D01*
X1375959Y923401D01*
X1375880Y923368D01*
X1375798Y923343D01*
X1375776Y923326D01*
X1375752Y923316D01*
X1375688Y923258D01*
X1375620Y923206D01*
X1375606Y923183D01*
X1375586Y923165D01*
X1375548Y923090D01*
X1375535Y923074D01*
X1375531Y923063D01*
X1375501Y923016D01*
X1375496Y922989D01*
X1375483Y922965D01*
X1375472Y922889D01*
X1375463Y922862D01*
X1375464Y922833D01*
X1375456Y922796D01*
X1375457Y922789D01*
X1375456Y922780D01*
X1375456Y912620D01*
X1375461Y912594D01*
X1375458Y912567D01*
X1375480Y912484D01*
X1375495Y912399D01*
X1375509Y912376D01*
X1375516Y912350D01*
X1375566Y912280D01*
X1375610Y912206D01*
X1375630Y912189D01*
X1375646Y912167D01*
X1375717Y912119D01*
X1375784Y912065D01*
X1375809Y912056D01*
X1375831Y912041D01*
X1375915Y912020D01*
X1375996Y911993D01*
X1376023Y911994D01*
X1376049Y911987D01*
X1376135Y911997D01*
G37*
G36*
X1376135Y886597D02*
X1376135Y886597D01*
X1376221Y886599D01*
X1376245Y886609D01*
X1376272Y886612D01*
X1376392Y886669D01*
X1376428Y886684D01*
X1376434Y886689D01*
X1376442Y886692D01*
X1384062Y891772D01*
X1384088Y891798D01*
X1384115Y891814D01*
X1384138Y891842D01*
X1384180Y891874D01*
X1384198Y891904D01*
X1384224Y891928D01*
X1384247Y891976D01*
X1384256Y891988D01*
X1384263Y892007D01*
X1384299Y892064D01*
X1384306Y892099D01*
X1384321Y892130D01*
X1384327Y892198D01*
X1384328Y892200D01*
X1384328Y892206D01*
X1384328Y892207D01*
X1384344Y892284D01*
X1384339Y892319D01*
X1384342Y892353D01*
X1384322Y892429D01*
X1384310Y892506D01*
X1384293Y892536D01*
X1384284Y892570D01*
X1384239Y892634D01*
X1384201Y892702D01*
X1384171Y892728D01*
X1384154Y892753D01*
X1384115Y892779D01*
X1384062Y892828D01*
X1376442Y897908D01*
X1376417Y897918D01*
X1376396Y897935D01*
X1376318Y897962D01*
X1376293Y897975D01*
X1376285Y897976D01*
X1376236Y897997D01*
X1376209Y897999D01*
X1376184Y898007D01*
X1376098Y898005D01*
X1376012Y898009D01*
X1375986Y898001D01*
X1375959Y898001D01*
X1375880Y897968D01*
X1375798Y897943D01*
X1375776Y897926D01*
X1375752Y897916D01*
X1375688Y897858D01*
X1375620Y897806D01*
X1375606Y897783D01*
X1375586Y897765D01*
X1375548Y897690D01*
X1375535Y897674D01*
X1375531Y897663D01*
X1375501Y897616D01*
X1375496Y897589D01*
X1375483Y897565D01*
X1375472Y897489D01*
X1375463Y897462D01*
X1375464Y897433D01*
X1375456Y897396D01*
X1375457Y897389D01*
X1375456Y897380D01*
X1375456Y887220D01*
X1375461Y887194D01*
X1375458Y887167D01*
X1375480Y887084D01*
X1375495Y886999D01*
X1375509Y886976D01*
X1375516Y886950D01*
X1375566Y886880D01*
X1375610Y886806D01*
X1375630Y886789D01*
X1375646Y886767D01*
X1375717Y886719D01*
X1375784Y886665D01*
X1375809Y886656D01*
X1375831Y886641D01*
X1375915Y886620D01*
X1375996Y886593D01*
X1376023Y886594D01*
X1376049Y886587D01*
X1376135Y886597D01*
G37*
G36*
X1376135Y861197D02*
X1376135Y861197D01*
X1376221Y861199D01*
X1376245Y861209D01*
X1376272Y861212D01*
X1376392Y861269D01*
X1376428Y861284D01*
X1376434Y861289D01*
X1376442Y861292D01*
X1384062Y866372D01*
X1384088Y866398D01*
X1384115Y866414D01*
X1384138Y866442D01*
X1384180Y866474D01*
X1384198Y866504D01*
X1384224Y866528D01*
X1384247Y866576D01*
X1384256Y866588D01*
X1384263Y866607D01*
X1384299Y866664D01*
X1384306Y866699D01*
X1384321Y866730D01*
X1384327Y866798D01*
X1384328Y866800D01*
X1384328Y866806D01*
X1384328Y866807D01*
X1384344Y866884D01*
X1384339Y866919D01*
X1384342Y866953D01*
X1384322Y867029D01*
X1384310Y867106D01*
X1384293Y867136D01*
X1384284Y867170D01*
X1384239Y867234D01*
X1384201Y867302D01*
X1384171Y867328D01*
X1384154Y867353D01*
X1384115Y867379D01*
X1384062Y867428D01*
X1376442Y872508D01*
X1376417Y872518D01*
X1376396Y872535D01*
X1376318Y872562D01*
X1376293Y872575D01*
X1376285Y872576D01*
X1376236Y872597D01*
X1376209Y872599D01*
X1376184Y872607D01*
X1376098Y872605D01*
X1376012Y872609D01*
X1375986Y872601D01*
X1375959Y872601D01*
X1375880Y872568D01*
X1375798Y872543D01*
X1375776Y872526D01*
X1375752Y872516D01*
X1375688Y872458D01*
X1375620Y872406D01*
X1375606Y872383D01*
X1375586Y872365D01*
X1375548Y872290D01*
X1375535Y872274D01*
X1375531Y872263D01*
X1375501Y872216D01*
X1375496Y872189D01*
X1375483Y872165D01*
X1375472Y872089D01*
X1375463Y872062D01*
X1375464Y872033D01*
X1375456Y871996D01*
X1375457Y871989D01*
X1375456Y871980D01*
X1375456Y861820D01*
X1375461Y861794D01*
X1375458Y861767D01*
X1375480Y861684D01*
X1375495Y861599D01*
X1375509Y861576D01*
X1375516Y861550D01*
X1375566Y861480D01*
X1375610Y861406D01*
X1375630Y861389D01*
X1375646Y861367D01*
X1375717Y861319D01*
X1375784Y861265D01*
X1375809Y861256D01*
X1375831Y861241D01*
X1375915Y861220D01*
X1375996Y861193D01*
X1376023Y861194D01*
X1376049Y861187D01*
X1376135Y861197D01*
G37*
G36*
X1376135Y835797D02*
X1376135Y835797D01*
X1376221Y835799D01*
X1376245Y835809D01*
X1376272Y835812D01*
X1376392Y835869D01*
X1376428Y835884D01*
X1376434Y835889D01*
X1376442Y835892D01*
X1384062Y840972D01*
X1384088Y840998D01*
X1384115Y841014D01*
X1384138Y841042D01*
X1384180Y841074D01*
X1384198Y841104D01*
X1384224Y841128D01*
X1384247Y841176D01*
X1384256Y841188D01*
X1384263Y841207D01*
X1384299Y841264D01*
X1384306Y841299D01*
X1384321Y841330D01*
X1384327Y841398D01*
X1384328Y841400D01*
X1384328Y841406D01*
X1384328Y841407D01*
X1384344Y841484D01*
X1384339Y841519D01*
X1384342Y841553D01*
X1384322Y841629D01*
X1384310Y841706D01*
X1384293Y841736D01*
X1384284Y841770D01*
X1384239Y841834D01*
X1384201Y841902D01*
X1384171Y841928D01*
X1384154Y841953D01*
X1384115Y841979D01*
X1384062Y842028D01*
X1376442Y847108D01*
X1376417Y847118D01*
X1376396Y847135D01*
X1376318Y847162D01*
X1376293Y847175D01*
X1376285Y847176D01*
X1376236Y847197D01*
X1376209Y847199D01*
X1376184Y847207D01*
X1376098Y847205D01*
X1376012Y847209D01*
X1375986Y847201D01*
X1375959Y847201D01*
X1375880Y847168D01*
X1375798Y847143D01*
X1375776Y847126D01*
X1375752Y847116D01*
X1375688Y847058D01*
X1375620Y847006D01*
X1375606Y846983D01*
X1375586Y846965D01*
X1375548Y846890D01*
X1375535Y846874D01*
X1375531Y846863D01*
X1375501Y846816D01*
X1375496Y846789D01*
X1375483Y846765D01*
X1375472Y846689D01*
X1375463Y846662D01*
X1375464Y846633D01*
X1375456Y846596D01*
X1375457Y846589D01*
X1375456Y846580D01*
X1375456Y836420D01*
X1375461Y836394D01*
X1375458Y836367D01*
X1375480Y836284D01*
X1375495Y836199D01*
X1375509Y836176D01*
X1375516Y836150D01*
X1375566Y836080D01*
X1375610Y836006D01*
X1375630Y835989D01*
X1375646Y835967D01*
X1375717Y835919D01*
X1375784Y835865D01*
X1375809Y835856D01*
X1375831Y835841D01*
X1375915Y835820D01*
X1375996Y835793D01*
X1376023Y835794D01*
X1376049Y835787D01*
X1376135Y835797D01*
G37*
D10*
X610800Y67200D03*
X610800Y67800D03*
X610800Y68400D03*
X610800Y69000D03*
X610800Y69600D03*
X610800Y70200D03*
X610800Y70800D03*
X610800Y71400D03*
X610800Y72000D03*
X610800Y72600D03*
X610800Y73200D03*
X610800Y73800D03*
X610800Y74400D03*
X610800Y75000D03*
X610800Y75600D03*
X610800Y76200D03*
X610800Y76800D03*
X610800Y77400D03*
X610800Y78000D03*
X610800Y78600D03*
X610800Y79200D03*
X610800Y79800D03*
X610800Y80400D03*
X610800Y81000D03*
X610800Y81600D03*
X610800Y82200D03*
X610800Y82800D03*
X610800Y83400D03*
X610800Y84000D03*
X610800Y84600D03*
D11*
X801000Y100800D03*
D10*
X610800Y85200D03*
D12*
X801000Y101400D03*
D10*
X610800Y85800D03*
D13*
X801000Y102000D03*
D10*
X610800Y86400D03*
D14*
X800700Y102600D03*
D15*
X610500Y87000D03*
D16*
X800700Y103200D03*
D17*
X801000Y103800D03*
D18*
X800700Y104400D03*
D19*
X800700Y105000D03*
D20*
X897900Y105600D03*
D21*
X703500Y105600D03*
D22*
X899100Y106200D03*
D20*
X702300Y106200D03*
D23*
X900000Y106800D03*
D22*
X701100Y106800D03*
D24*
X900900Y107400D03*
X700500Y107400D03*
D25*
X901800Y108000D03*
X699600Y108000D03*
D26*
X902100Y108600D03*
D25*
X699000Y108600D03*
D26*
X902700Y109200D03*
D25*
X698400Y109200D03*
D27*
X903000Y109800D03*
D26*
X698100Y109800D03*
D27*
X903600Y110400D03*
D26*
X697500Y110400D03*
D27*
X903600Y111000D03*
X697200Y111000D03*
X904200Y111600D03*
X696600Y111600D03*
D28*
X904500Y112200D03*
D27*
X696600Y112200D03*
X904800Y112800D03*
X696000Y112800D03*
D28*
X905100Y113400D03*
D29*
X816000Y113400D03*
D27*
X696000Y113400D03*
D28*
X905100Y114000D03*
D30*
X816300Y114000D03*
D28*
X695700Y114000D03*
D27*
X905400Y114600D03*
D30*
X816300Y114600D03*
D27*
X695400Y114600D03*
D28*
X905700Y115200D03*
D30*
X816300Y115200D03*
D28*
X695100Y115200D03*
X905700Y115800D03*
D31*
X816000Y115800D03*
D28*
X695100Y115800D03*
X905700Y116400D03*
D31*
X816000Y116400D03*
D28*
X695100Y116400D03*
X906300Y117000D03*
D31*
X816000Y117000D03*
D28*
X695100Y117000D03*
X906300Y117600D03*
D31*
X816000Y117600D03*
D28*
X695100Y117600D03*
X906300Y118200D03*
D31*
X816000Y118200D03*
D28*
X694500Y118200D03*
X906300Y118800D03*
D31*
X816000Y118800D03*
D28*
X694500Y118800D03*
X906300Y119400D03*
D31*
X816000Y119400D03*
D28*
X694500Y119400D03*
X906300Y120000D03*
D23*
X878400Y120000D03*
D26*
X857700Y120000D03*
D32*
X844200Y120000D03*
X834000Y120000D03*
X824400Y120000D03*
D31*
X816000Y120000D03*
D27*
X808800Y120000D03*
D32*
X796200Y120000D03*
X787800Y120000D03*
D26*
X776700Y120000D03*
D33*
X767700Y120000D03*
X760500Y120000D03*
X749700Y120000D03*
D27*
X738000Y120000D03*
D28*
X694500Y120000D03*
X906300Y120600D03*
D34*
X878400Y120600D03*
D22*
X857700Y120600D03*
D30*
X843900Y120600D03*
X834300Y120600D03*
D31*
X824400Y120600D03*
X816000Y120600D03*
D23*
X808800Y120600D03*
D30*
X796500Y120600D03*
X787500Y120600D03*
D23*
X776400Y120600D03*
D30*
X767700Y120600D03*
X760500Y120600D03*
X749700Y120600D03*
D23*
X738000Y120600D03*
D30*
X716700Y120600D03*
D28*
X694500Y120600D03*
X906300Y121200D03*
D35*
X878400Y121200D03*
D21*
X857700Y121200D03*
D31*
X844200Y121200D03*
X834000Y121200D03*
X824400Y121200D03*
X816000Y121200D03*
D36*
X808800Y121200D03*
D31*
X796200Y121200D03*
X787800Y121200D03*
D20*
X776100Y121200D03*
D31*
X768000Y121200D03*
X760800Y121200D03*
X750000Y121200D03*
D23*
X738000Y121200D03*
D24*
X716700Y121200D03*
D28*
X694500Y121200D03*
X906300Y121800D03*
D37*
X878400Y121800D03*
D38*
X857700Y121800D03*
D31*
X844200Y121800D03*
X834000Y121800D03*
X824400Y121800D03*
D39*
X810900Y121800D03*
D31*
X796200Y121800D03*
X787800Y121800D03*
D40*
X773700Y121800D03*
D31*
X760800Y121800D03*
X750000Y121800D03*
D22*
X738300Y121800D03*
D20*
X716700Y121800D03*
D28*
X694500Y121800D03*
X906300Y122400D03*
D41*
X878400Y122400D03*
D42*
X857700Y122400D03*
D28*
X843900Y122400D03*
X834300Y122400D03*
D31*
X824400Y122400D03*
D41*
X810600Y122400D03*
D31*
X796200Y122400D03*
X787800Y122400D03*
D26*
X779100Y122400D03*
D22*
X770700Y122400D03*
D31*
X760800Y122400D03*
X750000Y122400D03*
D22*
X738300Y122400D03*
D21*
X716700Y122400D03*
D28*
X694500Y122400D03*
X906300Y123000D03*
D43*
X878400Y123000D03*
D26*
X861900Y123000D03*
D27*
X853200Y123000D03*
D28*
X843900Y123000D03*
X834300Y123000D03*
D31*
X824400Y123000D03*
D24*
X814500Y123000D03*
D26*
X806100Y123000D03*
D31*
X796200Y123000D03*
X787800Y123000D03*
D28*
X779700Y123000D03*
D25*
X769800Y123000D03*
D31*
X760800Y123000D03*
X750000Y123000D03*
D28*
X740100Y123000D03*
D44*
X735300Y123000D03*
D38*
X716700Y123000D03*
D28*
X694500Y123000D03*
X906300Y123600D03*
D25*
X883800Y123600D03*
X873000Y123600D03*
D28*
X862500Y123600D03*
X852900Y123600D03*
X843900Y123600D03*
X834300Y123600D03*
D31*
X824400Y123600D03*
D26*
X815100Y123600D03*
D27*
X805200Y123600D03*
D31*
X796200Y123600D03*
X787800Y123600D03*
X780000Y123600D03*
D27*
X769200Y123600D03*
D31*
X760800Y123600D03*
X750000Y123600D03*
D28*
X740700Y123600D03*
D42*
X716700Y123600D03*
D28*
X694500Y123600D03*
D44*
X656700Y99600D03*
D45*
X567600Y99600D03*
D28*
X906300Y124200D03*
D27*
X884400Y124200D03*
X872400Y124200D03*
D28*
X863100Y124200D03*
X852300Y124200D03*
X843900Y124200D03*
X834300Y124200D03*
D31*
X824400Y124200D03*
D27*
X815400Y124200D03*
D28*
X804900Y124200D03*
D31*
X796200Y124200D03*
X787800Y124200D03*
X780000Y124200D03*
D27*
X769200Y124200D03*
D31*
X760800Y124200D03*
X750000Y124200D03*
D28*
X740700Y124200D03*
D37*
X716400Y124200D03*
D28*
X694500Y124200D03*
D33*
X656700Y100200D03*
D44*
X567300Y100200D03*
D28*
X906300Y124800D03*
D27*
X885000Y124800D03*
X871800Y124800D03*
D31*
X863400Y124800D03*
X852000Y124800D03*
D28*
X843900Y124800D03*
X834300Y124800D03*
D31*
X824400Y124800D03*
D28*
X815700Y124800D03*
X804300Y124800D03*
D31*
X796200Y124800D03*
X787800Y124800D03*
X780000Y124800D03*
D28*
X768900Y124800D03*
D31*
X760800Y124800D03*
X750000Y124800D03*
D28*
X740700Y124800D03*
D39*
X716700Y124800D03*
D28*
X694500Y124800D03*
D30*
X656700Y100800D03*
D33*
X567300Y100800D03*
D28*
X906300Y125400D03*
X885300Y125400D03*
X871500Y125400D03*
D31*
X863400Y125400D03*
D28*
X851700Y125400D03*
X843900Y125400D03*
X834300Y125400D03*
D31*
X824400Y125400D03*
D28*
X815700Y125400D03*
X804300Y125400D03*
D31*
X796200Y125400D03*
X787800Y125400D03*
X780000Y125400D03*
D28*
X768900Y125400D03*
D31*
X760800Y125400D03*
X750000Y125400D03*
X741000Y125400D03*
D41*
X716400Y125400D03*
D28*
X694500Y125400D03*
D32*
X656400Y101400D03*
X567600Y101400D03*
D28*
X906300Y126000D03*
X885900Y126000D03*
D31*
X871200Y126000D03*
D28*
X863700Y126000D03*
D31*
X851400Y126000D03*
D28*
X843900Y126000D03*
X834300Y126000D03*
D31*
X824400Y126000D03*
X816000Y126000D03*
X804000Y126000D03*
X796200Y126000D03*
X787800Y126000D03*
D28*
X779700Y126000D03*
X768900Y126000D03*
D31*
X760800Y126000D03*
X750000Y126000D03*
X741000Y126000D03*
D43*
X716400Y126000D03*
D28*
X694500Y126000D03*
D32*
X655800Y102000D03*
X568200Y102000D03*
D28*
X906300Y126600D03*
X885900Y126600D03*
D31*
X871200Y126600D03*
X864000Y126600D03*
X851400Y126600D03*
D28*
X843900Y126600D03*
X834300Y126600D03*
D31*
X824400Y126600D03*
X816000Y126600D03*
X804000Y126600D03*
X796200Y126600D03*
X787800Y126600D03*
D27*
X778800Y126600D03*
D31*
X768600Y126600D03*
X760800Y126600D03*
X750000Y126600D03*
X741000Y126600D03*
D43*
X716400Y126600D03*
D28*
X694500Y126600D03*
D32*
X655200Y102600D03*
X568800Y102600D03*
D28*
X906300Y127200D03*
X885900Y127200D03*
D31*
X870600Y127200D03*
X864000Y127200D03*
X851400Y127200D03*
D28*
X843900Y127200D03*
X834300Y127200D03*
D31*
X824400Y127200D03*
X816000Y127200D03*
X804000Y127200D03*
X796200Y127200D03*
X787800Y127200D03*
D24*
X777300Y127200D03*
D31*
X768600Y127200D03*
X760800Y127200D03*
X750000Y127200D03*
X741000Y127200D03*
D46*
X716400Y127200D03*
D28*
X694500Y127200D03*
D32*
X654600Y103200D03*
X569400Y103200D03*
D28*
X906300Y127800D03*
X886500Y127800D03*
D30*
X870900Y127800D03*
D31*
X864000Y127800D03*
X851400Y127800D03*
D28*
X843900Y127800D03*
X834300Y127800D03*
D31*
X824400Y127800D03*
X816000Y127800D03*
X804000Y127800D03*
X796200Y127800D03*
X787800Y127800D03*
D37*
X773400Y127800D03*
D31*
X760800Y127800D03*
X750000Y127800D03*
X741000Y127800D03*
D46*
X716400Y127800D03*
D28*
X694500Y127800D03*
D32*
X654000Y103800D03*
X570000Y103800D03*
D28*
X906300Y128400D03*
X886500Y128400D03*
D32*
X870600Y128400D03*
D31*
X864000Y128400D03*
X851400Y128400D03*
D28*
X843900Y128400D03*
X834300Y128400D03*
D31*
X824400Y128400D03*
X816000Y128400D03*
X804000Y128400D03*
X796200Y128400D03*
X787800Y128400D03*
D42*
X773100Y128400D03*
D31*
X760800Y128400D03*
X750000Y128400D03*
X741000Y128400D03*
D47*
X716100Y128400D03*
D28*
X694500Y128400D03*
D32*
X653400Y104400D03*
X570600Y104400D03*
D28*
X906300Y129000D03*
X886500Y129000D03*
D44*
X870900Y129000D03*
D31*
X864000Y129000D03*
X851400Y129000D03*
X844200Y129000D03*
D28*
X834300Y129000D03*
D31*
X824400Y129000D03*
X816000Y129000D03*
X804000Y129000D03*
X796200Y129000D03*
X787800Y129000D03*
D48*
X772200Y129000D03*
D28*
X760500Y129000D03*
D31*
X750000Y129000D03*
X741000Y129000D03*
D49*
X716400Y129000D03*
D28*
X694500Y129000D03*
D32*
X652800Y105000D03*
X571200Y105000D03*
D28*
X906300Y129600D03*
X886500Y129600D03*
D31*
X864000Y129600D03*
X851400Y129600D03*
D28*
X843900Y129600D03*
X834300Y129600D03*
D31*
X824400Y129600D03*
X816000Y129600D03*
X804000Y129600D03*
X796200Y129600D03*
X787800Y129600D03*
D22*
X770700Y129600D03*
D28*
X760500Y129600D03*
D31*
X750000Y129600D03*
X741000Y129600D03*
D50*
X716100Y129600D03*
D28*
X694500Y129600D03*
D32*
X652200Y105600D03*
X571800Y105600D03*
D28*
X906300Y130200D03*
X886500Y130200D03*
X863700Y130200D03*
D31*
X851400Y130200D03*
D28*
X843900Y130200D03*
X834300Y130200D03*
D31*
X824400Y130200D03*
X816000Y130200D03*
X804000Y130200D03*
X796200Y130200D03*
X787800Y130200D03*
D26*
X769500Y130200D03*
D28*
X760500Y130200D03*
D31*
X750000Y130200D03*
X741000Y130200D03*
D50*
X716100Y130200D03*
D28*
X694500Y130200D03*
D32*
X651600Y106200D03*
D30*
X572100Y106200D03*
D28*
X906300Y130800D03*
X886500Y130800D03*
D31*
X863400Y130800D03*
D28*
X851700Y130800D03*
X843900Y130800D03*
X834300Y130800D03*
D31*
X824400Y130800D03*
D28*
X815700Y130800D03*
X804300Y130800D03*
D31*
X796200Y130800D03*
X787800Y130800D03*
D33*
X779700Y130800D03*
D28*
X768900Y130800D03*
X760500Y130800D03*
D31*
X750000Y130800D03*
X741000Y130800D03*
D51*
X716100Y130800D03*
D28*
X694500Y130800D03*
D32*
X651000Y106800D03*
D30*
X572700Y106800D03*
D28*
X906300Y131400D03*
X886500Y131400D03*
D31*
X863400Y131400D03*
X852000Y131400D03*
D28*
X843900Y131400D03*
D27*
X834000Y131400D03*
D31*
X824400Y131400D03*
D28*
X815700Y131400D03*
X804300Y131400D03*
D31*
X796200Y131400D03*
X787800Y131400D03*
D32*
X780000Y131400D03*
D31*
X769200Y131400D03*
D28*
X760500Y131400D03*
D31*
X750000Y131400D03*
X741000Y131400D03*
D51*
X716100Y131400D03*
D28*
X694500Y131400D03*
D32*
X650400Y107400D03*
D30*
X573300Y107400D03*
D28*
X906300Y132000D03*
X886500Y132000D03*
X863100Y132000D03*
X852300Y132000D03*
D27*
X843600Y132000D03*
X834000Y132000D03*
D28*
X824700Y132000D03*
D27*
X815400Y132000D03*
D28*
X804900Y132000D03*
D31*
X796200Y132000D03*
X787800Y132000D03*
D30*
X779700Y132000D03*
D31*
X769200Y132000D03*
D27*
X760200Y132000D03*
D31*
X750000Y132000D03*
X741000Y132000D03*
D52*
X715800Y132000D03*
D28*
X694500Y132000D03*
D32*
X649800Y108000D03*
D30*
X573900Y108000D03*
D28*
X906300Y132600D03*
X886500Y132600D03*
X862500Y132600D03*
X852900Y132600D03*
D27*
X843600Y132600D03*
D26*
X833700Y132600D03*
D28*
X824700Y132600D03*
D26*
X815100Y132600D03*
D27*
X805200Y132600D03*
D31*
X796200Y132600D03*
X787800Y132600D03*
X779400Y132600D03*
X769200Y132600D03*
D26*
X759900Y132600D03*
D28*
X750300Y132600D03*
D31*
X741000Y132600D03*
D53*
X715500Y132600D03*
D28*
X694500Y132600D03*
D32*
X649200Y108600D03*
D30*
X574500Y108600D03*
D28*
X906300Y133200D03*
X886500Y133200D03*
D27*
X862200Y133200D03*
X853200Y133200D03*
D25*
X843000Y133200D03*
D22*
X833700Y133200D03*
D27*
X825000Y133200D03*
D25*
X814800Y133200D03*
D27*
X805800Y133200D03*
D31*
X796200Y133200D03*
X787800Y133200D03*
D28*
X779100Y133200D03*
X769500Y133200D03*
D24*
X759300Y133200D03*
D27*
X750600Y133200D03*
D26*
X740700Y133200D03*
D54*
X715800Y133200D03*
D28*
X694500Y133200D03*
D32*
X648600Y109200D03*
D28*
X623700Y109200D03*
X593700Y109200D03*
D30*
X575100Y109200D03*
D28*
X906300Y133800D03*
X886500Y133800D03*
D42*
X857700Y133800D03*
D55*
X834300Y133800D03*
D41*
X810600Y133800D03*
D31*
X796200Y133800D03*
X787800Y133800D03*
D37*
X774000Y133800D03*
D39*
X755700Y133800D03*
D36*
X740400Y133800D03*
D56*
X715500Y133800D03*
D28*
X694500Y133800D03*
D32*
X648000Y109800D03*
D28*
X623700Y109800D03*
D23*
X593400Y109800D03*
D30*
X575700Y109800D03*
D28*
X906300Y134400D03*
X886500Y134400D03*
D33*
X870900Y134400D03*
D38*
X857700Y134400D03*
D57*
X834600Y134400D03*
D39*
X810900Y134400D03*
D31*
X796200Y134400D03*
X787800Y134400D03*
D42*
X774300Y134400D03*
D39*
X755700Y134400D03*
D34*
X740400Y134400D03*
D56*
X715500Y134400D03*
D28*
X694500Y134400D03*
D32*
X647400Y110400D03*
D28*
X623700Y110400D03*
D20*
X593700Y110400D03*
D30*
X576300Y110400D03*
D28*
X906300Y135000D03*
X885900Y135000D03*
D30*
X870900Y135000D03*
D21*
X857700Y135000D03*
D31*
X844200Y135000D03*
D22*
X837300Y135000D03*
X827700Y135000D03*
D30*
X816300Y135000D03*
D36*
X808800Y135000D03*
D31*
X796200Y135000D03*
X787800Y135000D03*
D38*
X774300Y135000D03*
D31*
X760800Y135000D03*
D22*
X753300Y135000D03*
D34*
X740400Y135000D03*
D57*
X715200Y135000D03*
D28*
X694500Y135000D03*
D32*
X646800Y111000D03*
D28*
X623700Y111000D03*
D21*
X593700Y111000D03*
D32*
X576600Y111000D03*
D28*
X906300Y135600D03*
X885900Y135600D03*
D30*
X870900Y135600D03*
D36*
X857400Y135600D03*
D30*
X844500Y135600D03*
D24*
X837300Y135600D03*
D25*
X827400Y135600D03*
D30*
X816300Y135600D03*
D24*
X808500Y135600D03*
D31*
X796200Y135600D03*
D30*
X787500Y135600D03*
D34*
X774000Y135600D03*
D30*
X760500Y135600D03*
D24*
X753300Y135600D03*
D20*
X740100Y135600D03*
D58*
X715200Y135600D03*
D28*
X694500Y135600D03*
D32*
X646200Y111600D03*
D28*
X623700Y111600D03*
D38*
X593700Y111600D03*
D32*
X577200Y111600D03*
D28*
X906300Y136200D03*
X885900Y136200D03*
D31*
X871200Y136200D03*
D26*
X857700Y136200D03*
D32*
X844200Y136200D03*
D28*
X837300Y136200D03*
D27*
X827400Y136200D03*
D33*
X816300Y136200D03*
D27*
X808800Y136200D03*
D31*
X796200Y136200D03*
D32*
X787800Y136200D03*
D23*
X774000Y136200D03*
D32*
X760800Y136200D03*
D28*
X753300Y136200D03*
D22*
X740100Y136200D03*
D58*
X715200Y136200D03*
D28*
X694500Y136200D03*
D32*
X645600Y112200D03*
D28*
X623700Y112200D03*
D42*
X593700Y112200D03*
D32*
X577800Y112200D03*
D28*
X906300Y136800D03*
X885300Y136800D03*
X871500Y136800D03*
D31*
X796200Y136800D03*
D45*
X774000Y136800D03*
D31*
X741000Y136800D03*
D59*
X714900Y136800D03*
D28*
X694500Y136800D03*
D32*
X645000Y112800D03*
D28*
X623700Y112800D03*
D39*
X593700Y112800D03*
D32*
X578400Y112800D03*
D28*
X906300Y137400D03*
D27*
X885000Y137400D03*
D28*
X871500Y137400D03*
D31*
X796200Y137400D03*
X741000Y137400D03*
D37*
X721200Y137400D03*
D21*
X707100Y137400D03*
D28*
X694500Y137400D03*
D32*
X644400Y113400D03*
D60*
X611100Y113400D03*
D28*
X588900Y113400D03*
D32*
X579000Y113400D03*
D28*
X906300Y138000D03*
D27*
X884400Y138000D03*
X871800Y138000D03*
D31*
X796200Y138000D03*
X741000Y138000D03*
D37*
X721200Y138000D03*
D21*
X707100Y138000D03*
D28*
X694500Y138000D03*
D32*
X643800Y114000D03*
D61*
X612000Y114000D03*
D28*
X588300Y114000D03*
D32*
X579600Y114000D03*
D28*
X906300Y138600D03*
D26*
X884100Y138600D03*
X872700Y138600D03*
D31*
X796200Y138600D03*
D45*
X787800Y138600D03*
D31*
X741000Y138600D03*
D42*
X721500Y138600D03*
D21*
X706500Y138600D03*
D28*
X694500Y138600D03*
D32*
X643200Y114600D03*
D61*
X612600Y114600D03*
D33*
X593700Y114600D03*
D31*
X588000Y114600D03*
D32*
X580200Y114600D03*
D28*
X906300Y139200D03*
D24*
X882900Y139200D03*
X873900Y139200D03*
D31*
X796200Y139200D03*
D32*
X787800Y139200D03*
D31*
X741000Y139200D03*
D42*
X721500Y139200D03*
D34*
X706200Y139200D03*
D28*
X694500Y139200D03*
D32*
X642600Y115200D03*
D61*
X612600Y115200D03*
D30*
X593700Y115200D03*
D31*
X587400Y115200D03*
D32*
X580800Y115200D03*
D28*
X906300Y139800D03*
D40*
X878100Y139800D03*
D31*
X796200Y139800D03*
X787800Y139800D03*
X741000Y139800D03*
D35*
X721800Y139800D03*
D34*
X705600Y139800D03*
D28*
X694500Y139800D03*
D32*
X642000Y115800D03*
D62*
X612900Y115800D03*
D28*
X593700Y115800D03*
D31*
X587400Y115800D03*
D32*
X581400Y115800D03*
D28*
X906300Y140400D03*
D39*
X878100Y140400D03*
D31*
X796200Y140400D03*
X787800Y140400D03*
X741000Y140400D03*
D35*
X721800Y140400D03*
D21*
X705300Y140400D03*
D28*
X694500Y140400D03*
D32*
X641400Y116400D03*
X626400Y116400D03*
D31*
X600000Y116400D03*
D27*
X593400Y116400D03*
D31*
X587400Y116400D03*
D32*
X582000Y116400D03*
D28*
X906300Y141000D03*
D35*
X878400Y141000D03*
D31*
X796200Y141000D03*
X787800Y141000D03*
D30*
X740700Y141000D03*
D35*
X721800Y141000D03*
D34*
X705000Y141000D03*
D28*
X694500Y141000D03*
D30*
X641100Y117000D03*
D32*
X626400Y117000D03*
D31*
X600000Y117000D03*
D27*
X593400Y117000D03*
D31*
X587400Y117000D03*
D32*
X582600Y117000D03*
D28*
X906300Y141600D03*
D21*
X878100Y141600D03*
D31*
X796200Y141600D03*
X787800Y141600D03*
D30*
X740700Y141600D03*
D38*
X722100Y141600D03*
D34*
X704400Y141600D03*
D28*
X694500Y141600D03*
D30*
X640500Y117600D03*
D32*
X626400Y117600D03*
D31*
X600000Y117600D03*
D27*
X593400Y117600D03*
D31*
X587400Y117600D03*
D30*
X582900Y117600D03*
D28*
X906300Y142200D03*
D22*
X878100Y142200D03*
D32*
X796200Y142200D03*
X787800Y142200D03*
D33*
X740700Y142200D03*
D38*
X722100Y142200D03*
D21*
X704100Y142200D03*
D28*
X694500Y142200D03*
D30*
X639900Y118200D03*
D32*
X626400Y118200D03*
D30*
X599700Y118200D03*
D28*
X593700Y118200D03*
D23*
X585600Y118200D03*
D28*
X906300Y142800D03*
D31*
X878400Y142800D03*
D29*
X796200Y142800D03*
D21*
X722100Y142800D03*
D34*
X703800Y142800D03*
D28*
X694500Y142800D03*
D30*
X639300Y118800D03*
D32*
X626400Y118800D03*
D31*
X599400Y118800D03*
D28*
X593700Y118800D03*
D24*
X585900Y118800D03*
D28*
X906300Y143400D03*
D34*
X721800Y143400D03*
X703200Y143400D03*
D28*
X694500Y143400D03*
D30*
X638700Y119400D03*
D32*
X626400Y119400D03*
D31*
X599400Y119400D03*
D32*
X593400Y119400D03*
D24*
X586500Y119400D03*
D28*
X906300Y144000D03*
D20*
X721500Y144000D03*
D21*
X702900Y144000D03*
D28*
X694500Y144000D03*
D30*
X638100Y120000D03*
D33*
X626700Y120000D03*
D28*
X599100Y120000D03*
D24*
X587100Y120000D03*
D28*
X906300Y144600D03*
D22*
X721500Y144600D03*
D40*
X699900Y144600D03*
D30*
X637500Y120600D03*
D33*
X626700Y120600D03*
D28*
X598500Y120600D03*
D24*
X587700Y120600D03*
D28*
X906300Y145200D03*
D23*
X721200Y145200D03*
D41*
X699600Y145200D03*
D30*
X636900Y121200D03*
D32*
X627000Y121200D03*
D26*
X597900Y121200D03*
D23*
X588600Y121200D03*
D28*
X906300Y145800D03*
D26*
X720900Y145800D03*
D41*
X699600Y145800D03*
D30*
X636300Y121800D03*
D32*
X627000Y121800D03*
D41*
X592800Y121800D03*
D28*
X906300Y146400D03*
D31*
X720600Y146400D03*
D39*
X699300Y146400D03*
D30*
X635700Y122400D03*
D32*
X627000Y122400D03*
D37*
X592800Y122400D03*
D28*
X906300Y147000D03*
D39*
X699300Y147000D03*
D30*
X635100Y123000D03*
D32*
X627000Y123000D03*
D42*
X593100Y123000D03*
D28*
X906300Y147600D03*
D37*
X699000Y147600D03*
D30*
X634500Y123600D03*
D32*
X627000Y123600D03*
D48*
X592800Y123600D03*
D28*
X906300Y148200D03*
D29*
X880800Y148200D03*
X855000Y148200D03*
D30*
X832500Y148200D03*
D29*
X807000Y148200D03*
D33*
X780900Y148200D03*
D28*
X753300Y148200D03*
D42*
X698700Y148200D03*
D30*
X633900Y124200D03*
D32*
X627000Y124200D03*
D34*
X592800Y124200D03*
D28*
X906300Y148800D03*
X880500Y148800D03*
X854700Y148800D03*
D20*
X832500Y148800D03*
D28*
X806700Y148800D03*
X780900Y148800D03*
D38*
X753300Y148800D03*
D42*
X698700Y148800D03*
D30*
X633300Y124800D03*
D32*
X627000Y124800D03*
D22*
X592500Y124800D03*
D28*
X906300Y149400D03*
D26*
X880500Y149400D03*
D25*
X855000Y149400D03*
D42*
X832500Y149400D03*
D26*
X806700Y149400D03*
X780900Y149400D03*
D40*
X753300Y149400D03*
D35*
X698400Y149400D03*
D30*
X632700Y125400D03*
D32*
X627000Y125400D03*
D26*
X591900Y125400D03*
D28*
X906300Y150000D03*
D24*
X880500Y150000D03*
X854700Y150000D03*
D40*
X832500Y150000D03*
D24*
X806700Y150000D03*
X780900Y150000D03*
D49*
X753000Y150000D03*
D38*
X698100Y150000D03*
D30*
X632100Y126000D03*
D32*
X627000Y126000D03*
D28*
X591900Y126000D03*
X906300Y150600D03*
D24*
X880500Y150600D03*
D23*
X855000Y150600D03*
D47*
X832500Y150600D03*
D23*
X807000Y150600D03*
D24*
X780900Y150600D03*
D51*
X753300Y150600D03*
D38*
X698100Y150600D03*
D30*
X631500Y126600D03*
D33*
X627300Y126600D03*
D31*
X592200Y126600D03*
D28*
X906300Y151200D03*
D23*
X880800Y151200D03*
D22*
X855300Y151200D03*
D50*
X832500Y151200D03*
D23*
X807000Y151200D03*
X780600Y151200D03*
D54*
X753000Y151200D03*
D48*
X697800Y151200D03*
D30*
X630900Y127200D03*
D33*
X627300Y127200D03*
D30*
X592500Y127200D03*
D28*
X906300Y151800D03*
D22*
X880500Y151800D03*
X855300Y151800D03*
D51*
X832500Y151800D03*
D22*
X806700Y151800D03*
X780900Y151800D03*
D55*
X753300Y151800D03*
D21*
X697500Y151800D03*
D26*
X629100Y127800D03*
D32*
X592800Y127800D03*
D28*
X906300Y152400D03*
D22*
X880500Y152400D03*
D36*
X855600Y152400D03*
D53*
X832500Y152400D03*
D22*
X806700Y152400D03*
X780900Y152400D03*
D59*
X753300Y152400D03*
D21*
X697500Y152400D03*
D27*
X628800Y128400D03*
D30*
X593100Y128400D03*
D28*
X906300Y153000D03*
D22*
X880500Y153000D03*
D20*
X855900Y153000D03*
D56*
X832500Y153000D03*
D22*
X806700Y153000D03*
X780900Y153000D03*
D63*
X753300Y153000D03*
D21*
X696900Y153000D03*
D28*
X628500Y129000D03*
D31*
X593400Y129000D03*
D28*
X906300Y153600D03*
D22*
X880500Y153600D03*
D36*
X856200Y153600D03*
D55*
X832500Y153600D03*
D22*
X806700Y153600D03*
X780900Y153600D03*
D64*
X753000Y153600D03*
D48*
X696600Y153600D03*
D31*
X628200Y129600D03*
D28*
X593700Y129600D03*
X906300Y154200D03*
D22*
X880500Y154200D03*
D20*
X856500Y154200D03*
D34*
X840000Y154200D03*
X825000Y154200D03*
D22*
X806700Y154200D03*
X780900Y154200D03*
D65*
X753000Y154200D03*
D21*
X696300Y154200D03*
D30*
X627900Y130200D03*
D27*
X594000Y130200D03*
D28*
X906300Y154800D03*
D22*
X880500Y154800D03*
D20*
X856500Y154800D03*
D36*
X840600Y154800D03*
X824400Y154800D03*
D22*
X806700Y154800D03*
X780900Y154800D03*
D21*
X762300Y154800D03*
X744300Y154800D03*
X695700Y154800D03*
D32*
X627600Y130800D03*
D26*
X594300Y130800D03*
D28*
X906300Y155400D03*
D22*
X880500Y155400D03*
D20*
X857100Y155400D03*
D22*
X841500Y155400D03*
D36*
X823800Y155400D03*
D22*
X806700Y155400D03*
X780900Y155400D03*
D20*
X762900Y155400D03*
D34*
X743400Y155400D03*
D48*
X695400Y155400D03*
D30*
X627300Y131400D03*
D25*
X594600Y131400D03*
D28*
X906300Y156000D03*
D22*
X880500Y156000D03*
D34*
X857400Y156000D03*
D22*
X842100Y156000D03*
X823500Y156000D03*
X806700Y156000D03*
X780900Y156000D03*
D20*
X763500Y156000D03*
D36*
X742800Y156000D03*
D48*
X694800Y156000D03*
D31*
X627000Y132000D03*
D30*
X596700Y132000D03*
D33*
X592500Y132000D03*
D28*
X906300Y156600D03*
D22*
X880500Y156600D03*
D20*
X857700Y156600D03*
D22*
X842100Y156600D03*
X822900Y156600D03*
X806700Y156600D03*
X780900Y156600D03*
D36*
X763800Y156600D03*
X742200Y156600D03*
D21*
X694500Y156600D03*
D28*
X626700Y132600D03*
D30*
X597300Y132600D03*
D33*
X592500Y132600D03*
D28*
X906300Y157200D03*
D22*
X880500Y157200D03*
D34*
X858000Y157200D03*
D23*
X842400Y157200D03*
X822600Y157200D03*
D22*
X806700Y157200D03*
X780900Y157200D03*
D36*
X764400Y157200D03*
D22*
X741900Y157200D03*
D48*
X694200Y157200D03*
D27*
X626400Y133200D03*
D32*
X597600Y133200D03*
X592200Y133200D03*
D28*
X906300Y157800D03*
D22*
X880500Y157800D03*
D20*
X858300Y157800D03*
D22*
X842700Y157800D03*
X822300Y157800D03*
X806700Y157800D03*
X780900Y157800D03*
X764700Y157800D03*
X741300Y157800D03*
D48*
X693600Y157800D03*
D26*
X626100Y133800D03*
D32*
X598200Y133800D03*
X592200Y133800D03*
D28*
X906300Y158400D03*
D22*
X880500Y158400D03*
D20*
X858900Y158400D03*
D23*
X843000Y158400D03*
X822000Y158400D03*
D22*
X806700Y158400D03*
X780900Y158400D03*
D23*
X765000Y158400D03*
D22*
X741300Y158400D03*
D21*
X693300Y158400D03*
D33*
X627900Y134400D03*
D32*
X624000Y134400D03*
X598800Y134400D03*
X592200Y134400D03*
D28*
X906300Y159000D03*
D22*
X880500Y159000D03*
D34*
X859200Y159000D03*
D23*
X843000Y159000D03*
X822000Y159000D03*
D22*
X806700Y159000D03*
X780900Y159000D03*
X765300Y159000D03*
X741300Y159000D03*
D48*
X693000Y159000D03*
D33*
X627900Y135000D03*
D32*
X623400Y135000D03*
X599400Y135000D03*
X592200Y135000D03*
D28*
X906300Y159600D03*
D22*
X880500Y159600D03*
D20*
X859500Y159600D03*
D23*
X843600Y159600D03*
X822000Y159600D03*
D22*
X806700Y159600D03*
X780900Y159600D03*
D23*
X765600Y159600D03*
X741000Y159600D03*
D48*
X692400Y159600D03*
D32*
X628200Y135600D03*
X622800Y135600D03*
X600000Y135600D03*
X592200Y135600D03*
D28*
X906300Y160200D03*
D22*
X880500Y160200D03*
D20*
X860100Y160200D03*
D23*
X843600Y160200D03*
X821400Y160200D03*
D22*
X806700Y160200D03*
X780900Y160200D03*
D23*
X765600Y160200D03*
X741000Y160200D03*
D48*
X691800Y160200D03*
D32*
X628200Y136200D03*
X622200Y136200D03*
X600600Y136200D03*
X592200Y136200D03*
D28*
X906300Y160800D03*
D22*
X880500Y160800D03*
D34*
X860400Y160800D03*
D23*
X843600Y160800D03*
X821400Y160800D03*
D22*
X806700Y160800D03*
X780900Y160800D03*
D23*
X765600Y160800D03*
X741000Y160800D03*
D48*
X691800Y160800D03*
D32*
X628200Y136800D03*
X621600Y136800D03*
X601200Y136800D03*
X592200Y136800D03*
D28*
X906300Y161400D03*
D22*
X880500Y161400D03*
D20*
X860700Y161400D03*
D23*
X843600Y161400D03*
X821400Y161400D03*
D22*
X806700Y161400D03*
X780900Y161400D03*
D25*
X765600Y161400D03*
D22*
X741300Y161400D03*
D48*
X691200Y161400D03*
D32*
X628200Y137400D03*
X621000Y137400D03*
X601800Y137400D03*
X592200Y137400D03*
D28*
X906300Y162000D03*
D22*
X880500Y162000D03*
D20*
X861300Y162000D03*
D23*
X843600Y162000D03*
X821400Y162000D03*
D22*
X806700Y162000D03*
X780900Y162000D03*
D25*
X765600Y162000D03*
D22*
X741300Y162000D03*
D38*
X690900Y162000D03*
D32*
X628200Y138000D03*
X620400Y138000D03*
X602400Y138000D03*
D33*
X591900Y138000D03*
D28*
X906300Y162600D03*
D22*
X880500Y162600D03*
D34*
X861600Y162600D03*
D23*
X843600Y162600D03*
X821400Y162600D03*
D22*
X806700Y162600D03*
X780900Y162600D03*
D27*
X765600Y162600D03*
D22*
X741300Y162600D03*
D35*
X690600Y162600D03*
D32*
X628200Y138600D03*
X619800Y138600D03*
X603000Y138600D03*
D33*
X591900Y138600D03*
D28*
X906300Y163200D03*
D22*
X880500Y163200D03*
D20*
X861900Y163200D03*
D24*
X843900Y163200D03*
D23*
X821400Y163200D03*
D22*
X806700Y163200D03*
X780900Y163200D03*
D31*
X765600Y163200D03*
D36*
X741600Y163200D03*
D35*
X690600Y163200D03*
D32*
X628200Y139200D03*
X619200Y139200D03*
X603600Y139200D03*
D33*
X591900Y139200D03*
D28*
X906300Y163800D03*
D22*
X880500Y163800D03*
D20*
X862500Y163800D03*
D24*
X843900Y163800D03*
D23*
X821400Y163800D03*
D22*
X806700Y163800D03*
X780900Y163800D03*
D45*
X765600Y163800D03*
D20*
X741900Y163800D03*
D42*
X690300Y163800D03*
D32*
X628200Y139800D03*
X618600Y139800D03*
X604200Y139800D03*
X591600Y139800D03*
D28*
X906300Y164400D03*
D22*
X880500Y164400D03*
D20*
X863100Y164400D03*
D23*
X843600Y164400D03*
X821400Y164400D03*
D22*
X806700Y164400D03*
X780900Y164400D03*
D34*
X742200Y164400D03*
D37*
X690000Y164400D03*
D32*
X628200Y140400D03*
X618000Y140400D03*
D30*
X604500Y140400D03*
D32*
X591600Y140400D03*
D28*
X906300Y165000D03*
D22*
X880500Y165000D03*
D34*
X864000Y165000D03*
D23*
X843600Y165000D03*
X821400Y165000D03*
D22*
X806700Y165000D03*
X780900Y165000D03*
D21*
X743100Y165000D03*
D39*
X689700Y165000D03*
D33*
X628500Y141000D03*
D32*
X617400Y141000D03*
D30*
X605100Y141000D03*
D32*
X591600Y141000D03*
D28*
X906300Y165600D03*
D22*
X880500Y165600D03*
D34*
X864600Y165600D03*
D23*
X843600Y165600D03*
X821400Y165600D03*
D22*
X806700Y165600D03*
X780900Y165600D03*
D35*
X744000Y165600D03*
D41*
X689400Y165600D03*
D33*
X628500Y141600D03*
D32*
X616800Y141600D03*
D30*
X605700Y141600D03*
D32*
X591600Y141600D03*
D28*
X906300Y166200D03*
D58*
X872400Y166200D03*
D23*
X843600Y166200D03*
X821400Y166200D03*
D22*
X806700Y166200D03*
X780900Y166200D03*
D39*
X744900Y166200D03*
D41*
X689400Y166200D03*
D33*
X628500Y142200D03*
D32*
X616200Y142200D03*
D30*
X606300Y142200D03*
D32*
X591600Y142200D03*
D28*
X906300Y166800D03*
D57*
X873000Y166800D03*
D23*
X843600Y166800D03*
X821400Y166800D03*
D22*
X806700Y166800D03*
X780900Y166800D03*
D66*
X746700Y166800D03*
D40*
X689100Y166800D03*
D32*
X628800Y142800D03*
X615600Y142800D03*
D30*
X606900Y142800D03*
D32*
X591600Y142800D03*
D28*
X906300Y167400D03*
D57*
X873000Y167400D03*
D23*
X843600Y167400D03*
X821400Y167400D03*
D67*
X793800Y167400D03*
D47*
X747900Y167400D03*
D43*
X688800Y167400D03*
D32*
X628800Y143400D03*
X615000Y143400D03*
D30*
X607500Y143400D03*
D32*
X591600Y143400D03*
D28*
X906300Y168000D03*
D68*
X871800Y168000D03*
D23*
X843000Y168000D03*
X822000Y168000D03*
D67*
X793800Y168000D03*
D51*
X749100Y168000D03*
D66*
X688500Y168000D03*
D32*
X628800Y144000D03*
X614400Y144000D03*
X607800Y144000D03*
X591600Y144000D03*
D28*
X906300Y168600D03*
D64*
X871200Y168600D03*
D23*
X843000Y168600D03*
X822000Y168600D03*
D67*
X793800Y168600D03*
D52*
X750000Y168600D03*
D46*
X688200Y168600D03*
D32*
X628800Y144600D03*
X613800Y144600D03*
X608400Y144600D03*
D33*
X591300Y144600D03*
D28*
X906300Y169200D03*
D65*
X870600Y169200D03*
D23*
X843000Y169200D03*
D22*
X822300Y169200D03*
D67*
X793800Y169200D03*
D54*
X751200Y169200D03*
D28*
X694500Y169200D03*
D38*
X685500Y169200D03*
D32*
X628800Y145200D03*
X613200Y145200D03*
X609000Y145200D03*
D33*
X591300Y145200D03*
D28*
X906300Y169800D03*
D69*
X870300Y169800D03*
D22*
X842700Y169800D03*
D23*
X822600Y169800D03*
D67*
X793800Y169800D03*
D54*
X752400Y169800D03*
D28*
X694500Y169800D03*
D35*
X685200Y169800D03*
D32*
X628800Y145800D03*
D26*
X611100Y145800D03*
D32*
X591000Y145800D03*
D28*
X906300Y170400D03*
D62*
X869700Y170400D03*
D23*
X842400Y170400D03*
D22*
X822900Y170400D03*
D67*
X793800Y170400D03*
D54*
X753000Y170400D03*
D28*
X694500Y170400D03*
D35*
X684600Y170400D03*
D32*
X628800Y146400D03*
D28*
X611100Y146400D03*
D32*
X591000Y146400D03*
D28*
X906300Y171000D03*
D61*
X869400Y171000D03*
D22*
X842100Y171000D03*
X822900Y171000D03*
D67*
X793800Y171000D03*
D53*
X753900Y171000D03*
D28*
X694500Y171000D03*
D35*
X684000Y171000D03*
D32*
X628800Y147000D03*
D30*
X611100Y147000D03*
D32*
X591000Y147000D03*
D28*
X906300Y171600D03*
D60*
X869100Y171600D03*
D22*
X841500Y171600D03*
X823500Y171600D03*
D67*
X793800Y171600D03*
D53*
X755100Y171600D03*
D28*
X694500Y171600D03*
D35*
X683400Y171600D03*
D33*
X629100Y147600D03*
D30*
X611100Y147600D03*
D32*
X591000Y147600D03*
D28*
X906300Y172200D03*
D60*
X869100Y172200D03*
D36*
X841200Y172200D03*
D20*
X824100Y172200D03*
D67*
X793800Y172200D03*
D51*
X755700Y172200D03*
D28*
X694500Y172200D03*
D35*
X683400Y172200D03*
D33*
X629100Y148200D03*
D28*
X611100Y148200D03*
D32*
X591000Y148200D03*
D28*
X906300Y172800D03*
D22*
X880500Y172800D03*
D48*
X858600Y172800D03*
D20*
X840300Y172800D03*
X824700Y172800D03*
D67*
X793800Y172800D03*
D50*
X756900Y172800D03*
D28*
X694500Y172800D03*
D35*
X682800Y172800D03*
D33*
X629100Y148800D03*
D26*
X611100Y148800D03*
D32*
X591000Y148800D03*
D28*
X906300Y173400D03*
D22*
X880500Y173400D03*
D20*
X857700Y173400D03*
D55*
X832500Y173400D03*
D67*
X793800Y173400D03*
D46*
X758400Y173400D03*
D28*
X694500Y173400D03*
D35*
X682200Y173400D03*
D32*
X629400Y149400D03*
X613200Y149400D03*
D30*
X609300Y149400D03*
D32*
X591000Y149400D03*
D28*
X906300Y174000D03*
D22*
X880500Y174000D03*
D20*
X857100Y174000D03*
D57*
X832800Y174000D03*
D22*
X806700Y174000D03*
X780900Y174000D03*
D40*
X759900Y174000D03*
D28*
X694500Y174000D03*
D35*
X681600Y174000D03*
D32*
X629400Y150000D03*
X613800Y150000D03*
D30*
X608700Y150000D03*
D32*
X591000Y150000D03*
D28*
X906300Y174600D03*
D22*
X880500Y174600D03*
D36*
X856800Y174600D03*
D54*
X832800Y174600D03*
D22*
X806700Y174600D03*
X780900Y174600D03*
D42*
X761100Y174600D03*
D28*
X694500Y174600D03*
D42*
X681300Y174600D03*
D32*
X629400Y150600D03*
X614400Y150600D03*
D30*
X608100Y150600D03*
D32*
X591000Y150600D03*
D28*
X906300Y175200D03*
D22*
X880500Y175200D03*
D36*
X856200Y175200D03*
D52*
X832800Y175200D03*
D22*
X806700Y175200D03*
X780900Y175200D03*
D48*
X762000Y175200D03*
D28*
X694500Y175200D03*
D42*
X680700Y175200D03*
D32*
X629400Y151200D03*
X615000Y151200D03*
D30*
X607500Y151200D03*
D33*
X590700Y151200D03*
D28*
X906300Y175800D03*
D22*
X880500Y175800D03*
X855900Y175800D03*
D70*
X832800Y175800D03*
D22*
X806700Y175800D03*
X780900Y175800D03*
D34*
X763200Y175800D03*
D28*
X694500Y175800D03*
D35*
X680400Y175800D03*
D32*
X629400Y151800D03*
D30*
X615300Y151800D03*
X606900Y151800D03*
D33*
X590700Y151800D03*
D28*
X906300Y176400D03*
D22*
X880500Y176400D03*
X855900Y176400D03*
D47*
X832500Y176400D03*
D22*
X806700Y176400D03*
X780900Y176400D03*
D20*
X763500Y176400D03*
D28*
X694500Y176400D03*
D35*
X679800Y176400D03*
D32*
X629400Y152400D03*
D30*
X615900Y152400D03*
X606300Y152400D03*
D32*
X590400Y152400D03*
D28*
X906300Y177000D03*
D22*
X880500Y177000D03*
X855900Y177000D03*
D66*
X832500Y177000D03*
D22*
X806700Y177000D03*
X780900Y177000D03*
X764100Y177000D03*
D30*
X742500Y177000D03*
D28*
X694500Y177000D03*
D35*
X679200Y177000D03*
D32*
X629400Y153000D03*
D30*
X616500Y153000D03*
X605700Y153000D03*
D32*
X590400Y153000D03*
D28*
X906300Y177600D03*
D22*
X880500Y177600D03*
X855900Y177600D03*
D39*
X832500Y177600D03*
D22*
X806700Y177600D03*
X780900Y177600D03*
X764100Y177600D03*
D28*
X742500Y177600D03*
X694500Y177600D03*
D35*
X678600Y177600D03*
D32*
X629400Y153600D03*
D30*
X617100Y153600D03*
X605100Y153600D03*
D32*
X590400Y153600D03*
D28*
X906300Y178200D03*
D22*
X880500Y178200D03*
X855900Y178200D03*
D21*
X832500Y178200D03*
D22*
X806700Y178200D03*
X780900Y178200D03*
D23*
X764400Y178200D03*
D26*
X742500Y178200D03*
D28*
X694500Y178200D03*
D35*
X678000Y178200D03*
D32*
X629400Y154200D03*
D30*
X617700Y154200D03*
X604500Y154200D03*
D32*
X590400Y154200D03*
D28*
X906300Y178800D03*
D22*
X880500Y178800D03*
X855900Y178800D03*
D25*
X832800Y178800D03*
D22*
X806700Y178800D03*
X780900Y178800D03*
X764700Y178800D03*
D25*
X742200Y178800D03*
D28*
X694500Y178800D03*
D35*
X677400Y178800D03*
D33*
X629700Y154800D03*
D32*
X618000Y154800D03*
D30*
X603900Y154800D03*
D32*
X590400Y154800D03*
D28*
X906300Y179400D03*
D22*
X880500Y179400D03*
X855900Y179400D03*
X806700Y179400D03*
X780900Y179400D03*
D24*
X764700Y179400D03*
X742500Y179400D03*
D28*
X694500Y179400D03*
D35*
X676800Y179400D03*
D33*
X629700Y155400D03*
D32*
X618600Y155400D03*
D30*
X603300Y155400D03*
D32*
X590400Y155400D03*
D28*
X906300Y180000D03*
D22*
X880500Y180000D03*
D36*
X856200Y180000D03*
D22*
X806700Y180000D03*
X780900Y180000D03*
D24*
X764700Y180000D03*
D23*
X742800Y180000D03*
D28*
X694500Y180000D03*
D35*
X676200Y180000D03*
D33*
X629700Y156000D03*
D32*
X619200Y156000D03*
D30*
X602700Y156000D03*
D32*
X590400Y156000D03*
D28*
X906300Y180600D03*
D22*
X880500Y180600D03*
D36*
X856200Y180600D03*
D22*
X806700Y180600D03*
X780900Y180600D03*
D23*
X764400Y180600D03*
X742800Y180600D03*
D28*
X694500Y180600D03*
D38*
X675900Y180600D03*
D32*
X630000Y156600D03*
X619800Y156600D03*
D30*
X602100Y156600D03*
D32*
X590400Y156600D03*
D28*
X906300Y181200D03*
D22*
X880500Y181200D03*
D20*
X856500Y181200D03*
D22*
X806700Y181200D03*
X780900Y181200D03*
D23*
X764400Y181200D03*
D22*
X743100Y181200D03*
D28*
X694500Y181200D03*
D48*
X675000Y181200D03*
D32*
X630000Y157200D03*
X620400Y157200D03*
D30*
X601500Y157200D03*
D33*
X590100Y157200D03*
D28*
X906300Y181800D03*
D22*
X880500Y181800D03*
D20*
X857100Y181800D03*
D22*
X806700Y181800D03*
X780900Y181800D03*
X764100Y181800D03*
X743100Y181800D03*
D28*
X694500Y181800D03*
D21*
X674100Y181800D03*
D32*
X630000Y157800D03*
X621000Y157800D03*
D30*
X600900Y157800D03*
D33*
X590100Y157800D03*
D28*
X906300Y182400D03*
D22*
X880500Y182400D03*
D34*
X857400Y182400D03*
D22*
X806700Y182400D03*
X780900Y182400D03*
D23*
X763800Y182400D03*
D36*
X743400Y182400D03*
D28*
X694500Y182400D03*
D34*
X673200Y182400D03*
D32*
X630000Y158400D03*
X621600Y158400D03*
D30*
X600300Y158400D03*
D33*
X590100Y158400D03*
D28*
X906300Y183000D03*
D22*
X880500Y183000D03*
D38*
X858300Y183000D03*
D22*
X806700Y183000D03*
X780900Y183000D03*
D36*
X763200Y183000D03*
X744000Y183000D03*
D28*
X694500Y183000D03*
D22*
X672300Y183000D03*
D32*
X630000Y159000D03*
X622200Y159000D03*
D30*
X599700Y159000D03*
D32*
X589800Y159000D03*
D28*
X906300Y183600D03*
D71*
X868800Y183600D03*
D22*
X806700Y183600D03*
X780900Y183600D03*
D20*
X762900Y183600D03*
D34*
X744600Y183600D03*
D28*
X694500Y183600D03*
D27*
X670800Y183600D03*
D32*
X630000Y159600D03*
X622800Y159600D03*
X599400Y159600D03*
X589800Y159600D03*
D28*
X906300Y184200D03*
D71*
X868800Y184200D03*
D22*
X806700Y184200D03*
X780900Y184200D03*
D48*
X761400Y184200D03*
X745800Y184200D03*
D28*
X694500Y184200D03*
D32*
X630000Y160200D03*
X623400Y160200D03*
D47*
X606300Y160200D03*
D32*
X589800Y160200D03*
D28*
X906300Y184800D03*
D60*
X869100Y184800D03*
D22*
X806700Y184800D03*
X780900Y184800D03*
D63*
X753300Y184800D03*
D28*
X694500Y184800D03*
D32*
X630000Y160800D03*
X624000Y160800D03*
D50*
X606300Y160800D03*
D32*
X589800Y160800D03*
D28*
X906300Y185400D03*
D61*
X869400Y185400D03*
D22*
X806700Y185400D03*
X780900Y185400D03*
D68*
X753600Y185400D03*
D28*
X694500Y185400D03*
D32*
X630000Y161400D03*
X624600Y161400D03*
D50*
X605700Y161400D03*
D32*
X589800Y161400D03*
D28*
X906300Y186000D03*
D62*
X869700Y186000D03*
D22*
X806700Y186000D03*
X780900Y186000D03*
D58*
X753600Y186000D03*
D28*
X694500Y186000D03*
D33*
X630300Y162000D03*
D32*
X625200Y162000D03*
D51*
X605700Y162000D03*
D32*
X589800Y162000D03*
D28*
X906300Y186600D03*
D72*
X870000Y186600D03*
D22*
X806700Y186600D03*
X780900Y186600D03*
D57*
X753600Y186600D03*
D28*
X694500Y186600D03*
D33*
X630300Y162600D03*
D32*
X625800Y162600D03*
D52*
X605400Y162600D03*
D32*
X589800Y162600D03*
D28*
X906300Y187200D03*
D69*
X870300Y187200D03*
D23*
X807000Y187200D03*
D22*
X780900Y187200D03*
D54*
X753600Y187200D03*
D28*
X694500Y187200D03*
D32*
X630600Y163200D03*
D30*
X626100Y163200D03*
D46*
X606600Y163200D03*
D32*
X595800Y163200D03*
X589800Y163200D03*
D28*
X906300Y187800D03*
D73*
X870300Y187800D03*
D23*
X807000Y187800D03*
D24*
X780900Y187800D03*
D70*
X753600Y187800D03*
D28*
X694500Y187800D03*
D32*
X630600Y163800D03*
D30*
X626700Y163800D03*
D46*
X606600Y163800D03*
D32*
X595200Y163800D03*
D33*
X589500Y163800D03*
D28*
X906300Y188400D03*
D68*
X870600Y188400D03*
D24*
X806700Y188400D03*
X780900Y188400D03*
D49*
X753600Y188400D03*
D28*
X694500Y188400D03*
D25*
X628800Y164400D03*
D47*
X606900Y164400D03*
D32*
X594600Y164400D03*
D33*
X589500Y164400D03*
D28*
X906300Y189000D03*
D57*
X871200Y189000D03*
D26*
X806700Y189000D03*
X780900Y189000D03*
D40*
X753300Y189000D03*
D28*
X694500Y189000D03*
D26*
X629100Y165000D03*
D47*
X606900Y165000D03*
D32*
X594000Y165000D03*
D33*
X589500Y165000D03*
D28*
X906300Y189600D03*
D39*
X872700Y189600D03*
D45*
X864600Y189600D03*
D28*
X806700Y189600D03*
X780900Y189600D03*
D38*
X753300Y189600D03*
D28*
X695100Y189600D03*
D27*
X629400Y165600D03*
D46*
X606600Y165600D03*
D32*
X593400Y165600D03*
X589200Y165600D03*
D28*
X906300Y190200D03*
D33*
X806700Y190200D03*
X780900Y190200D03*
D28*
X753300Y190200D03*
X695100Y190200D03*
X629700Y166200D03*
D35*
X588000Y166200D03*
D28*
X906300Y190800D03*
X695100Y190800D03*
D31*
X630000Y166800D03*
D38*
X587700Y166800D03*
D28*
X906300Y191400D03*
X695100Y191400D03*
D30*
X630300Y167400D03*
D48*
X587400Y167400D03*
D27*
X906000Y192000D03*
X695400Y192000D03*
D32*
X630600Y168000D03*
D21*
X587100Y168000D03*
D28*
X905700Y192600D03*
X695700Y192600D03*
D32*
X631200Y168600D03*
D31*
X589800Y168600D03*
D33*
X582900Y168600D03*
D28*
X905700Y193200D03*
X695700Y193200D03*
D30*
X631500Y169200D03*
X589500Y169200D03*
D33*
X582900Y169200D03*
D27*
X905400Y193800D03*
X696000Y193800D03*
D31*
X631800Y169800D03*
D30*
X589500Y169800D03*
D33*
X582900Y169800D03*
D27*
X905400Y194400D03*
X696000Y194400D03*
D28*
X632100Y170400D03*
D31*
X589200Y170400D03*
D33*
X582900Y170400D03*
D28*
X905100Y195000D03*
D27*
X696600Y195000D03*
X632400Y171000D03*
D28*
X588900Y171000D03*
D33*
X582900Y171000D03*
D27*
X904800Y195600D03*
X696600Y195600D03*
D26*
X632700Y171600D03*
D27*
X588600Y171600D03*
D33*
X582900Y171600D03*
D27*
X904200Y196200D03*
X697200Y196200D03*
D32*
X634800Y172200D03*
X631200Y172200D03*
D26*
X588300Y172200D03*
D33*
X582900Y172200D03*
D27*
X904200Y196800D03*
X697200Y196800D03*
D32*
X635400Y172800D03*
X631200Y172800D03*
D25*
X588000Y172800D03*
D33*
X582900Y172800D03*
D27*
X903600Y197400D03*
X697800Y197400D03*
D32*
X636000Y173400D03*
X631200Y173400D03*
D20*
X586500Y173400D03*
D26*
X903300Y198000D03*
X698100Y198000D03*
D32*
X636600Y174000D03*
X631200Y174000D03*
D20*
X586500Y174000D03*
D26*
X902700Y198600D03*
X698700Y198600D03*
D30*
X636900Y174600D03*
D32*
X631200Y174600D03*
D20*
X586500Y174600D03*
D25*
X902400Y199200D03*
X699000Y199200D03*
D30*
X637500Y175200D03*
D32*
X631200Y175200D03*
D20*
X586500Y175200D03*
D24*
X901500Y199800D03*
D25*
X699600Y199800D03*
D30*
X638100Y175800D03*
D33*
X631500Y175800D03*
D32*
X588600Y175800D03*
D30*
X583500Y175800D03*
D24*
X900900Y200400D03*
D25*
X700200Y200400D03*
D30*
X638700Y176400D03*
D33*
X631500Y176400D03*
D32*
X588600Y176400D03*
X582600Y176400D03*
D23*
X900000Y201000D03*
X700800Y201000D03*
D32*
X639000Y177000D03*
D33*
X631500Y177000D03*
X588300Y177000D03*
D32*
X582000Y177000D03*
D36*
X898800Y201600D03*
D22*
X701700Y201600D03*
D32*
X639600Y177600D03*
X631800Y177600D03*
D33*
X588300Y177600D03*
D30*
X581700Y177600D03*
D21*
X897300Y202200D03*
D34*
X703200Y202200D03*
D32*
X640200Y178200D03*
X631800Y178200D03*
X588000Y178200D03*
D30*
X581100Y178200D03*
D74*
X800400Y202800D03*
D32*
X640800Y178800D03*
X631800Y178800D03*
X588000Y178800D03*
D30*
X580500Y178800D03*
D18*
X800700Y203400D03*
D32*
X641400Y179400D03*
X631800Y179400D03*
X588000Y179400D03*
D30*
X579900Y179400D03*
D17*
X800400Y204000D03*
D32*
X642000Y180000D03*
X631800Y180000D03*
D45*
X629400Y180000D03*
D25*
X587400Y180000D03*
D30*
X579300Y180000D03*
D16*
X800100Y204600D03*
D32*
X642600Y180600D03*
D75*
X609900Y180600D03*
D30*
X578700Y180600D03*
D76*
X800400Y205200D03*
D32*
X643200Y181200D03*
D77*
X609600Y181200D03*
D30*
X578100Y181200D03*
D78*
X800100Y205800D03*
D32*
X643800Y181800D03*
D79*
X609300Y181800D03*
D30*
X577500Y181800D03*
D80*
X800100Y206400D03*
D32*
X644400Y182400D03*
D79*
X609300Y182400D03*
D30*
X576900Y182400D03*
D81*
X800100Y207000D03*
D32*
X645000Y183000D03*
D30*
X632100Y183000D03*
D27*
X625200Y183000D03*
D36*
X585600Y183000D03*
D30*
X576300Y183000D03*
D32*
X645600Y183600D03*
X631800Y183600D03*
D28*
X625500Y183600D03*
D36*
X585600Y183600D03*
D30*
X575700Y183600D03*
D32*
X646200Y184200D03*
D30*
X631500Y184200D03*
D28*
X625500Y184200D03*
D36*
X585600Y184200D03*
D30*
X575100Y184200D03*
D32*
X646800Y184800D03*
D30*
X630900Y184800D03*
D28*
X625500Y184800D03*
D36*
X586200Y184800D03*
D30*
X574500Y184800D03*
D32*
X647400Y185400D03*
D36*
X627600Y185400D03*
D34*
X586800Y185400D03*
D30*
X573900Y185400D03*
X647700Y186000D03*
D36*
X627600Y186000D03*
D39*
X608100Y186000D03*
D21*
X587700Y186000D03*
D30*
X573300Y186000D03*
X648300Y186600D03*
D23*
X627000Y186600D03*
D39*
X608100Y186600D03*
D27*
X591600Y186600D03*
D28*
X585300Y186600D03*
D30*
X572700Y186600D03*
X648900Y187200D03*
D24*
X626700Y187200D03*
D39*
X608100Y187200D03*
D25*
X592800Y187200D03*
D33*
X585300Y187200D03*
D30*
X572100Y187200D03*
D32*
X649200Y187800D03*
D36*
X625200Y187800D03*
D39*
X608100Y187800D03*
D22*
X594300Y187800D03*
D30*
X571500Y187800D03*
D32*
X649800Y188400D03*
D35*
X622200Y188400D03*
D30*
X613500Y188400D03*
D35*
X597600Y188400D03*
D32*
X571200Y188400D03*
X650400Y189000D03*
D40*
X620100Y189000D03*
D48*
X598200Y189000D03*
D32*
X570600Y189000D03*
X651000Y189600D03*
D40*
X620100Y189600D03*
D20*
X599100Y189600D03*
D32*
X570000Y189600D03*
X651600Y190200D03*
D71*
X612000Y190200D03*
D32*
X569400Y190200D03*
X652200Y190800D03*
D53*
X609900Y190800D03*
D32*
X568800Y190800D03*
X652800Y191400D03*
D39*
X608100Y191400D03*
D32*
X568200Y191400D03*
X653400Y192000D03*
D39*
X608100Y192000D03*
D32*
X567600Y192000D03*
X654000Y192600D03*
X567000Y192600D03*
X654600Y193200D03*
X566400Y193200D03*
X655200Y193800D03*
X565800Y193800D03*
X655800Y194400D03*
X565200Y194400D03*
X656400Y195000D03*
X564600Y195000D03*
X657000Y195600D03*
X564000Y195600D03*
X657600Y196200D03*
X563400Y196200D03*
D30*
X657900Y196800D03*
D32*
X562800Y196800D03*
D30*
X658500Y197400D03*
D32*
X562200Y197400D03*
X658800Y198000D03*
X561600Y198000D03*
D33*
X659100Y198600D03*
X561300Y198600D03*
D29*
X659400Y199200D03*
X561000Y199200D03*
D44*
X659700Y199800D03*
X560700Y199800D03*
D45*
X660000Y200400D03*
X560400Y200400D03*
D82*
X133785Y645728D02*
X114608Y645728D01*
X114608Y629472D02*
X133785Y629472D01*
D83*
X111052Y637600D03*
X137468Y637600D03*
D84*
X97901Y629765D02*
X89766Y629765D01*
X97901Y629765D02*
X97901Y633833D01*
X96545Y635189D01*
X93833Y635189D01*
X92478Y633833D01*
X92478Y629765D01*
X92478Y632477D02*
X89766Y635189D01*
X95189Y637951D02*
X97901Y640663D01*
X89766Y640663D01*
X89766Y643374D02*
X89766Y637951D01*
D82*
X241808Y645728D02*
X260985Y645728D01*
X260985Y629472D02*
X241808Y629472D01*
D83*
X238252Y637600D03*
X264668Y637600D03*
D84*
X225101Y629765D02*
X216966Y629765D01*
X225101Y629765D02*
X225101Y633833D01*
X223745Y635189D01*
X221033Y635189D01*
X219678Y633833D01*
X219678Y629765D01*
X219678Y632477D02*
X216966Y635189D01*
X216966Y637951D02*
X216966Y643374D01*
X216966Y637951D02*
X222389Y643374D01*
X223745Y643374D01*
X225101Y642018D01*
X225101Y639307D01*
X223745Y637951D01*
D82*
X369508Y645728D02*
X388685Y645728D01*
X388685Y629472D02*
X369508Y629472D01*
D83*
X365952Y637600D03*
X392368Y637600D03*
D84*
X352801Y629765D02*
X344666Y629765D01*
X352801Y629765D02*
X352801Y633833D01*
X351445Y635189D01*
X348733Y635189D01*
X347378Y633833D01*
X347378Y629765D01*
X347378Y632477D02*
X344666Y635189D01*
X351445Y637951D02*
X352801Y639307D01*
X352801Y642018D01*
X351445Y643374D01*
X350089Y643374D01*
X348733Y642018D01*
X348733Y640663D01*
X348733Y642018D02*
X347378Y643374D01*
X346022Y643374D01*
X344666Y642018D01*
X344666Y639307D01*
X346022Y637951D01*
D82*
X133798Y620378D02*
X114621Y620378D01*
X114621Y604122D02*
X133798Y604122D01*
D83*
X111065Y612250D03*
X137481Y612250D03*
D84*
X97913Y604415D02*
X89779Y604415D01*
X97913Y604415D02*
X97913Y608483D01*
X96558Y609839D01*
X93846Y609839D01*
X92490Y608483D01*
X92490Y604415D01*
X92490Y607127D02*
X89779Y609839D01*
X89779Y616668D02*
X97913Y616668D01*
X93846Y612601D01*
X93846Y618024D01*
D82*
X241808Y620328D02*
X260985Y620328D01*
X260985Y604072D02*
X241808Y604072D01*
D83*
X238252Y612200D03*
X264668Y612200D03*
D84*
X225101Y604365D02*
X216966Y604365D01*
X225101Y604365D02*
X225101Y608433D01*
X223745Y609789D01*
X221033Y609789D01*
X219678Y608433D01*
X219678Y604365D01*
X219678Y607077D02*
X216966Y609789D01*
X225101Y612551D02*
X225101Y617974D01*
X225101Y612551D02*
X221033Y612551D01*
X222389Y615263D01*
X222389Y616618D01*
X221033Y617974D01*
X218322Y617974D01*
X216966Y616618D01*
X216966Y613907D01*
X218322Y612551D01*
D82*
X369508Y620328D02*
X388685Y620328D01*
X388685Y604072D02*
X369508Y604072D01*
D83*
X365952Y612200D03*
X392368Y612200D03*
D84*
X352801Y604365D02*
X344666Y604365D01*
X352801Y604365D02*
X352801Y608433D01*
X351445Y609789D01*
X348733Y609789D01*
X347378Y608433D01*
X347378Y604365D01*
X347378Y607077D02*
X344666Y609789D01*
X351445Y615263D02*
X352801Y617974D01*
X351445Y615263D02*
X348733Y612551D01*
X346022Y612551D01*
X344666Y613907D01*
X344666Y616618D01*
X346022Y617974D01*
X347378Y617974D01*
X348733Y616618D01*
X348733Y612551D01*
D82*
X133779Y594903D02*
X114602Y594903D01*
X114602Y578647D02*
X133779Y578647D01*
D83*
X111046Y586775D03*
X137462Y586775D03*
D84*
X97895Y578940D02*
X89760Y578940D01*
X97895Y578940D02*
X97895Y583008D01*
X96539Y584364D01*
X93827Y584364D01*
X92471Y583008D01*
X92471Y578940D01*
X92471Y581652D02*
X89760Y584364D01*
X97895Y587126D02*
X97895Y592549D01*
X96539Y592549D01*
X91116Y587126D01*
X89760Y587126D01*
D82*
X241808Y594928D02*
X260985Y594928D01*
X260985Y578672D02*
X241808Y578672D01*
D83*
X238252Y586800D03*
X264668Y586800D03*
D84*
X225101Y578965D02*
X216966Y578965D01*
X225101Y578965D02*
X225101Y583033D01*
X223745Y584389D01*
X221033Y584389D01*
X219678Y583033D01*
X219678Y578965D01*
X219678Y581677D02*
X216966Y584389D01*
X223745Y587151D02*
X225101Y588507D01*
X225101Y591218D01*
X223745Y592574D01*
X222389Y592574D01*
X221033Y591218D01*
X219678Y592574D01*
X218322Y592574D01*
X216966Y591218D01*
X216966Y588507D01*
X218322Y587151D01*
X219678Y587151D01*
X221033Y588507D01*
X222389Y587151D01*
X223745Y587151D01*
X221033Y588507D02*
X221033Y591218D01*
D82*
X369508Y594928D02*
X388685Y594928D01*
X388685Y578672D02*
X369508Y578672D01*
D83*
X365952Y586800D03*
X392368Y586800D03*
D84*
X352801Y578965D02*
X344666Y578965D01*
X352801Y578965D02*
X352801Y583033D01*
X351445Y584389D01*
X348733Y584389D01*
X347378Y583033D01*
X347378Y578965D01*
X347378Y581677D02*
X344666Y584389D01*
X346022Y587151D02*
X344666Y588507D01*
X344666Y591218D01*
X346022Y592574D01*
X351445Y592574D01*
X352801Y591218D01*
X352801Y588507D01*
X351445Y587151D01*
X350089Y587151D01*
X348733Y588507D01*
X348733Y592574D01*
D82*
X133785Y569528D02*
X114608Y569528D01*
X114608Y553272D02*
X133785Y553272D01*
D83*
X111052Y561400D03*
X137468Y561400D03*
D84*
X97901Y549472D02*
X89766Y549472D01*
X97901Y549472D02*
X97901Y553540D01*
X96545Y554896D01*
X93833Y554896D01*
X92478Y553540D01*
X92478Y549472D01*
X92478Y552184D02*
X89766Y554896D01*
X95189Y557658D02*
X97901Y560370D01*
X89766Y560370D01*
X89766Y563081D02*
X89766Y557658D01*
X91122Y565844D02*
X96545Y565844D01*
X97901Y567200D01*
X97901Y569911D01*
X96545Y571267D01*
X91122Y571267D01*
X89766Y569911D01*
X89766Y567200D01*
X91122Y565844D01*
X96545Y571267D01*
D82*
X241808Y569528D02*
X260985Y569528D01*
X260985Y553272D02*
X241808Y553272D01*
D83*
X238252Y561400D03*
X264668Y561400D03*
D84*
X225101Y549472D02*
X216966Y549472D01*
X225101Y549472D02*
X225101Y553540D01*
X223745Y554896D01*
X221033Y554896D01*
X219678Y553540D01*
X219678Y549472D01*
X219678Y552184D02*
X216966Y554896D01*
X222389Y557658D02*
X225101Y560370D01*
X216966Y560370D01*
X216966Y563081D02*
X216966Y557658D01*
X222389Y565844D02*
X225101Y568556D01*
X216966Y568556D01*
X216966Y571267D02*
X216966Y565844D01*
D82*
X369508Y569528D02*
X388685Y569528D01*
X388685Y553272D02*
X369508Y553272D01*
D83*
X365952Y561400D03*
X392368Y561400D03*
D84*
X352801Y549472D02*
X344666Y549472D01*
X352801Y549472D02*
X352801Y553540D01*
X351445Y554896D01*
X348733Y554896D01*
X347378Y553540D01*
X347378Y549472D01*
X347378Y552184D02*
X344666Y554896D01*
X350089Y557658D02*
X352801Y560370D01*
X344666Y560370D01*
X344666Y563081D02*
X344666Y557658D01*
X344666Y565844D02*
X344666Y571267D01*
X344666Y565844D02*
X350089Y571267D01*
X351445Y571267D01*
X352801Y569911D01*
X352801Y567200D01*
X351445Y565844D01*
D82*
X133785Y544128D02*
X114608Y544128D01*
X114608Y527872D02*
X133785Y527872D01*
D83*
X111052Y536000D03*
X137468Y536000D03*
D84*
X97901Y524072D02*
X89766Y524072D01*
X97901Y524072D02*
X97901Y528140D01*
X96545Y529496D01*
X93833Y529496D01*
X92478Y528140D01*
X92478Y524072D01*
X92478Y526784D02*
X89766Y529496D01*
X95189Y532258D02*
X97901Y534970D01*
X89766Y534970D01*
X89766Y537681D02*
X89766Y532258D01*
X96545Y540444D02*
X97901Y541800D01*
X97901Y544511D01*
X96545Y545867D01*
X95189Y545867D01*
X93833Y544511D01*
X93833Y543156D01*
X93833Y544511D02*
X92478Y545867D01*
X91122Y545867D01*
X89766Y544511D01*
X89766Y541800D01*
X91122Y540444D01*
D82*
X241808Y544128D02*
X260985Y544128D01*
X260985Y527872D02*
X241808Y527872D01*
D83*
X238252Y536000D03*
X264668Y536000D03*
D84*
X225101Y524072D02*
X216966Y524072D01*
X225101Y524072D02*
X225101Y528140D01*
X223745Y529496D01*
X221033Y529496D01*
X219678Y528140D01*
X219678Y524072D01*
X219678Y526784D02*
X216966Y529496D01*
X222389Y532258D02*
X225101Y534970D01*
X216966Y534970D01*
X216966Y537681D02*
X216966Y532258D01*
X216966Y544511D02*
X225101Y544511D01*
X221033Y540444D01*
X221033Y545867D01*
D82*
X369508Y544128D02*
X388685Y544128D01*
X388685Y527872D02*
X369508Y527872D01*
D83*
X365952Y536000D03*
X392368Y536000D03*
D84*
X352801Y524072D02*
X344666Y524072D01*
X352801Y524072D02*
X352801Y528140D01*
X351445Y529496D01*
X348733Y529496D01*
X347378Y528140D01*
X347378Y524072D01*
X347378Y526784D02*
X344666Y529496D01*
X350089Y532258D02*
X352801Y534970D01*
X344666Y534970D01*
X344666Y537681D02*
X344666Y532258D01*
X352801Y540444D02*
X352801Y545867D01*
X352801Y540444D02*
X348733Y540444D01*
X350089Y543156D01*
X350089Y544511D01*
X348733Y545867D01*
X346022Y545867D01*
X344666Y544511D01*
X344666Y541800D01*
X346022Y540444D01*
D82*
X133785Y518728D02*
X114608Y518728D01*
X114608Y502472D02*
X133785Y502472D01*
D83*
X111052Y510600D03*
X137468Y510600D03*
D84*
X97901Y498672D02*
X89766Y498672D01*
X97901Y498672D02*
X97901Y502740D01*
X96545Y504096D01*
X93833Y504096D01*
X92478Y502740D01*
X92478Y498672D01*
X92478Y501384D02*
X89766Y504096D01*
X95189Y506858D02*
X97901Y509570D01*
X89766Y509570D01*
X89766Y512281D02*
X89766Y506858D01*
X96545Y517756D02*
X97901Y520467D01*
X96545Y517756D02*
X93833Y515044D01*
X91122Y515044D01*
X89766Y516400D01*
X89766Y519111D01*
X91122Y520467D01*
X92478Y520467D01*
X93833Y519111D01*
X93833Y515044D01*
D82*
X241808Y518728D02*
X260985Y518728D01*
X260985Y502472D02*
X241808Y502472D01*
D83*
X238252Y510600D03*
X264668Y510600D03*
D84*
X225101Y498672D02*
X216966Y498672D01*
X225101Y498672D02*
X225101Y502740D01*
X223745Y504096D01*
X221033Y504096D01*
X219678Y502740D01*
X219678Y498672D01*
X219678Y501384D02*
X216966Y504096D01*
X222389Y506858D02*
X225101Y509570D01*
X216966Y509570D01*
X216966Y512281D02*
X216966Y506858D01*
X225101Y515044D02*
X225101Y520467D01*
X223745Y520467D01*
X218322Y515044D01*
X216966Y515044D01*
D82*
X369508Y518728D02*
X388685Y518728D01*
X388685Y502472D02*
X369508Y502472D01*
D83*
X365952Y510600D03*
X392368Y510600D03*
D84*
X352801Y498672D02*
X344666Y498672D01*
X352801Y498672D02*
X352801Y502740D01*
X351445Y504096D01*
X348733Y504096D01*
X347378Y502740D01*
X347378Y498672D01*
X347378Y501384D02*
X344666Y504096D01*
X350089Y506858D02*
X352801Y509570D01*
X344666Y509570D01*
X344666Y512281D02*
X344666Y506858D01*
X351445Y515044D02*
X352801Y516400D01*
X352801Y519111D01*
X351445Y520467D01*
X350089Y520467D01*
X348733Y519111D01*
X347378Y520467D01*
X346022Y520467D01*
X344666Y519111D01*
X344666Y516400D01*
X346022Y515044D01*
X347378Y515044D01*
X348733Y516400D01*
X350089Y515044D01*
X351445Y515044D01*
X348733Y516400D02*
X348733Y519111D01*
D82*
X133785Y493328D02*
X114608Y493328D01*
X114608Y477072D02*
X133785Y477072D01*
D83*
X111052Y485200D03*
X137468Y485200D03*
D84*
X97901Y473272D02*
X89766Y473272D01*
X97901Y473272D02*
X97901Y477340D01*
X96545Y478696D01*
X93833Y478696D01*
X92478Y477340D01*
X92478Y473272D01*
X92478Y475984D02*
X89766Y478696D01*
X95189Y481458D02*
X97901Y484170D01*
X89766Y484170D01*
X89766Y486881D02*
X89766Y481458D01*
X91122Y489644D02*
X89766Y491000D01*
X89766Y493711D01*
X91122Y495067D01*
X96545Y495067D01*
X97901Y493711D01*
X97901Y491000D01*
X96545Y489644D01*
X95189Y489644D01*
X93833Y491000D01*
X93833Y495067D01*
D82*
X241808Y493328D02*
X260985Y493328D01*
X260985Y477072D02*
X241808Y477072D01*
D83*
X238252Y485200D03*
X264668Y485200D03*
D84*
X225101Y473272D02*
X216966Y473272D01*
X225101Y473272D02*
X225101Y477340D01*
X223745Y478696D01*
X221033Y478696D01*
X219678Y477340D01*
X219678Y473272D01*
X219678Y475984D02*
X216966Y478696D01*
X216966Y481458D02*
X216966Y486881D01*
X216966Y481458D02*
X222389Y486881D01*
X223745Y486881D01*
X225101Y485526D01*
X225101Y482814D01*
X223745Y481458D01*
X223745Y489644D02*
X218322Y489644D01*
X223745Y489644D02*
X225101Y491000D01*
X225101Y493711D01*
X223745Y495067D01*
X218322Y495067D01*
X216966Y493711D01*
X216966Y491000D01*
X218322Y489644D01*
X223745Y495067D01*
D82*
X369508Y493328D02*
X388685Y493328D01*
X388685Y477072D02*
X369508Y477072D01*
D83*
X365952Y485200D03*
X392368Y485200D03*
D84*
X352801Y473272D02*
X344666Y473272D01*
X352801Y473272D02*
X352801Y477340D01*
X351445Y478696D01*
X348733Y478696D01*
X347378Y477340D01*
X347378Y473272D01*
X347378Y475984D02*
X344666Y478696D01*
X344666Y481458D02*
X344666Y486881D01*
X344666Y481458D02*
X350089Y486881D01*
X351445Y486881D01*
X352801Y485526D01*
X352801Y482814D01*
X351445Y481458D01*
X350089Y489644D02*
X352801Y492356D01*
X344666Y492356D01*
X344666Y495067D02*
X344666Y489644D01*
D82*
X133785Y467928D02*
X114608Y467928D01*
X114608Y451672D02*
X133785Y451672D01*
D83*
X111052Y459800D03*
X137468Y459800D03*
D84*
X97901Y447872D02*
X89766Y447872D01*
X97901Y447872D02*
X97901Y451940D01*
X96545Y453296D01*
X93833Y453296D01*
X92478Y451940D01*
X92478Y447872D01*
X92478Y450584D02*
X89766Y453296D01*
X89766Y456058D02*
X89766Y461481D01*
X89766Y456058D02*
X95189Y461481D01*
X96545Y461481D01*
X97901Y460126D01*
X97901Y457414D01*
X96545Y456058D01*
X89766Y464244D02*
X89766Y469667D01*
X89766Y464244D02*
X95189Y469667D01*
X96545Y469667D01*
X97901Y468311D01*
X97901Y465600D01*
X96545Y464244D01*
D82*
X241808Y467928D02*
X260985Y467928D01*
X260985Y451672D02*
X241808Y451672D01*
D83*
X238252Y459800D03*
X264668Y459800D03*
D84*
X225101Y447872D02*
X216966Y447872D01*
X225101Y447872D02*
X225101Y451940D01*
X223745Y453296D01*
X221033Y453296D01*
X219678Y451940D01*
X219678Y447872D01*
X219678Y450584D02*
X216966Y453296D01*
X216966Y456058D02*
X216966Y461481D01*
X216966Y456058D02*
X222389Y461481D01*
X223745Y461481D01*
X225101Y460126D01*
X225101Y457414D01*
X223745Y456058D01*
X223745Y464244D02*
X225101Y465600D01*
X225101Y468311D01*
X223745Y469667D01*
X222389Y469667D01*
X221033Y468311D01*
X221033Y466956D01*
X221033Y468311D02*
X219678Y469667D01*
X218322Y469667D01*
X216966Y468311D01*
X216966Y465600D01*
X218322Y464244D01*
D82*
X369508Y467928D02*
X388685Y467928D01*
X388685Y451672D02*
X369508Y451672D01*
D83*
X365952Y459800D03*
X392368Y459800D03*
D84*
X352801Y447872D02*
X344666Y447872D01*
X352801Y447872D02*
X352801Y451940D01*
X351445Y453296D01*
X348733Y453296D01*
X347378Y451940D01*
X347378Y447872D01*
X347378Y450584D02*
X344666Y453296D01*
X344666Y456058D02*
X344666Y461481D01*
X344666Y456058D02*
X350089Y461481D01*
X351445Y461481D01*
X352801Y460126D01*
X352801Y457414D01*
X351445Y456058D01*
X352801Y468311D02*
X344666Y468311D01*
X348733Y464244D02*
X352801Y468311D01*
X348733Y469667D02*
X348733Y464244D01*
D82*
X133785Y442528D02*
X114608Y442528D01*
X114608Y426272D02*
X133785Y426272D01*
D83*
X111052Y434400D03*
X137468Y434400D03*
D84*
X97901Y422472D02*
X89766Y422472D01*
X97901Y422472D02*
X97901Y426540D01*
X96545Y427896D01*
X93833Y427896D01*
X92478Y426540D01*
X92478Y422472D01*
X92478Y425184D02*
X89766Y427896D01*
X89766Y430658D02*
X89766Y436081D01*
X89766Y430658D02*
X95189Y436081D01*
X96545Y436081D01*
X97901Y434726D01*
X97901Y432014D01*
X96545Y430658D01*
X97901Y438844D02*
X97901Y444267D01*
X97901Y438844D02*
X93833Y438844D01*
X95189Y441556D01*
X95189Y442911D01*
X93833Y444267D01*
X91122Y444267D01*
X89766Y442911D01*
X89766Y440200D01*
X91122Y438844D01*
D82*
X241808Y442528D02*
X260985Y442528D01*
X260985Y426272D02*
X241808Y426272D01*
D83*
X238252Y434400D03*
X264668Y434400D03*
D84*
X225101Y422472D02*
X216966Y422472D01*
X225101Y422472D02*
X225101Y426540D01*
X223745Y427896D01*
X221033Y427896D01*
X219678Y426540D01*
X219678Y422472D01*
X219678Y425184D02*
X216966Y427896D01*
X216966Y430658D02*
X216966Y436081D01*
X216966Y430658D02*
X222389Y436081D01*
X223745Y436081D01*
X225101Y434726D01*
X225101Y432014D01*
X223745Y430658D01*
X223745Y441556D02*
X225101Y444267D01*
X223745Y441556D02*
X221033Y438844D01*
X218322Y438844D01*
X216966Y440200D01*
X216966Y442911D01*
X218322Y444267D01*
X219678Y444267D01*
X221033Y442911D01*
X221033Y438844D01*
D82*
X369508Y442528D02*
X388685Y442528D01*
X388685Y426272D02*
X369508Y426272D01*
D83*
X365952Y434400D03*
X392368Y434400D03*
D84*
X352801Y422472D02*
X344666Y422472D01*
X352801Y422472D02*
X352801Y426540D01*
X351445Y427896D01*
X348733Y427896D01*
X347378Y426540D01*
X347378Y422472D01*
X347378Y425184D02*
X344666Y427896D01*
X344666Y430658D02*
X344666Y436081D01*
X344666Y430658D02*
X350089Y436081D01*
X351445Y436081D01*
X352801Y434726D01*
X352801Y432014D01*
X351445Y430658D01*
X352801Y438844D02*
X352801Y444267D01*
X351445Y444267D01*
X346022Y438844D01*
X344666Y438844D01*
D82*
X133785Y417128D02*
X114608Y417128D01*
X114608Y400872D02*
X133785Y400872D01*
D83*
X111052Y409000D03*
X137468Y409000D03*
D84*
X97901Y397072D02*
X89766Y397072D01*
X97901Y397072D02*
X97901Y401140D01*
X96545Y402496D01*
X93833Y402496D01*
X92478Y401140D01*
X92478Y397072D01*
X92478Y399784D02*
X89766Y402496D01*
X89766Y405258D02*
X89766Y410681D01*
X89766Y405258D02*
X95189Y410681D01*
X96545Y410681D01*
X97901Y409326D01*
X97901Y406614D01*
X96545Y405258D01*
X96545Y413444D02*
X97901Y414800D01*
X97901Y417511D01*
X96545Y418867D01*
X95189Y418867D01*
X93833Y417511D01*
X92478Y418867D01*
X91122Y418867D01*
X89766Y417511D01*
X89766Y414800D01*
X91122Y413444D01*
X92478Y413444D01*
X93833Y414800D01*
X95189Y413444D01*
X96545Y413444D01*
X93833Y414800D02*
X93833Y417511D01*
D82*
X241808Y417128D02*
X260985Y417128D01*
X260985Y400872D02*
X241808Y400872D01*
D83*
X238252Y409000D03*
X264668Y409000D03*
D84*
X225101Y397072D02*
X216966Y397072D01*
X225101Y397072D02*
X225101Y401140D01*
X223745Y402496D01*
X221033Y402496D01*
X219678Y401140D01*
X219678Y397072D01*
X219678Y399784D02*
X216966Y402496D01*
X216966Y405258D02*
X216966Y410681D01*
X216966Y405258D02*
X222389Y410681D01*
X223745Y410681D01*
X225101Y409326D01*
X225101Y406614D01*
X223745Y405258D01*
X218322Y413444D02*
X216966Y414800D01*
X216966Y417511D01*
X218322Y418867D01*
X223745Y418867D01*
X225101Y417511D01*
X225101Y414800D01*
X223745Y413444D01*
X222389Y413444D01*
X221033Y414800D01*
X221033Y418867D01*
D82*
X369508Y417128D02*
X388685Y417128D01*
X388685Y400872D02*
X369508Y400872D01*
D83*
X365952Y409000D03*
X392368Y409000D03*
D84*
X352801Y397072D02*
X344666Y397072D01*
X352801Y397072D02*
X352801Y401140D01*
X351445Y402496D01*
X348733Y402496D01*
X347378Y401140D01*
X347378Y397072D01*
X347378Y399784D02*
X344666Y402496D01*
X351445Y405258D02*
X352801Y406614D01*
X352801Y409326D01*
X351445Y410681D01*
X350089Y410681D01*
X348733Y409326D01*
X348733Y407970D01*
X348733Y409326D02*
X347378Y410681D01*
X346022Y410681D01*
X344666Y409326D01*
X344666Y406614D01*
X346022Y405258D01*
X346022Y413444D02*
X351445Y413444D01*
X352801Y414800D01*
X352801Y417511D01*
X351445Y418867D01*
X346022Y418867D01*
X344666Y417511D01*
X344666Y414800D01*
X346022Y413444D01*
X351445Y418867D01*
D85*
X350310Y369730D02*
X331010Y369730D01*
X331010Y385470D02*
X350310Y385470D01*
D86*
X327393Y377609D03*
X353928Y377591D03*
D84*
X387664Y380309D02*
X389231Y381877D01*
X392367Y381877D01*
X393934Y380309D01*
X393934Y374039D01*
X392367Y372471D01*
X389231Y372471D01*
X387664Y374039D01*
X384579Y378742D02*
X381444Y381877D01*
X381444Y372471D01*
X384579Y372471D02*
X378308Y372471D01*
D85*
X173710Y369730D02*
X154410Y369730D01*
X154410Y385470D02*
X173710Y385470D01*
D86*
X150793Y377609D03*
X177328Y377591D03*
D84*
X211064Y380309D02*
X212631Y381877D01*
X215767Y381877D01*
X217334Y380309D01*
X217334Y374039D01*
X215767Y372471D01*
X212631Y372471D01*
X211064Y374039D01*
X207979Y372471D02*
X201708Y372471D01*
X207979Y372471D02*
X201708Y378742D01*
X201708Y380309D01*
X203276Y381877D01*
X206411Y381877D01*
X207979Y380309D01*
D85*
X331010Y344330D02*
X350310Y344330D01*
X350310Y360070D02*
X331010Y360070D01*
D86*
X327393Y352209D03*
X353928Y352191D03*
D84*
X387664Y354909D02*
X389231Y356477D01*
X392367Y356477D01*
X393934Y354909D01*
X393934Y348639D01*
X392367Y347071D01*
X389231Y347071D01*
X387664Y348639D01*
X384579Y354909D02*
X383011Y356477D01*
X379876Y356477D01*
X378308Y354909D01*
X378308Y353342D01*
X379876Y351774D01*
X381444Y351774D01*
X379876Y351774D02*
X378308Y350206D01*
X378308Y348639D01*
X379876Y347071D01*
X383011Y347071D01*
X384579Y348639D01*
D85*
X173710Y344330D02*
X154410Y344330D01*
X154410Y360070D02*
X173710Y360070D01*
D86*
X150793Y352209D03*
X177328Y352191D03*
D84*
X211064Y354909D02*
X212631Y356477D01*
X215767Y356477D01*
X217334Y354909D01*
X217334Y348639D01*
X215767Y347071D01*
X212631Y347071D01*
X211064Y348639D01*
X203276Y347071D02*
X203276Y356477D01*
X207979Y351774D01*
X201708Y351774D01*
D85*
X331010Y318930D02*
X350310Y318930D01*
X350310Y334670D02*
X331010Y334670D01*
D86*
X327393Y326809D03*
X353928Y326791D03*
D84*
X387664Y329509D02*
X389231Y331077D01*
X392367Y331077D01*
X393934Y329509D01*
X393934Y323239D01*
X392367Y321671D01*
X389231Y321671D01*
X387664Y323239D01*
X384579Y331077D02*
X378308Y331077D01*
X384579Y331077D02*
X384579Y326374D01*
X381444Y327942D01*
X379876Y327942D01*
X378308Y326374D01*
X378308Y323239D01*
X379876Y321671D01*
X383011Y321671D01*
X384579Y323239D01*
D85*
X173710Y318930D02*
X154410Y318930D01*
X154410Y334670D02*
X173710Y334670D01*
D86*
X150793Y326809D03*
X177328Y326791D03*
D84*
X211064Y329509D02*
X212631Y331077D01*
X215767Y331077D01*
X217334Y329509D01*
X217334Y323239D01*
X215767Y321671D01*
X212631Y321671D01*
X211064Y323239D01*
X204844Y329509D02*
X201708Y331077D01*
X204844Y329509D02*
X207979Y326374D01*
X207979Y323239D01*
X206411Y321671D01*
X203276Y321671D01*
X201708Y323239D01*
X201708Y324806D01*
X203276Y326374D01*
X207979Y326374D01*
D85*
X331010Y293530D02*
X350310Y293530D01*
X350310Y309270D02*
X331010Y309270D01*
D86*
X327393Y301409D03*
X353928Y301391D03*
D84*
X387664Y304109D02*
X389231Y305677D01*
X392367Y305677D01*
X393934Y304109D01*
X393934Y297839D01*
X392367Y296271D01*
X389231Y296271D01*
X387664Y297839D01*
X384579Y305677D02*
X378308Y305677D01*
X378308Y304109D01*
X384579Y297839D01*
X384579Y296271D01*
D85*
X173710Y293530D02*
X154410Y293530D01*
X154410Y309270D02*
X173710Y309270D01*
D86*
X150793Y301409D03*
X177328Y301391D03*
D84*
X211064Y304109D02*
X212631Y305677D01*
X215767Y305677D01*
X217334Y304109D01*
X217334Y297839D01*
X215767Y296271D01*
X212631Y296271D01*
X211064Y297839D01*
X207979Y304109D02*
X206411Y305677D01*
X203276Y305677D01*
X201708Y304109D01*
X201708Y302542D01*
X203276Y300974D01*
X201708Y299406D01*
X201708Y297839D01*
X203276Y296271D01*
X206411Y296271D01*
X207979Y297839D01*
X207979Y299406D01*
X206411Y300974D01*
X207979Y302542D01*
X207979Y304109D01*
X206411Y300974D02*
X203276Y300974D01*
D85*
X331010Y268130D02*
X350310Y268130D01*
X350310Y283870D02*
X331010Y283870D01*
D86*
X327393Y276009D03*
X353928Y275991D03*
D84*
X387664Y278709D02*
X389231Y280277D01*
X392367Y280277D01*
X393934Y278709D01*
X393934Y272439D01*
X392367Y270871D01*
X389231Y270871D01*
X387664Y272439D01*
X384579Y272439D02*
X383011Y270871D01*
X379876Y270871D01*
X378308Y272439D01*
X378308Y278709D01*
X379876Y280277D01*
X383011Y280277D01*
X384579Y278709D01*
X384579Y277142D01*
X383011Y275574D01*
X378308Y275574D01*
D85*
X173710Y268130D02*
X154410Y268130D01*
X154410Y283870D02*
X173710Y283870D01*
D86*
X150793Y276009D03*
X177328Y275991D03*
D84*
X215741Y278709D02*
X217309Y280277D01*
X220444Y280277D01*
X222012Y278709D01*
X222012Y272439D01*
X220444Y270871D01*
X217309Y270871D01*
X215741Y272439D01*
X212657Y277142D02*
X209521Y280277D01*
X209521Y270871D01*
X206386Y270871D02*
X212657Y270871D01*
X203301Y272439D02*
X203301Y278709D01*
X201734Y280277D01*
X198598Y280277D01*
X197031Y278709D01*
X197031Y272439D01*
X198598Y270871D01*
X201734Y270871D01*
X203301Y272439D01*
X197031Y278709D01*
D85*
X331010Y242730D02*
X350310Y242730D01*
X350310Y258470D02*
X331010Y258470D01*
D86*
X327393Y250609D03*
X353928Y250591D03*
D84*
X392341Y253309D02*
X393909Y254877D01*
X397044Y254877D01*
X398612Y253309D01*
X398612Y247039D01*
X397044Y245471D01*
X393909Y245471D01*
X392341Y247039D01*
X389257Y251742D02*
X386121Y254877D01*
X386121Y245471D01*
X382986Y245471D02*
X389257Y245471D01*
X379901Y251742D02*
X376766Y254877D01*
X376766Y245471D01*
X379901Y245471D02*
X373631Y245471D01*
D85*
X173710Y242730D02*
X154410Y242730D01*
X154410Y258470D02*
X173710Y258470D01*
D86*
X150793Y250609D03*
X177328Y250591D03*
D84*
X215741Y253309D02*
X217309Y254877D01*
X220444Y254877D01*
X222012Y253309D01*
X222012Y247039D01*
X220444Y245471D01*
X217309Y245471D01*
X215741Y247039D01*
X212657Y251742D02*
X209521Y254877D01*
X209521Y245471D01*
X206386Y245471D02*
X212657Y245471D01*
X203301Y245471D02*
X197031Y245471D01*
X203301Y245471D02*
X197031Y251742D01*
X197031Y253309D01*
X198598Y254877D01*
X201734Y254877D01*
X203301Y253309D01*
D85*
X331010Y217330D02*
X350310Y217330D01*
X350310Y233070D02*
X331010Y233070D01*
D86*
X327393Y225209D03*
X353928Y225191D03*
D84*
X392341Y227909D02*
X393909Y229477D01*
X397044Y229477D01*
X398612Y227909D01*
X398612Y221639D01*
X397044Y220071D01*
X393909Y220071D01*
X392341Y221639D01*
X389257Y226342D02*
X386121Y229477D01*
X386121Y220071D01*
X382986Y220071D02*
X389257Y220071D01*
X379901Y227909D02*
X378334Y229477D01*
X375198Y229477D01*
X373631Y227909D01*
X373631Y226342D01*
X375198Y224774D01*
X376766Y224774D01*
X375198Y224774D02*
X373631Y223206D01*
X373631Y221639D01*
X375198Y220071D01*
X378334Y220071D01*
X379901Y221639D01*
D85*
X173710Y217330D02*
X154410Y217330D01*
X154410Y233070D02*
X173710Y233070D01*
D86*
X150793Y225209D03*
X177328Y225191D03*
D84*
X215741Y227909D02*
X217309Y229477D01*
X220444Y229477D01*
X222012Y227909D01*
X222012Y221639D01*
X220444Y220071D01*
X217309Y220071D01*
X215741Y221639D01*
X212657Y226342D02*
X209521Y229477D01*
X209521Y220071D01*
X206386Y220071D02*
X212657Y220071D01*
X198598Y220071D02*
X198598Y229477D01*
X203301Y224774D01*
X197031Y224774D01*
D85*
X331010Y191930D02*
X350310Y191930D01*
X350310Y207670D02*
X331010Y207670D01*
D86*
X327393Y199809D03*
X353928Y199791D03*
D84*
X392341Y202509D02*
X393909Y204077D01*
X397044Y204077D01*
X398612Y202509D01*
X398612Y196239D01*
X397044Y194671D01*
X393909Y194671D01*
X392341Y196239D01*
X389257Y200942D02*
X386121Y204077D01*
X386121Y194671D01*
X382986Y194671D02*
X389257Y194671D01*
X379901Y204077D02*
X373631Y204077D01*
X379901Y204077D02*
X379901Y199374D01*
X376766Y200942D01*
X375198Y200942D01*
X373631Y199374D01*
X373631Y196239D01*
X375198Y194671D01*
X378334Y194671D01*
X379901Y196239D01*
D85*
X173710Y191930D02*
X154410Y191930D01*
X154410Y207670D02*
X173710Y207670D01*
D86*
X150793Y199809D03*
X177328Y199791D03*
D84*
X215741Y202509D02*
X217309Y204077D01*
X220444Y204077D01*
X222012Y202509D01*
X222012Y196239D01*
X220444Y194671D01*
X217309Y194671D01*
X215741Y196239D01*
X212657Y200942D02*
X209521Y204077D01*
X209521Y194671D01*
X206386Y194671D02*
X212657Y194671D01*
X200166Y202509D02*
X197031Y204077D01*
X200166Y202509D02*
X203301Y199374D01*
X203301Y196239D01*
X201734Y194671D01*
X198598Y194671D01*
X197031Y196239D01*
X197031Y197806D01*
X198598Y199374D01*
X203301Y199374D01*
D85*
X326010Y181000D02*
X355010Y181000D01*
X326010Y181000D02*
X326010Y169000D01*
X355010Y169000D01*
X355010Y181000D01*
D87*
X355885Y175000D03*
X325135Y175000D03*
D88*
X331010Y175000D03*
D84*
X390791Y177439D02*
X392359Y179007D01*
X395494Y179007D01*
X397062Y177439D01*
X397062Y171169D01*
X395494Y169601D01*
X392359Y169601D01*
X390791Y171169D01*
X387707Y175872D02*
X384571Y179007D01*
X384571Y169601D01*
X381436Y169601D02*
X387707Y169601D01*
X378351Y179007D02*
X372081Y179007D01*
X372081Y177439D01*
X378351Y171169D01*
X378351Y169601D01*
D85*
X179010Y181000D02*
X150010Y181000D01*
X150010Y169000D01*
X179010Y169000D01*
X179010Y181000D01*
D87*
X179885Y175000D03*
X149135Y175000D03*
D88*
X155010Y175000D03*
D84*
X214791Y177439D02*
X216359Y179007D01*
X219494Y179007D01*
X221062Y177439D01*
X221062Y171169D01*
X219494Y169601D01*
X216359Y169601D01*
X214791Y171169D01*
X211707Y175872D02*
X208571Y179007D01*
X208571Y169601D01*
X205436Y169601D02*
X211707Y169601D01*
X202351Y177439D02*
X200784Y179007D01*
X197648Y179007D01*
X196081Y177439D01*
X196081Y175872D01*
X197648Y174304D01*
X196081Y172736D01*
X196081Y171169D01*
X197648Y169601D01*
X200784Y169601D01*
X202351Y171169D01*
X202351Y172736D01*
X200784Y174304D01*
X202351Y175872D01*
X202351Y177439D01*
X200784Y174304D02*
X197648Y174304D01*
D85*
X308010Y158000D02*
X377010Y158000D01*
X308010Y158000D02*
X308010Y116000D01*
X377010Y116000D01*
X377010Y158000D01*
D89*
X378260Y137000D03*
X306760Y137000D03*
D90*
X313385Y137000D03*
D84*
X349791Y150439D02*
X351359Y152007D01*
X354494Y152007D01*
X356062Y150439D01*
X356062Y144169D01*
X354494Y142601D01*
X351359Y142601D01*
X349791Y144169D01*
X346707Y148872D02*
X343571Y152007D01*
X343571Y142601D01*
X340436Y142601D02*
X346707Y142601D01*
X337351Y144169D02*
X335784Y142601D01*
X332648Y142601D01*
X331081Y144169D01*
X331081Y150439D01*
X332648Y152007D01*
X335784Y152007D01*
X337351Y150439D01*
X337351Y148872D01*
X335784Y147304D01*
X331081Y147304D01*
D85*
X199010Y158000D02*
X130010Y158000D01*
X130010Y116000D01*
X199010Y116000D01*
X199010Y158000D01*
D89*
X200260Y137000D03*
X128760Y137000D03*
D90*
X135385Y137000D03*
D84*
X171791Y150439D02*
X173359Y152007D01*
X176494Y152007D01*
X178062Y150439D01*
X178062Y144169D01*
X176494Y142601D01*
X173359Y142601D01*
X171791Y144169D01*
X168707Y142601D02*
X162436Y142601D01*
X168707Y142601D02*
X162436Y148872D01*
X162436Y150439D01*
X164004Y152007D01*
X167139Y152007D01*
X168707Y150439D01*
X159351Y150439D02*
X159351Y144169D01*
X159351Y150439D02*
X157784Y152007D01*
X154648Y152007D01*
X153081Y150439D01*
X153081Y144169D01*
X154648Y142601D01*
X157784Y142601D01*
X159351Y144169D01*
X153081Y150439D01*
D82*
X320475Y911072D02*
X339652Y911072D01*
X339652Y927328D02*
X320475Y927328D01*
D83*
X343208Y919200D03*
X316792Y919200D03*
D84*
X356366Y907332D02*
X364501Y907332D01*
X364501Y911400D01*
X363145Y912756D01*
X360433Y912756D01*
X359078Y911400D01*
X359078Y907332D01*
X359078Y910044D02*
X356366Y912756D01*
X363145Y915518D02*
X364501Y916874D01*
X364501Y919586D01*
X363145Y920941D01*
X361789Y920941D01*
X360433Y919586D01*
X360433Y918230D01*
X360433Y919586D02*
X359078Y920941D01*
X357722Y920941D01*
X356366Y919586D01*
X356366Y916874D01*
X357722Y915518D01*
X361789Y923704D02*
X364501Y926416D01*
X356366Y926416D01*
X356366Y929127D02*
X356366Y923704D01*
D82*
X160425Y904028D02*
X141248Y904028D01*
X141248Y887772D02*
X160425Y887772D01*
D83*
X137692Y895900D03*
X164108Y895900D03*
D84*
X124541Y883972D02*
X116406Y883972D01*
X124541Y883972D02*
X124541Y888040D01*
X123185Y889396D01*
X120473Y889396D01*
X119118Y888040D01*
X119118Y883972D01*
X119118Y886684D02*
X116406Y889396D01*
X123185Y892158D02*
X124541Y893514D01*
X124541Y896226D01*
X123185Y897581D01*
X121829Y897581D01*
X120473Y896226D01*
X120473Y894870D01*
X120473Y896226D02*
X119118Y897581D01*
X117762Y897581D01*
X116406Y896226D01*
X116406Y893514D01*
X117762Y892158D01*
X116406Y900344D02*
X116406Y905767D01*
X116406Y900344D02*
X121829Y905767D01*
X123185Y905767D01*
X124541Y904411D01*
X124541Y901700D01*
X123185Y900344D01*
D82*
X141248Y868628D02*
X160425Y868628D01*
X160425Y852372D02*
X141248Y852372D01*
D83*
X137692Y860500D03*
X164108Y860500D03*
D84*
X124541Y848572D02*
X116406Y848572D01*
X124541Y848572D02*
X124541Y852640D01*
X123185Y853996D01*
X120473Y853996D01*
X119118Y852640D01*
X119118Y848572D01*
X119118Y851284D02*
X116406Y853996D01*
X123185Y856758D02*
X124541Y858114D01*
X124541Y860826D01*
X123185Y862181D01*
X121829Y862181D01*
X120473Y860826D01*
X120473Y859470D01*
X120473Y860826D02*
X119118Y862181D01*
X117762Y862181D01*
X116406Y860826D01*
X116406Y858114D01*
X117762Y856758D01*
X123185Y864944D02*
X124541Y866300D01*
X124541Y869011D01*
X123185Y870367D01*
X121829Y870367D01*
X120473Y869011D01*
X120473Y867656D01*
X120473Y869011D02*
X119118Y870367D01*
X117762Y870367D01*
X116406Y869011D01*
X116406Y866300D01*
X117762Y864944D01*
D82*
X141248Y833228D02*
X160425Y833228D01*
X160425Y816972D02*
X141248Y816972D01*
D83*
X137692Y825100D03*
X164108Y825100D03*
D84*
X124541Y813172D02*
X116406Y813172D01*
X124541Y813172D02*
X124541Y817240D01*
X123185Y818596D01*
X120473Y818596D01*
X119118Y817240D01*
X119118Y813172D01*
X119118Y815884D02*
X116406Y818596D01*
X123185Y821358D02*
X124541Y822714D01*
X124541Y825426D01*
X123185Y826781D01*
X121829Y826781D01*
X120473Y825426D01*
X120473Y824070D01*
X120473Y825426D02*
X119118Y826781D01*
X117762Y826781D01*
X116406Y825426D01*
X116406Y822714D01*
X117762Y821358D01*
X116406Y833611D02*
X124541Y833611D01*
X120473Y829544D01*
X120473Y834967D01*
D82*
X141248Y797828D02*
X160425Y797828D01*
X160425Y781572D02*
X141248Y781572D01*
D83*
X137692Y789700D03*
X164108Y789700D03*
D84*
X124541Y777772D02*
X116406Y777772D01*
X124541Y777772D02*
X124541Y781840D01*
X123185Y783196D01*
X120473Y783196D01*
X119118Y781840D01*
X119118Y777772D01*
X119118Y780484D02*
X116406Y783196D01*
X123185Y785958D02*
X124541Y787314D01*
X124541Y790026D01*
X123185Y791381D01*
X121829Y791381D01*
X120473Y790026D01*
X120473Y788670D01*
X120473Y790026D02*
X119118Y791381D01*
X117762Y791381D01*
X116406Y790026D01*
X116406Y787314D01*
X117762Y785958D01*
X124541Y794144D02*
X124541Y799567D01*
X124541Y794144D02*
X120473Y794144D01*
X121829Y796856D01*
X121829Y798211D01*
X120473Y799567D01*
X117762Y799567D01*
X116406Y798211D01*
X116406Y795500D01*
X117762Y794144D01*
D82*
X141248Y762428D02*
X160425Y762428D01*
X160425Y746172D02*
X141248Y746172D01*
D83*
X137692Y754300D03*
X164108Y754300D03*
D84*
X124541Y742372D02*
X116406Y742372D01*
X124541Y742372D02*
X124541Y746440D01*
X123185Y747796D01*
X120473Y747796D01*
X119118Y746440D01*
X119118Y742372D01*
X119118Y745084D02*
X116406Y747796D01*
X123185Y750558D02*
X124541Y751914D01*
X124541Y754626D01*
X123185Y755981D01*
X121829Y755981D01*
X120473Y754626D01*
X120473Y753270D01*
X120473Y754626D02*
X119118Y755981D01*
X117762Y755981D01*
X116406Y754626D01*
X116406Y751914D01*
X117762Y750558D01*
X123185Y761456D02*
X124541Y764167D01*
X123185Y761456D02*
X120473Y758744D01*
X117762Y758744D01*
X116406Y760100D01*
X116406Y762811D01*
X117762Y764167D01*
X119118Y764167D01*
X120473Y762811D01*
X120473Y758744D01*
D82*
X141248Y727028D02*
X160425Y727028D01*
X160425Y710772D02*
X141248Y710772D01*
D83*
X137692Y718900D03*
X164108Y718900D03*
D84*
X124541Y706972D02*
X116406Y706972D01*
X124541Y706972D02*
X124541Y711040D01*
X123185Y712396D01*
X120473Y712396D01*
X119118Y711040D01*
X119118Y706972D01*
X119118Y709684D02*
X116406Y712396D01*
X123185Y715158D02*
X124541Y716514D01*
X124541Y719226D01*
X123185Y720581D01*
X121829Y720581D01*
X120473Y719226D01*
X120473Y717870D01*
X120473Y719226D02*
X119118Y720581D01*
X117762Y720581D01*
X116406Y719226D01*
X116406Y716514D01*
X117762Y715158D01*
X124541Y723344D02*
X124541Y728767D01*
X123185Y728767D01*
X117762Y723344D01*
X116406Y723344D01*
D82*
X141248Y691628D02*
X160425Y691628D01*
X160425Y675372D02*
X141248Y675372D01*
D83*
X137692Y683500D03*
X164108Y683500D03*
D84*
X124541Y671572D02*
X116406Y671572D01*
X124541Y671572D02*
X124541Y675640D01*
X123185Y676996D01*
X120473Y676996D01*
X119118Y675640D01*
X119118Y671572D01*
X119118Y674284D02*
X116406Y676996D01*
X123185Y679758D02*
X124541Y681114D01*
X124541Y683826D01*
X123185Y685181D01*
X121829Y685181D01*
X120473Y683826D01*
X120473Y682470D01*
X120473Y683826D02*
X119118Y685181D01*
X117762Y685181D01*
X116406Y683826D01*
X116406Y681114D01*
X117762Y679758D01*
X123185Y687944D02*
X124541Y689300D01*
X124541Y692011D01*
X123185Y693367D01*
X121829Y693367D01*
X120473Y692011D01*
X119118Y693367D01*
X117762Y693367D01*
X116406Y692011D01*
X116406Y689300D01*
X117762Y687944D01*
X119118Y687944D01*
X120473Y689300D01*
X121829Y687944D01*
X123185Y687944D01*
X120473Y689300D02*
X120473Y692011D01*
D82*
X1358046Y547988D02*
X1397160Y547988D01*
X1397542Y542400D02*
X1401606Y542400D01*
X1401606Y529700D02*
X1397542Y529700D01*
X1397542Y517000D02*
X1401606Y517000D01*
X1401606Y504300D02*
X1397542Y504300D01*
X1397542Y491600D02*
X1401606Y491600D01*
X1401606Y478900D02*
X1397542Y478900D01*
X1397542Y466200D02*
X1401606Y466200D01*
X1357664Y466200D02*
X1353600Y466200D01*
X1353600Y478900D02*
X1357664Y478900D01*
X1357664Y491600D02*
X1353600Y491600D01*
X1353600Y504300D02*
X1357664Y504300D01*
X1357664Y517000D02*
X1353600Y517000D01*
X1353600Y529700D02*
X1357664Y529700D01*
X1357664Y542400D02*
X1353600Y542400D01*
X1357664Y547988D02*
X1357664Y460612D01*
X1397542Y460612D02*
X1397542Y547988D01*
D91*
X1384600Y547200D02*
X1384598Y547040D01*
X1384592Y546881D01*
X1384582Y546722D01*
X1384569Y546563D01*
X1384551Y546404D01*
X1384530Y546246D01*
X1384504Y546089D01*
X1384475Y545932D01*
X1384442Y545776D01*
X1384405Y545621D01*
X1384365Y545466D01*
X1384320Y545313D01*
X1384272Y545161D01*
X1384220Y545010D01*
X1384164Y544861D01*
X1384105Y544713D01*
X1384042Y544566D01*
X1383976Y544421D01*
X1383906Y544278D01*
X1383832Y544136D01*
X1383756Y543996D01*
X1383675Y543858D01*
X1383592Y543723D01*
X1383505Y543589D01*
X1383414Y543457D01*
X1383321Y543328D01*
X1383224Y543201D01*
X1383125Y543076D01*
X1383022Y542954D01*
X1382916Y542835D01*
X1382808Y542718D01*
X1382696Y542604D01*
X1382582Y542492D01*
X1382465Y542384D01*
X1382346Y542278D01*
X1382224Y542175D01*
X1382099Y542076D01*
X1381972Y541979D01*
X1381843Y541886D01*
X1381711Y541795D01*
X1381577Y541708D01*
X1381442Y541625D01*
X1381304Y541544D01*
X1381164Y541468D01*
X1381022Y541394D01*
X1380879Y541324D01*
X1380734Y541258D01*
X1380587Y541195D01*
X1380439Y541136D01*
X1380290Y541080D01*
X1380139Y541028D01*
X1379987Y540980D01*
X1379834Y540935D01*
X1379679Y540895D01*
X1379524Y540858D01*
X1379368Y540825D01*
X1379211Y540796D01*
X1379054Y540770D01*
X1378896Y540749D01*
X1378737Y540731D01*
X1378578Y540718D01*
X1378419Y540708D01*
X1378260Y540702D01*
X1378100Y540700D01*
X1377940Y540702D01*
X1377781Y540708D01*
X1377622Y540718D01*
X1377463Y540731D01*
X1377304Y540749D01*
X1377146Y540770D01*
X1376989Y540796D01*
X1376832Y540825D01*
X1376676Y540858D01*
X1376521Y540895D01*
X1376366Y540935D01*
X1376213Y540980D01*
X1376061Y541028D01*
X1375910Y541080D01*
X1375761Y541136D01*
X1375613Y541195D01*
X1375466Y541258D01*
X1375321Y541324D01*
X1375178Y541394D01*
X1375036Y541468D01*
X1374896Y541544D01*
X1374758Y541625D01*
X1374623Y541708D01*
X1374489Y541795D01*
X1374357Y541886D01*
X1374228Y541979D01*
X1374101Y542076D01*
X1373976Y542175D01*
X1373854Y542278D01*
X1373735Y542384D01*
X1373618Y542492D01*
X1373504Y542604D01*
X1373392Y542718D01*
X1373284Y542835D01*
X1373178Y542954D01*
X1373075Y543076D01*
X1372976Y543201D01*
X1372879Y543328D01*
X1372786Y543457D01*
X1372695Y543589D01*
X1372608Y543723D01*
X1372525Y543858D01*
X1372444Y543996D01*
X1372368Y544136D01*
X1372294Y544278D01*
X1372224Y544421D01*
X1372158Y544566D01*
X1372095Y544713D01*
X1372036Y544861D01*
X1371980Y545010D01*
X1371928Y545161D01*
X1371880Y545313D01*
X1371835Y545466D01*
X1371795Y545621D01*
X1371758Y545776D01*
X1371725Y545932D01*
X1371696Y546089D01*
X1371670Y546246D01*
X1371649Y546404D01*
X1371631Y546563D01*
X1371618Y546722D01*
X1371608Y546881D01*
X1371602Y547040D01*
X1371600Y547200D01*
X1386600Y460200D02*
X1397600Y460200D01*
X1368600Y460200D02*
X1357600Y460200D01*
D85*
X1386565Y553736D02*
X1389616Y553736D01*
X1388090Y553736D02*
X1388090Y562888D01*
X1386565Y562888D02*
X1389616Y562888D01*
X1378803Y562888D02*
X1377278Y561363D01*
X1378803Y562888D02*
X1381854Y562888D01*
X1383379Y561363D01*
X1383379Y555261D01*
X1381854Y553736D01*
X1378803Y553736D01*
X1377278Y555261D01*
X1374024Y561363D02*
X1372498Y562888D01*
X1369448Y562888D01*
X1367922Y561363D01*
X1367922Y559837D01*
X1369448Y558312D01*
X1370973Y558312D01*
X1369448Y558312D02*
X1367922Y556787D01*
X1367922Y555261D01*
X1369448Y553736D01*
X1372498Y553736D01*
X1374024Y555261D01*
D82*
X1509546Y548988D02*
X1548660Y548988D01*
X1549042Y543400D02*
X1553106Y543400D01*
X1553106Y530700D02*
X1549042Y530700D01*
X1549042Y518000D02*
X1553106Y518000D01*
X1553106Y505300D02*
X1549042Y505300D01*
X1549042Y492600D02*
X1553106Y492600D01*
X1553106Y479900D02*
X1549042Y479900D01*
X1549042Y467200D02*
X1553106Y467200D01*
X1509164Y467200D02*
X1505100Y467200D01*
X1505100Y479900D02*
X1509164Y479900D01*
X1509164Y492600D02*
X1505100Y492600D01*
X1505100Y505300D02*
X1509164Y505300D01*
X1509164Y518000D02*
X1505100Y518000D01*
X1505100Y530700D02*
X1509164Y530700D01*
X1509164Y543400D02*
X1505100Y543400D01*
X1509164Y548988D02*
X1509164Y461612D01*
X1549042Y461612D02*
X1549042Y548988D01*
D91*
X1536100Y548200D02*
X1536098Y548040D01*
X1536092Y547881D01*
X1536082Y547722D01*
X1536069Y547563D01*
X1536051Y547404D01*
X1536030Y547246D01*
X1536004Y547089D01*
X1535975Y546932D01*
X1535942Y546776D01*
X1535905Y546621D01*
X1535865Y546466D01*
X1535820Y546313D01*
X1535772Y546161D01*
X1535720Y546010D01*
X1535664Y545861D01*
X1535605Y545713D01*
X1535542Y545566D01*
X1535476Y545421D01*
X1535406Y545278D01*
X1535332Y545136D01*
X1535256Y544996D01*
X1535175Y544858D01*
X1535092Y544723D01*
X1535005Y544589D01*
X1534914Y544457D01*
X1534821Y544328D01*
X1534724Y544201D01*
X1534625Y544076D01*
X1534522Y543954D01*
X1534416Y543835D01*
X1534308Y543718D01*
X1534196Y543604D01*
X1534082Y543492D01*
X1533965Y543384D01*
X1533846Y543278D01*
X1533724Y543175D01*
X1533599Y543076D01*
X1533472Y542979D01*
X1533343Y542886D01*
X1533211Y542795D01*
X1533077Y542708D01*
X1532942Y542625D01*
X1532804Y542544D01*
X1532664Y542468D01*
X1532522Y542394D01*
X1532379Y542324D01*
X1532234Y542258D01*
X1532087Y542195D01*
X1531939Y542136D01*
X1531790Y542080D01*
X1531639Y542028D01*
X1531487Y541980D01*
X1531334Y541935D01*
X1531179Y541895D01*
X1531024Y541858D01*
X1530868Y541825D01*
X1530711Y541796D01*
X1530554Y541770D01*
X1530396Y541749D01*
X1530237Y541731D01*
X1530078Y541718D01*
X1529919Y541708D01*
X1529760Y541702D01*
X1529600Y541700D01*
X1529440Y541702D01*
X1529281Y541708D01*
X1529122Y541718D01*
X1528963Y541731D01*
X1528804Y541749D01*
X1528646Y541770D01*
X1528489Y541796D01*
X1528332Y541825D01*
X1528176Y541858D01*
X1528021Y541895D01*
X1527866Y541935D01*
X1527713Y541980D01*
X1527561Y542028D01*
X1527410Y542080D01*
X1527261Y542136D01*
X1527113Y542195D01*
X1526966Y542258D01*
X1526821Y542324D01*
X1526678Y542394D01*
X1526536Y542468D01*
X1526396Y542544D01*
X1526258Y542625D01*
X1526123Y542708D01*
X1525989Y542795D01*
X1525857Y542886D01*
X1525728Y542979D01*
X1525601Y543076D01*
X1525476Y543175D01*
X1525354Y543278D01*
X1525235Y543384D01*
X1525118Y543492D01*
X1525004Y543604D01*
X1524892Y543718D01*
X1524784Y543835D01*
X1524678Y543954D01*
X1524575Y544076D01*
X1524476Y544201D01*
X1524379Y544328D01*
X1524286Y544457D01*
X1524195Y544589D01*
X1524108Y544723D01*
X1524025Y544858D01*
X1523944Y544996D01*
X1523868Y545136D01*
X1523794Y545278D01*
X1523724Y545421D01*
X1523658Y545566D01*
X1523595Y545713D01*
X1523536Y545861D01*
X1523480Y546010D01*
X1523428Y546161D01*
X1523380Y546313D01*
X1523335Y546466D01*
X1523295Y546621D01*
X1523258Y546776D01*
X1523225Y546932D01*
X1523196Y547089D01*
X1523170Y547246D01*
X1523149Y547404D01*
X1523131Y547563D01*
X1523118Y547722D01*
X1523108Y547881D01*
X1523102Y548040D01*
X1523100Y548200D01*
X1538100Y461200D02*
X1549100Y461200D01*
X1520100Y461200D02*
X1509100Y461200D01*
D85*
X1538065Y554736D02*
X1541116Y554736D01*
X1539590Y554736D02*
X1539590Y563888D01*
X1538065Y563888D02*
X1541116Y563888D01*
X1530303Y563888D02*
X1528778Y562363D01*
X1530303Y563888D02*
X1533354Y563888D01*
X1534879Y562363D01*
X1534879Y556261D01*
X1533354Y554736D01*
X1530303Y554736D01*
X1528778Y556261D01*
X1520948Y554736D02*
X1520948Y563888D01*
X1525524Y559312D01*
X1519422Y559312D01*
D82*
X1651446Y547988D02*
X1690560Y547988D01*
X1690942Y542400D02*
X1695006Y542400D01*
X1695006Y529700D02*
X1690942Y529700D01*
X1690942Y517000D02*
X1695006Y517000D01*
X1695006Y504300D02*
X1690942Y504300D01*
X1690942Y491600D02*
X1695006Y491600D01*
X1695006Y478900D02*
X1690942Y478900D01*
X1690942Y466200D02*
X1695006Y466200D01*
X1651064Y466200D02*
X1647000Y466200D01*
X1647000Y478900D02*
X1651064Y478900D01*
X1651064Y491600D02*
X1647000Y491600D01*
X1647000Y504300D02*
X1651064Y504300D01*
X1651064Y517000D02*
X1647000Y517000D01*
X1647000Y529700D02*
X1651064Y529700D01*
X1651064Y542400D02*
X1647000Y542400D01*
X1651064Y547988D02*
X1651064Y460612D01*
X1690942Y460612D02*
X1690942Y547988D01*
D91*
X1678000Y547200D02*
X1677998Y547040D01*
X1677992Y546881D01*
X1677982Y546722D01*
X1677969Y546563D01*
X1677951Y546404D01*
X1677930Y546246D01*
X1677904Y546089D01*
X1677875Y545932D01*
X1677842Y545776D01*
X1677805Y545621D01*
X1677765Y545466D01*
X1677720Y545313D01*
X1677672Y545161D01*
X1677620Y545010D01*
X1677564Y544861D01*
X1677505Y544713D01*
X1677442Y544566D01*
X1677376Y544421D01*
X1677306Y544278D01*
X1677232Y544136D01*
X1677156Y543996D01*
X1677075Y543858D01*
X1676992Y543723D01*
X1676905Y543589D01*
X1676814Y543457D01*
X1676721Y543328D01*
X1676624Y543201D01*
X1676525Y543076D01*
X1676422Y542954D01*
X1676316Y542835D01*
X1676208Y542718D01*
X1676096Y542604D01*
X1675982Y542492D01*
X1675865Y542384D01*
X1675746Y542278D01*
X1675624Y542175D01*
X1675499Y542076D01*
X1675372Y541979D01*
X1675243Y541886D01*
X1675111Y541795D01*
X1674977Y541708D01*
X1674842Y541625D01*
X1674704Y541544D01*
X1674564Y541468D01*
X1674422Y541394D01*
X1674279Y541324D01*
X1674134Y541258D01*
X1673987Y541195D01*
X1673839Y541136D01*
X1673690Y541080D01*
X1673539Y541028D01*
X1673387Y540980D01*
X1673234Y540935D01*
X1673079Y540895D01*
X1672924Y540858D01*
X1672768Y540825D01*
X1672611Y540796D01*
X1672454Y540770D01*
X1672296Y540749D01*
X1672137Y540731D01*
X1671978Y540718D01*
X1671819Y540708D01*
X1671660Y540702D01*
X1671500Y540700D01*
X1671340Y540702D01*
X1671181Y540708D01*
X1671022Y540718D01*
X1670863Y540731D01*
X1670704Y540749D01*
X1670546Y540770D01*
X1670389Y540796D01*
X1670232Y540825D01*
X1670076Y540858D01*
X1669921Y540895D01*
X1669766Y540935D01*
X1669613Y540980D01*
X1669461Y541028D01*
X1669310Y541080D01*
X1669161Y541136D01*
X1669013Y541195D01*
X1668866Y541258D01*
X1668721Y541324D01*
X1668578Y541394D01*
X1668436Y541468D01*
X1668296Y541544D01*
X1668158Y541625D01*
X1668023Y541708D01*
X1667889Y541795D01*
X1667757Y541886D01*
X1667628Y541979D01*
X1667501Y542076D01*
X1667376Y542175D01*
X1667254Y542278D01*
X1667135Y542384D01*
X1667018Y542492D01*
X1666904Y542604D01*
X1666792Y542718D01*
X1666684Y542835D01*
X1666578Y542954D01*
X1666475Y543076D01*
X1666376Y543201D01*
X1666279Y543328D01*
X1666186Y543457D01*
X1666095Y543589D01*
X1666008Y543723D01*
X1665925Y543858D01*
X1665844Y543996D01*
X1665768Y544136D01*
X1665694Y544278D01*
X1665624Y544421D01*
X1665558Y544566D01*
X1665495Y544713D01*
X1665436Y544861D01*
X1665380Y545010D01*
X1665328Y545161D01*
X1665280Y545313D01*
X1665235Y545466D01*
X1665195Y545621D01*
X1665158Y545776D01*
X1665125Y545932D01*
X1665096Y546089D01*
X1665070Y546246D01*
X1665049Y546404D01*
X1665031Y546563D01*
X1665018Y546722D01*
X1665008Y546881D01*
X1665002Y547040D01*
X1665000Y547200D01*
X1680000Y460200D02*
X1691000Y460200D01*
X1662000Y460200D02*
X1651000Y460200D01*
D85*
X1679965Y553736D02*
X1683016Y553736D01*
X1681490Y553736D02*
X1681490Y562888D01*
X1679965Y562888D02*
X1683016Y562888D01*
X1672203Y562888D02*
X1670678Y561363D01*
X1672203Y562888D02*
X1675254Y562888D01*
X1676779Y561363D01*
X1676779Y555261D01*
X1675254Y553736D01*
X1672203Y553736D01*
X1670678Y555261D01*
X1667424Y562888D02*
X1661322Y562888D01*
X1667424Y562888D02*
X1667424Y558312D01*
X1664373Y559837D01*
X1662848Y559837D01*
X1661322Y558312D01*
X1661322Y555261D01*
X1662848Y553736D01*
X1665898Y553736D01*
X1667424Y555261D01*
D82*
X1372112Y685446D02*
X1372112Y724560D01*
X1377700Y724942D02*
X1377700Y729006D01*
X1390400Y729006D02*
X1390400Y724942D01*
X1403100Y724942D02*
X1403100Y729006D01*
X1415800Y729006D02*
X1415800Y724942D01*
X1428500Y724942D02*
X1428500Y729006D01*
X1441200Y729006D02*
X1441200Y724942D01*
X1453900Y724942D02*
X1453900Y729006D01*
X1453900Y685064D02*
X1453900Y681000D01*
X1441200Y681000D02*
X1441200Y685064D01*
X1428500Y685064D02*
X1428500Y681000D01*
X1415800Y681000D02*
X1415800Y685064D01*
X1403100Y685064D02*
X1403100Y681000D01*
X1390400Y681000D02*
X1390400Y685064D01*
X1377700Y685064D02*
X1377700Y681000D01*
X1372112Y685064D02*
X1459488Y685064D01*
X1459488Y724942D02*
X1372112Y724942D01*
D91*
X1372900Y712000D02*
X1373060Y711998D01*
X1373219Y711992D01*
X1373378Y711982D01*
X1373537Y711969D01*
X1373696Y711951D01*
X1373854Y711930D01*
X1374011Y711904D01*
X1374168Y711875D01*
X1374324Y711842D01*
X1374479Y711805D01*
X1374634Y711765D01*
X1374787Y711720D01*
X1374939Y711672D01*
X1375090Y711620D01*
X1375239Y711564D01*
X1375387Y711505D01*
X1375534Y711442D01*
X1375679Y711376D01*
X1375822Y711306D01*
X1375964Y711232D01*
X1376104Y711156D01*
X1376242Y711075D01*
X1376377Y710992D01*
X1376511Y710905D01*
X1376643Y710814D01*
X1376772Y710721D01*
X1376899Y710624D01*
X1377024Y710525D01*
X1377146Y710422D01*
X1377265Y710316D01*
X1377382Y710208D01*
X1377496Y710096D01*
X1377608Y709982D01*
X1377716Y709865D01*
X1377822Y709746D01*
X1377925Y709624D01*
X1378024Y709499D01*
X1378121Y709372D01*
X1378214Y709243D01*
X1378305Y709111D01*
X1378392Y708977D01*
X1378475Y708842D01*
X1378556Y708704D01*
X1378632Y708564D01*
X1378706Y708422D01*
X1378776Y708279D01*
X1378842Y708134D01*
X1378905Y707987D01*
X1378964Y707839D01*
X1379020Y707690D01*
X1379072Y707539D01*
X1379120Y707387D01*
X1379165Y707234D01*
X1379205Y707079D01*
X1379242Y706924D01*
X1379275Y706768D01*
X1379304Y706611D01*
X1379330Y706454D01*
X1379351Y706296D01*
X1379369Y706137D01*
X1379382Y705978D01*
X1379392Y705819D01*
X1379398Y705660D01*
X1379400Y705500D01*
X1379398Y705340D01*
X1379392Y705181D01*
X1379382Y705022D01*
X1379369Y704863D01*
X1379351Y704704D01*
X1379330Y704546D01*
X1379304Y704389D01*
X1379275Y704232D01*
X1379242Y704076D01*
X1379205Y703921D01*
X1379165Y703766D01*
X1379120Y703613D01*
X1379072Y703461D01*
X1379020Y703310D01*
X1378964Y703161D01*
X1378905Y703013D01*
X1378842Y702866D01*
X1378776Y702721D01*
X1378706Y702578D01*
X1378632Y702436D01*
X1378556Y702296D01*
X1378475Y702158D01*
X1378392Y702023D01*
X1378305Y701889D01*
X1378214Y701757D01*
X1378121Y701628D01*
X1378024Y701501D01*
X1377925Y701376D01*
X1377822Y701254D01*
X1377716Y701135D01*
X1377608Y701018D01*
X1377496Y700904D01*
X1377382Y700792D01*
X1377265Y700684D01*
X1377146Y700578D01*
X1377024Y700475D01*
X1376899Y700376D01*
X1376772Y700279D01*
X1376643Y700186D01*
X1376511Y700095D01*
X1376377Y700008D01*
X1376242Y699925D01*
X1376104Y699844D01*
X1375964Y699768D01*
X1375822Y699694D01*
X1375679Y699624D01*
X1375534Y699558D01*
X1375387Y699495D01*
X1375239Y699436D01*
X1375090Y699380D01*
X1374939Y699328D01*
X1374787Y699280D01*
X1374634Y699235D01*
X1374479Y699195D01*
X1374324Y699158D01*
X1374168Y699125D01*
X1374011Y699096D01*
X1373854Y699070D01*
X1373696Y699049D01*
X1373537Y699031D01*
X1373378Y699018D01*
X1373219Y699008D01*
X1373060Y699002D01*
X1372900Y699000D01*
X1459900Y714000D02*
X1459900Y725000D01*
X1459900Y696000D02*
X1459900Y685000D01*
D85*
X1366364Y713965D02*
X1366364Y717016D01*
X1366364Y715490D02*
X1357212Y715490D01*
X1357212Y713965D02*
X1357212Y717016D01*
X1357212Y706203D02*
X1358738Y704678D01*
X1357212Y706203D02*
X1357212Y709254D01*
X1358738Y710779D01*
X1364839Y710779D01*
X1366364Y709254D01*
X1366364Y706203D01*
X1364839Y704678D01*
X1360263Y701424D02*
X1357212Y698373D01*
X1366364Y698373D01*
X1366364Y701424D02*
X1366364Y695322D01*
D82*
X1576012Y685446D02*
X1576012Y724560D01*
X1581600Y724942D02*
X1581600Y729006D01*
X1594300Y729006D02*
X1594300Y724942D01*
X1607000Y724942D02*
X1607000Y729006D01*
X1619700Y729006D02*
X1619700Y724942D01*
X1632400Y724942D02*
X1632400Y729006D01*
X1645100Y729006D02*
X1645100Y724942D01*
X1657800Y724942D02*
X1657800Y729006D01*
X1657800Y685064D02*
X1657800Y681000D01*
X1645100Y681000D02*
X1645100Y685064D01*
X1632400Y685064D02*
X1632400Y681000D01*
X1619700Y681000D02*
X1619700Y685064D01*
X1607000Y685064D02*
X1607000Y681000D01*
X1594300Y681000D02*
X1594300Y685064D01*
X1581600Y685064D02*
X1581600Y681000D01*
X1576012Y685064D02*
X1663388Y685064D01*
X1663388Y724942D02*
X1576012Y724942D01*
D91*
X1576800Y712000D02*
X1576960Y711998D01*
X1577119Y711992D01*
X1577278Y711982D01*
X1577437Y711969D01*
X1577596Y711951D01*
X1577754Y711930D01*
X1577911Y711904D01*
X1578068Y711875D01*
X1578224Y711842D01*
X1578379Y711805D01*
X1578534Y711765D01*
X1578687Y711720D01*
X1578839Y711672D01*
X1578990Y711620D01*
X1579139Y711564D01*
X1579287Y711505D01*
X1579434Y711442D01*
X1579579Y711376D01*
X1579722Y711306D01*
X1579864Y711232D01*
X1580004Y711156D01*
X1580142Y711075D01*
X1580277Y710992D01*
X1580411Y710905D01*
X1580543Y710814D01*
X1580672Y710721D01*
X1580799Y710624D01*
X1580924Y710525D01*
X1581046Y710422D01*
X1581165Y710316D01*
X1581282Y710208D01*
X1581396Y710096D01*
X1581508Y709982D01*
X1581616Y709865D01*
X1581722Y709746D01*
X1581825Y709624D01*
X1581924Y709499D01*
X1582021Y709372D01*
X1582114Y709243D01*
X1582205Y709111D01*
X1582292Y708977D01*
X1582375Y708842D01*
X1582456Y708704D01*
X1582532Y708564D01*
X1582606Y708422D01*
X1582676Y708279D01*
X1582742Y708134D01*
X1582805Y707987D01*
X1582864Y707839D01*
X1582920Y707690D01*
X1582972Y707539D01*
X1583020Y707387D01*
X1583065Y707234D01*
X1583105Y707079D01*
X1583142Y706924D01*
X1583175Y706768D01*
X1583204Y706611D01*
X1583230Y706454D01*
X1583251Y706296D01*
X1583269Y706137D01*
X1583282Y705978D01*
X1583292Y705819D01*
X1583298Y705660D01*
X1583300Y705500D01*
X1583298Y705340D01*
X1583292Y705181D01*
X1583282Y705022D01*
X1583269Y704863D01*
X1583251Y704704D01*
X1583230Y704546D01*
X1583204Y704389D01*
X1583175Y704232D01*
X1583142Y704076D01*
X1583105Y703921D01*
X1583065Y703766D01*
X1583020Y703613D01*
X1582972Y703461D01*
X1582920Y703310D01*
X1582864Y703161D01*
X1582805Y703013D01*
X1582742Y702866D01*
X1582676Y702721D01*
X1582606Y702578D01*
X1582532Y702436D01*
X1582456Y702296D01*
X1582375Y702158D01*
X1582292Y702023D01*
X1582205Y701889D01*
X1582114Y701757D01*
X1582021Y701628D01*
X1581924Y701501D01*
X1581825Y701376D01*
X1581722Y701254D01*
X1581616Y701135D01*
X1581508Y701018D01*
X1581396Y700904D01*
X1581282Y700792D01*
X1581165Y700684D01*
X1581046Y700578D01*
X1580924Y700475D01*
X1580799Y700376D01*
X1580672Y700279D01*
X1580543Y700186D01*
X1580411Y700095D01*
X1580277Y700008D01*
X1580142Y699925D01*
X1580004Y699844D01*
X1579864Y699768D01*
X1579722Y699694D01*
X1579579Y699624D01*
X1579434Y699558D01*
X1579287Y699495D01*
X1579139Y699436D01*
X1578990Y699380D01*
X1578839Y699328D01*
X1578687Y699280D01*
X1578534Y699235D01*
X1578379Y699195D01*
X1578224Y699158D01*
X1578068Y699125D01*
X1577911Y699096D01*
X1577754Y699070D01*
X1577596Y699049D01*
X1577437Y699031D01*
X1577278Y699018D01*
X1577119Y699008D01*
X1576960Y699002D01*
X1576800Y699000D01*
X1663800Y714000D02*
X1663800Y725000D01*
X1663800Y696000D02*
X1663800Y685000D01*
D85*
X1570264Y713965D02*
X1570264Y717016D01*
X1570264Y715490D02*
X1561112Y715490D01*
X1561112Y713965D02*
X1561112Y717016D01*
X1561112Y706203D02*
X1562638Y704678D01*
X1561112Y706203D02*
X1561112Y709254D01*
X1562638Y710779D01*
X1568739Y710779D01*
X1570264Y709254D01*
X1570264Y706203D01*
X1568739Y704678D01*
X1570264Y701424D02*
X1570264Y695322D01*
X1564163Y695322D02*
X1570264Y701424D01*
X1564163Y695322D02*
X1562638Y695322D01*
X1561112Y696848D01*
X1561112Y699898D01*
X1562638Y701424D01*
D82*
X1457590Y307158D02*
X1363610Y307158D01*
X1359800Y271852D02*
X1359802Y271730D01*
X1359808Y271608D01*
X1359818Y271486D01*
X1359831Y271365D01*
X1359849Y271244D01*
X1359870Y271124D01*
X1359896Y271004D01*
X1359925Y270886D01*
X1359957Y270768D01*
X1359994Y270651D01*
X1360034Y270536D01*
X1360078Y270422D01*
X1360126Y270310D01*
X1360177Y270199D01*
X1360232Y270090D01*
X1360290Y269982D01*
X1360352Y269877D01*
X1360417Y269774D01*
X1360485Y269672D01*
X1360557Y269573D01*
X1360631Y269477D01*
X1360709Y269382D01*
X1360790Y269291D01*
X1360873Y269201D01*
X1360959Y269115D01*
X1361049Y269032D01*
X1361140Y268951D01*
X1361235Y268873D01*
X1361331Y268799D01*
X1361430Y268727D01*
X1361532Y268659D01*
X1361635Y268594D01*
X1361740Y268532D01*
X1361848Y268474D01*
X1361957Y268419D01*
X1362068Y268368D01*
X1362180Y268320D01*
X1362294Y268276D01*
X1362409Y268236D01*
X1362526Y268199D01*
X1362644Y268167D01*
X1362762Y268138D01*
X1362882Y268112D01*
X1363002Y268091D01*
X1363123Y268073D01*
X1363244Y268060D01*
X1363366Y268050D01*
X1363488Y268044D01*
X1363610Y268042D01*
X1457590Y307158D02*
X1457712Y307156D01*
X1457834Y307150D01*
X1457956Y307140D01*
X1458077Y307127D01*
X1458198Y307109D01*
X1458318Y307088D01*
X1458438Y307062D01*
X1458556Y307033D01*
X1458674Y307001D01*
X1458791Y306964D01*
X1458906Y306924D01*
X1459020Y306880D01*
X1459132Y306832D01*
X1459243Y306781D01*
X1459352Y306726D01*
X1459460Y306668D01*
X1459565Y306606D01*
X1459668Y306541D01*
X1459770Y306473D01*
X1459869Y306401D01*
X1459965Y306327D01*
X1460060Y306249D01*
X1460151Y306168D01*
X1460241Y306085D01*
X1460327Y305999D01*
X1460410Y305909D01*
X1460491Y305818D01*
X1460569Y305723D01*
X1460643Y305627D01*
X1460715Y305528D01*
X1460783Y305426D01*
X1460848Y305323D01*
X1460910Y305218D01*
X1460968Y305110D01*
X1461023Y305001D01*
X1461074Y304890D01*
X1461122Y304778D01*
X1461166Y304664D01*
X1461206Y304549D01*
X1461243Y304432D01*
X1461275Y304314D01*
X1461304Y304196D01*
X1461330Y304076D01*
X1461351Y303956D01*
X1461369Y303835D01*
X1461382Y303714D01*
X1461392Y303592D01*
X1461398Y303470D01*
X1461400Y303348D01*
X1363610Y307158D02*
X1363488Y307156D01*
X1363366Y307150D01*
X1363244Y307140D01*
X1363123Y307127D01*
X1363002Y307109D01*
X1362882Y307088D01*
X1362762Y307062D01*
X1362644Y307033D01*
X1362526Y307001D01*
X1362409Y306964D01*
X1362294Y306924D01*
X1362180Y306880D01*
X1362068Y306832D01*
X1361957Y306781D01*
X1361848Y306726D01*
X1361740Y306668D01*
X1361635Y306606D01*
X1361532Y306541D01*
X1361430Y306473D01*
X1361331Y306401D01*
X1361235Y306327D01*
X1361140Y306249D01*
X1361049Y306168D01*
X1360959Y306085D01*
X1360873Y305999D01*
X1360790Y305909D01*
X1360709Y305818D01*
X1360631Y305723D01*
X1360557Y305627D01*
X1360485Y305528D01*
X1360417Y305426D01*
X1360352Y305323D01*
X1360290Y305218D01*
X1360232Y305110D01*
X1360177Y305001D01*
X1360126Y304890D01*
X1360078Y304778D01*
X1360034Y304664D01*
X1359994Y304549D01*
X1359957Y304432D01*
X1359925Y304314D01*
X1359896Y304196D01*
X1359870Y304076D01*
X1359849Y303956D01*
X1359831Y303835D01*
X1359818Y303714D01*
X1359808Y303592D01*
X1359802Y303470D01*
X1359800Y303348D01*
X1457590Y268042D02*
X1457712Y268044D01*
X1457834Y268050D01*
X1457956Y268060D01*
X1458077Y268073D01*
X1458198Y268091D01*
X1458318Y268112D01*
X1458438Y268138D01*
X1458556Y268167D01*
X1458674Y268199D01*
X1458791Y268236D01*
X1458906Y268276D01*
X1459020Y268320D01*
X1459132Y268368D01*
X1459243Y268419D01*
X1459352Y268474D01*
X1459460Y268532D01*
X1459565Y268594D01*
X1459668Y268659D01*
X1459770Y268727D01*
X1459869Y268799D01*
X1459965Y268873D01*
X1460060Y268951D01*
X1460151Y269032D01*
X1460241Y269115D01*
X1460327Y269201D01*
X1460410Y269291D01*
X1460491Y269382D01*
X1460569Y269477D01*
X1460643Y269573D01*
X1460715Y269672D01*
X1460783Y269774D01*
X1460848Y269877D01*
X1460910Y269982D01*
X1460968Y270090D01*
X1461023Y270199D01*
X1461074Y270310D01*
X1461122Y270422D01*
X1461166Y270536D01*
X1461206Y270651D01*
X1461243Y270768D01*
X1461275Y270886D01*
X1461304Y271004D01*
X1461330Y271124D01*
X1461351Y271244D01*
X1461369Y271365D01*
X1461382Y271486D01*
X1461392Y271608D01*
X1461398Y271730D01*
X1461400Y271852D01*
X1457590Y268042D02*
X1363610Y268042D01*
X1359800Y271852D02*
X1359800Y303348D01*
X1461400Y303348D02*
X1461400Y292680D01*
X1461400Y282520D01*
X1461400Y271852D01*
X1461400Y282520D02*
X1461259Y282522D01*
X1461118Y282528D01*
X1460977Y282538D01*
X1460836Y282551D01*
X1460696Y282569D01*
X1460557Y282591D01*
X1460418Y282616D01*
X1460279Y282645D01*
X1460142Y282678D01*
X1460006Y282715D01*
X1459871Y282756D01*
X1459736Y282800D01*
X1459604Y282848D01*
X1459472Y282900D01*
X1459342Y282955D01*
X1459214Y283014D01*
X1459087Y283077D01*
X1458963Y283143D01*
X1458840Y283212D01*
X1458719Y283285D01*
X1458600Y283361D01*
X1458483Y283441D01*
X1458369Y283524D01*
X1458256Y283609D01*
X1458147Y283698D01*
X1458039Y283790D01*
X1457935Y283885D01*
X1457833Y283983D01*
X1457734Y284084D01*
X1457637Y284187D01*
X1457544Y284293D01*
X1457454Y284401D01*
X1457366Y284512D01*
X1457282Y284625D01*
X1457201Y284741D01*
X1457123Y284859D01*
X1457048Y284979D01*
X1456977Y285101D01*
X1456909Y285225D01*
X1456845Y285351D01*
X1456784Y285478D01*
X1456727Y285607D01*
X1456674Y285738D01*
X1456624Y285870D01*
X1456577Y286003D01*
X1456535Y286138D01*
X1456496Y286274D01*
X1456461Y286411D01*
X1456430Y286548D01*
X1456403Y286687D01*
X1456379Y286826D01*
X1456360Y286966D01*
X1456344Y287106D01*
X1456332Y287247D01*
X1456324Y287388D01*
X1456320Y287529D01*
X1456320Y287671D01*
X1456324Y287812D01*
X1456332Y287953D01*
X1456344Y288094D01*
X1456360Y288234D01*
X1456379Y288374D01*
X1456403Y288513D01*
X1456430Y288652D01*
X1456461Y288789D01*
X1456496Y288926D01*
X1456535Y289062D01*
X1456577Y289197D01*
X1456624Y289330D01*
X1456674Y289462D01*
X1456727Y289593D01*
X1456784Y289722D01*
X1456845Y289849D01*
X1456909Y289975D01*
X1456977Y290099D01*
X1457048Y290221D01*
X1457123Y290341D01*
X1457201Y290459D01*
X1457282Y290575D01*
X1457366Y290688D01*
X1457454Y290799D01*
X1457544Y290907D01*
X1457637Y291013D01*
X1457734Y291116D01*
X1457833Y291217D01*
X1457935Y291315D01*
X1458039Y291410D01*
X1458147Y291502D01*
X1458256Y291591D01*
X1458369Y291676D01*
X1458483Y291759D01*
X1458600Y291839D01*
X1458719Y291915D01*
X1458840Y291988D01*
X1458963Y292057D01*
X1459087Y292123D01*
X1459214Y292186D01*
X1459342Y292245D01*
X1459472Y292300D01*
X1459604Y292352D01*
X1459736Y292400D01*
X1459871Y292444D01*
X1460006Y292485D01*
X1460142Y292522D01*
X1460279Y292555D01*
X1460418Y292584D01*
X1460557Y292609D01*
X1460696Y292631D01*
X1460836Y292649D01*
X1460977Y292662D01*
X1461118Y292672D01*
X1461259Y292678D01*
X1461400Y292680D01*
D92*
X1461400Y271598D02*
X1359800Y271598D01*
D93*
X1416950Y312873D03*
X1455050Y262327D03*
X1442350Y262327D03*
X1429650Y262581D03*
X1416950Y262327D03*
X1429650Y312873D03*
X1442350Y312873D03*
X1455050Y312873D03*
X1404250Y262327D03*
X1391550Y262327D03*
X1378850Y262327D03*
X1366150Y262327D03*
X1404250Y312873D03*
X1391550Y312873D03*
X1378850Y312873D03*
X1366150Y312873D03*
D85*
X1465718Y278685D02*
X1465718Y275634D01*
X1465718Y277160D02*
X1474870Y277160D01*
X1474870Y278685D02*
X1474870Y275634D01*
X1474870Y286447D02*
X1473345Y287972D01*
X1474870Y286447D02*
X1474870Y283396D01*
X1473345Y281871D01*
X1467243Y281871D01*
X1465718Y283396D01*
X1465718Y286447D01*
X1467243Y287972D01*
X1473345Y294277D02*
X1474870Y297328D01*
X1473345Y294277D02*
X1470294Y291226D01*
X1467243Y291226D01*
X1465718Y292752D01*
X1465718Y295802D01*
X1467243Y297328D01*
X1468769Y297328D01*
X1470294Y295802D01*
X1470294Y291226D01*
D82*
X1582610Y307158D02*
X1676590Y307158D01*
X1582610Y268042D02*
X1582488Y268044D01*
X1582366Y268050D01*
X1582244Y268060D01*
X1582123Y268073D01*
X1582002Y268091D01*
X1581882Y268112D01*
X1581762Y268138D01*
X1581644Y268167D01*
X1581526Y268199D01*
X1581409Y268236D01*
X1581294Y268276D01*
X1581180Y268320D01*
X1581068Y268368D01*
X1580957Y268419D01*
X1580848Y268474D01*
X1580740Y268532D01*
X1580635Y268594D01*
X1580532Y268659D01*
X1580430Y268727D01*
X1580331Y268799D01*
X1580235Y268873D01*
X1580140Y268951D01*
X1580049Y269032D01*
X1579959Y269115D01*
X1579873Y269201D01*
X1579790Y269291D01*
X1579709Y269382D01*
X1579631Y269477D01*
X1579557Y269573D01*
X1579485Y269672D01*
X1579417Y269774D01*
X1579352Y269877D01*
X1579290Y269982D01*
X1579232Y270090D01*
X1579177Y270199D01*
X1579126Y270310D01*
X1579078Y270422D01*
X1579034Y270536D01*
X1578994Y270651D01*
X1578957Y270768D01*
X1578925Y270886D01*
X1578896Y271004D01*
X1578870Y271124D01*
X1578849Y271244D01*
X1578831Y271365D01*
X1578818Y271486D01*
X1578808Y271608D01*
X1578802Y271730D01*
X1578800Y271852D01*
X1676590Y307158D02*
X1676712Y307156D01*
X1676834Y307150D01*
X1676956Y307140D01*
X1677077Y307127D01*
X1677198Y307109D01*
X1677318Y307088D01*
X1677438Y307062D01*
X1677556Y307033D01*
X1677674Y307001D01*
X1677791Y306964D01*
X1677906Y306924D01*
X1678020Y306880D01*
X1678132Y306832D01*
X1678243Y306781D01*
X1678352Y306726D01*
X1678460Y306668D01*
X1678565Y306606D01*
X1678668Y306541D01*
X1678770Y306473D01*
X1678869Y306401D01*
X1678965Y306327D01*
X1679060Y306249D01*
X1679151Y306168D01*
X1679241Y306085D01*
X1679327Y305999D01*
X1679410Y305909D01*
X1679491Y305818D01*
X1679569Y305723D01*
X1679643Y305627D01*
X1679715Y305528D01*
X1679783Y305426D01*
X1679848Y305323D01*
X1679910Y305218D01*
X1679968Y305110D01*
X1680023Y305001D01*
X1680074Y304890D01*
X1680122Y304778D01*
X1680166Y304664D01*
X1680206Y304549D01*
X1680243Y304432D01*
X1680275Y304314D01*
X1680304Y304196D01*
X1680330Y304076D01*
X1680351Y303956D01*
X1680369Y303835D01*
X1680382Y303714D01*
X1680392Y303592D01*
X1680398Y303470D01*
X1680400Y303348D01*
X1582610Y307158D02*
X1582488Y307156D01*
X1582366Y307150D01*
X1582244Y307140D01*
X1582123Y307127D01*
X1582002Y307109D01*
X1581882Y307088D01*
X1581762Y307062D01*
X1581644Y307033D01*
X1581526Y307001D01*
X1581409Y306964D01*
X1581294Y306924D01*
X1581180Y306880D01*
X1581068Y306832D01*
X1580957Y306781D01*
X1580848Y306726D01*
X1580740Y306668D01*
X1580635Y306606D01*
X1580532Y306541D01*
X1580430Y306473D01*
X1580331Y306401D01*
X1580235Y306327D01*
X1580140Y306249D01*
X1580049Y306168D01*
X1579959Y306085D01*
X1579873Y305999D01*
X1579790Y305909D01*
X1579709Y305818D01*
X1579631Y305723D01*
X1579557Y305627D01*
X1579485Y305528D01*
X1579417Y305426D01*
X1579352Y305323D01*
X1579290Y305218D01*
X1579232Y305110D01*
X1579177Y305001D01*
X1579126Y304890D01*
X1579078Y304778D01*
X1579034Y304664D01*
X1578994Y304549D01*
X1578957Y304432D01*
X1578925Y304314D01*
X1578896Y304196D01*
X1578870Y304076D01*
X1578849Y303956D01*
X1578831Y303835D01*
X1578818Y303714D01*
X1578808Y303592D01*
X1578802Y303470D01*
X1578800Y303348D01*
X1676590Y268042D02*
X1676712Y268044D01*
X1676834Y268050D01*
X1676956Y268060D01*
X1677077Y268073D01*
X1677198Y268091D01*
X1677318Y268112D01*
X1677438Y268138D01*
X1677556Y268167D01*
X1677674Y268199D01*
X1677791Y268236D01*
X1677906Y268276D01*
X1678020Y268320D01*
X1678132Y268368D01*
X1678243Y268419D01*
X1678352Y268474D01*
X1678460Y268532D01*
X1678565Y268594D01*
X1678668Y268659D01*
X1678770Y268727D01*
X1678869Y268799D01*
X1678965Y268873D01*
X1679060Y268951D01*
X1679151Y269032D01*
X1679241Y269115D01*
X1679327Y269201D01*
X1679410Y269291D01*
X1679491Y269382D01*
X1679569Y269477D01*
X1679643Y269573D01*
X1679715Y269672D01*
X1679783Y269774D01*
X1679848Y269877D01*
X1679910Y269982D01*
X1679968Y270090D01*
X1680023Y270199D01*
X1680074Y270310D01*
X1680122Y270422D01*
X1680166Y270536D01*
X1680206Y270651D01*
X1680243Y270768D01*
X1680275Y270886D01*
X1680304Y271004D01*
X1680330Y271124D01*
X1680351Y271244D01*
X1680369Y271365D01*
X1680382Y271486D01*
X1680392Y271608D01*
X1680398Y271730D01*
X1680400Y271852D01*
X1676590Y268042D02*
X1582610Y268042D01*
X1578800Y271852D02*
X1578800Y303348D01*
X1680400Y303348D02*
X1680400Y292680D01*
X1680400Y282520D01*
X1680400Y271852D01*
X1680400Y282520D02*
X1680259Y282522D01*
X1680118Y282528D01*
X1679977Y282538D01*
X1679836Y282551D01*
X1679696Y282569D01*
X1679557Y282591D01*
X1679418Y282616D01*
X1679279Y282645D01*
X1679142Y282678D01*
X1679006Y282715D01*
X1678871Y282756D01*
X1678736Y282800D01*
X1678604Y282848D01*
X1678472Y282900D01*
X1678342Y282955D01*
X1678214Y283014D01*
X1678087Y283077D01*
X1677963Y283143D01*
X1677840Y283212D01*
X1677719Y283285D01*
X1677600Y283361D01*
X1677483Y283441D01*
X1677369Y283524D01*
X1677256Y283609D01*
X1677147Y283698D01*
X1677039Y283790D01*
X1676935Y283885D01*
X1676833Y283983D01*
X1676734Y284084D01*
X1676637Y284187D01*
X1676544Y284293D01*
X1676454Y284401D01*
X1676366Y284512D01*
X1676282Y284625D01*
X1676201Y284741D01*
X1676123Y284859D01*
X1676048Y284979D01*
X1675977Y285101D01*
X1675909Y285225D01*
X1675845Y285351D01*
X1675784Y285478D01*
X1675727Y285607D01*
X1675674Y285738D01*
X1675624Y285870D01*
X1675577Y286003D01*
X1675535Y286138D01*
X1675496Y286274D01*
X1675461Y286411D01*
X1675430Y286548D01*
X1675403Y286687D01*
X1675379Y286826D01*
X1675360Y286966D01*
X1675344Y287106D01*
X1675332Y287247D01*
X1675324Y287388D01*
X1675320Y287529D01*
X1675320Y287671D01*
X1675324Y287812D01*
X1675332Y287953D01*
X1675344Y288094D01*
X1675360Y288234D01*
X1675379Y288374D01*
X1675403Y288513D01*
X1675430Y288652D01*
X1675461Y288789D01*
X1675496Y288926D01*
X1675535Y289062D01*
X1675577Y289197D01*
X1675624Y289330D01*
X1675674Y289462D01*
X1675727Y289593D01*
X1675784Y289722D01*
X1675845Y289849D01*
X1675909Y289975D01*
X1675977Y290099D01*
X1676048Y290221D01*
X1676123Y290341D01*
X1676201Y290459D01*
X1676282Y290575D01*
X1676366Y290688D01*
X1676454Y290799D01*
X1676544Y290907D01*
X1676637Y291013D01*
X1676734Y291116D01*
X1676833Y291217D01*
X1676935Y291315D01*
X1677039Y291410D01*
X1677147Y291502D01*
X1677256Y291591D01*
X1677369Y291676D01*
X1677483Y291759D01*
X1677600Y291839D01*
X1677719Y291915D01*
X1677840Y291988D01*
X1677963Y292057D01*
X1678087Y292123D01*
X1678214Y292186D01*
X1678342Y292245D01*
X1678472Y292300D01*
X1678604Y292352D01*
X1678736Y292400D01*
X1678871Y292444D01*
X1679006Y292485D01*
X1679142Y292522D01*
X1679279Y292555D01*
X1679418Y292584D01*
X1679557Y292609D01*
X1679696Y292631D01*
X1679836Y292649D01*
X1679977Y292662D01*
X1680118Y292672D01*
X1680259Y292678D01*
X1680400Y292680D01*
D92*
X1680400Y271598D02*
X1578800Y271598D01*
D93*
X1635950Y312873D03*
X1674050Y262327D03*
X1661350Y262327D03*
X1648650Y262581D03*
X1635950Y262327D03*
X1648650Y312873D03*
X1661350Y312873D03*
X1674050Y312873D03*
X1623250Y262327D03*
X1610550Y262327D03*
X1597850Y262327D03*
X1585150Y262327D03*
X1623250Y312873D03*
X1610550Y312873D03*
X1597850Y312873D03*
X1585150Y312873D03*
D85*
X1684718Y278685D02*
X1684718Y275634D01*
X1684718Y277160D02*
X1693870Y277160D01*
X1693870Y278685D02*
X1693870Y275634D01*
X1693870Y286447D02*
X1692345Y287972D01*
X1693870Y286447D02*
X1693870Y283396D01*
X1692345Y281871D01*
X1686243Y281871D01*
X1684718Y283396D01*
X1684718Y286447D01*
X1686243Y287972D01*
X1693870Y291226D02*
X1693870Y297328D01*
X1692345Y297328D01*
X1686243Y291226D01*
X1684718Y291226D01*
D91*
X1395900Y910200D02*
X1363900Y910200D01*
X1395900Y910200D02*
X1395900Y925200D01*
X1363900Y925200D01*
X1363900Y910200D01*
X1377360Y913890D02*
X1377360Y921510D01*
X1371900Y925200D02*
X1387900Y925200D01*
X1386900Y910200D02*
X1371900Y910200D01*
D85*
X1352768Y913733D02*
X1352768Y921614D01*
X1352768Y913733D02*
X1348827Y913733D01*
X1347514Y915046D01*
X1347514Y920300D01*
X1348827Y921614D01*
X1352768Y921614D01*
X1344582Y918987D02*
X1341955Y921614D01*
X1341955Y913733D01*
X1344582Y913733D02*
X1339328Y913733D01*
D91*
X1363900Y884800D02*
X1395900Y884800D01*
X1395900Y899800D01*
X1363900Y899800D01*
X1363900Y884800D01*
X1377360Y888490D02*
X1377360Y896110D01*
X1371900Y899800D02*
X1387900Y899800D01*
X1386900Y884800D02*
X1371900Y884800D01*
D85*
X1352768Y888333D02*
X1352768Y896214D01*
X1352768Y888333D02*
X1348827Y888333D01*
X1347514Y889646D01*
X1347514Y894900D01*
X1348827Y896214D01*
X1352768Y896214D01*
X1344582Y888333D02*
X1339328Y888333D01*
X1344582Y888333D02*
X1339328Y893587D01*
X1339328Y894900D01*
X1340642Y896214D01*
X1343269Y896214D01*
X1344582Y894900D01*
D91*
X1363900Y859400D02*
X1395900Y859400D01*
X1395900Y874400D01*
X1363900Y874400D01*
X1363900Y859400D01*
X1377360Y863090D02*
X1377360Y870710D01*
X1371900Y874400D02*
X1387900Y874400D01*
X1386900Y859400D02*
X1371900Y859400D01*
D85*
X1352768Y862933D02*
X1352768Y870814D01*
X1352768Y862933D02*
X1348827Y862933D01*
X1347514Y864246D01*
X1347514Y869500D01*
X1348827Y870814D01*
X1352768Y870814D01*
X1344582Y869500D02*
X1343269Y870814D01*
X1340642Y870814D01*
X1339328Y869500D01*
X1339328Y868187D01*
X1340642Y866873D01*
X1341955Y866873D01*
X1340642Y866873D02*
X1339328Y865560D01*
X1339328Y864246D01*
X1340642Y862933D01*
X1343269Y862933D01*
X1344582Y864246D01*
D91*
X1363900Y834000D02*
X1395900Y834000D01*
X1395900Y849000D01*
X1363900Y849000D01*
X1363900Y834000D01*
X1377360Y837690D02*
X1377360Y845310D01*
X1371900Y849000D02*
X1387900Y849000D01*
X1386900Y834000D02*
X1371900Y834000D01*
D85*
X1352768Y837533D02*
X1352768Y845414D01*
X1352768Y837533D02*
X1348827Y837533D01*
X1347514Y838846D01*
X1347514Y844100D01*
X1348827Y845414D01*
X1352768Y845414D01*
X1340642Y845414D02*
X1340642Y837533D01*
X1344582Y841473D02*
X1340642Y845414D01*
X1339328Y841473D02*
X1344582Y841473D01*
D91*
X1475776Y908396D02*
X1475776Y921604D01*
X1475776Y908396D02*
X1504224Y908396D01*
X1504224Y921604D01*
X1475776Y921604D01*
D94*
X1490000Y925033D03*
X1480602Y904967D03*
X1499398Y904967D03*
D85*
X1497238Y886502D02*
X1497238Y874808D01*
X1501136Y886502D02*
X1493340Y886502D01*
X1483595Y886502D02*
X1483595Y874808D01*
X1489442Y880655D02*
X1483595Y886502D01*
X1481646Y880655D02*
X1489442Y880655D01*
D91*
X1575776Y908396D02*
X1575776Y921604D01*
X1575776Y908396D02*
X1604224Y908396D01*
X1604224Y921604D01*
X1575776Y921604D01*
D94*
X1590000Y925033D03*
X1580602Y904967D03*
X1599398Y904967D03*
D85*
X1597238Y886502D02*
X1597238Y874808D01*
X1601136Y886502D02*
X1593340Y886502D01*
X1589442Y886502D02*
X1581646Y886502D01*
X1589442Y886502D02*
X1589442Y880655D01*
X1585544Y882604D01*
X1583595Y882604D01*
X1581646Y880655D01*
X1581646Y876757D01*
X1583595Y874808D01*
X1587493Y874808D01*
X1589442Y876757D01*
D91*
X1475776Y831604D02*
X1475776Y818396D01*
X1504224Y818396D01*
X1504224Y831604D01*
X1475776Y831604D01*
D94*
X1490000Y835033D03*
X1480602Y814967D03*
X1499398Y814967D03*
D85*
X1497238Y797502D02*
X1497238Y785808D01*
X1501136Y797502D02*
X1493340Y797502D01*
X1489442Y793604D02*
X1485544Y797502D01*
X1485544Y785808D01*
X1489442Y785808D02*
X1481646Y785808D01*
D91*
X1575776Y818396D02*
X1575776Y831604D01*
X1575776Y818396D02*
X1604224Y818396D01*
X1604224Y831604D01*
X1575776Y831604D01*
D94*
X1590000Y835033D03*
X1580602Y814967D03*
X1599398Y814967D03*
D85*
X1597238Y797502D02*
X1597238Y785808D01*
X1601136Y797502D02*
X1593340Y797502D01*
X1589442Y785808D02*
X1581646Y785808D01*
X1589442Y785808D02*
X1581646Y793604D01*
X1581646Y795553D01*
X1583595Y797502D01*
X1587493Y797502D01*
X1589442Y795553D01*
D91*
X1675776Y818396D02*
X1675776Y831604D01*
X1675776Y818396D02*
X1704224Y818396D01*
X1704224Y831604D01*
X1675776Y831604D01*
D94*
X1690000Y835033D03*
X1680602Y814967D03*
X1699398Y814967D03*
D85*
X1697238Y797502D02*
X1697238Y785808D01*
X1701136Y797502D02*
X1693340Y797502D01*
X1689442Y795553D02*
X1687493Y797502D01*
X1683595Y797502D01*
X1681646Y795553D01*
X1681646Y793604D01*
X1683595Y791655D01*
X1685544Y791655D01*
X1683595Y791655D02*
X1681646Y789706D01*
X1681646Y787757D01*
X1683595Y785808D01*
X1687493Y785808D01*
X1689442Y787757D01*
D95*
X1522294Y165014D02*
X1489294Y165014D01*
X1484294Y165014D01*
X1484294Y117014D01*
X1489294Y117014D01*
X1497294Y117014D01*
X1510294Y117014D01*
X1522294Y117014D01*
X1522294Y165014D01*
X1489294Y165014D02*
X1489294Y117014D01*
D96*
X1477794Y121964D03*
X1477794Y134664D03*
X1477794Y147364D03*
X1477794Y160064D03*
X1528794Y160064D03*
X1528794Y147364D03*
X1528794Y134664D03*
X1528794Y121964D03*
D91*
X1510294Y117014D02*
X1510292Y117174D01*
X1510286Y117333D01*
X1510276Y117492D01*
X1510263Y117651D01*
X1510245Y117810D01*
X1510224Y117968D01*
X1510198Y118125D01*
X1510169Y118282D01*
X1510136Y118438D01*
X1510099Y118593D01*
X1510059Y118748D01*
X1510014Y118901D01*
X1509966Y119053D01*
X1509914Y119204D01*
X1509858Y119353D01*
X1509799Y119501D01*
X1509736Y119648D01*
X1509670Y119793D01*
X1509600Y119936D01*
X1509526Y120078D01*
X1509450Y120218D01*
X1509369Y120356D01*
X1509286Y120491D01*
X1509199Y120625D01*
X1509108Y120757D01*
X1509015Y120886D01*
X1508918Y121013D01*
X1508819Y121138D01*
X1508716Y121260D01*
X1508610Y121379D01*
X1508502Y121496D01*
X1508390Y121610D01*
X1508276Y121722D01*
X1508159Y121830D01*
X1508040Y121936D01*
X1507918Y122039D01*
X1507793Y122138D01*
X1507666Y122235D01*
X1507537Y122328D01*
X1507405Y122419D01*
X1507271Y122506D01*
X1507136Y122589D01*
X1506998Y122670D01*
X1506858Y122746D01*
X1506716Y122820D01*
X1506573Y122890D01*
X1506428Y122956D01*
X1506281Y123019D01*
X1506133Y123078D01*
X1505984Y123134D01*
X1505833Y123186D01*
X1505681Y123234D01*
X1505528Y123279D01*
X1505373Y123319D01*
X1505218Y123356D01*
X1505062Y123389D01*
X1504905Y123418D01*
X1504748Y123444D01*
X1504590Y123465D01*
X1504431Y123483D01*
X1504272Y123496D01*
X1504113Y123506D01*
X1503954Y123512D01*
X1503794Y123514D01*
X1503634Y123512D01*
X1503475Y123506D01*
X1503316Y123496D01*
X1503157Y123483D01*
X1502998Y123465D01*
X1502840Y123444D01*
X1502683Y123418D01*
X1502526Y123389D01*
X1502370Y123356D01*
X1502215Y123319D01*
X1502060Y123279D01*
X1501907Y123234D01*
X1501755Y123186D01*
X1501604Y123134D01*
X1501455Y123078D01*
X1501307Y123019D01*
X1501160Y122956D01*
X1501015Y122890D01*
X1500872Y122820D01*
X1500730Y122746D01*
X1500590Y122670D01*
X1500452Y122589D01*
X1500317Y122506D01*
X1500183Y122419D01*
X1500051Y122328D01*
X1499922Y122235D01*
X1499795Y122138D01*
X1499670Y122039D01*
X1499548Y121936D01*
X1499429Y121830D01*
X1499312Y121722D01*
X1499198Y121610D01*
X1499086Y121496D01*
X1498978Y121379D01*
X1498872Y121260D01*
X1498769Y121138D01*
X1498670Y121013D01*
X1498573Y120886D01*
X1498480Y120757D01*
X1498389Y120625D01*
X1498302Y120491D01*
X1498219Y120356D01*
X1498138Y120218D01*
X1498062Y120078D01*
X1497988Y119936D01*
X1497918Y119793D01*
X1497852Y119648D01*
X1497789Y119501D01*
X1497730Y119353D01*
X1497674Y119204D01*
X1497622Y119053D01*
X1497574Y118901D01*
X1497529Y118748D01*
X1497489Y118593D01*
X1497452Y118438D01*
X1497419Y118282D01*
X1497390Y118125D01*
X1497364Y117968D01*
X1497343Y117810D01*
X1497325Y117651D01*
X1497312Y117492D01*
X1497302Y117333D01*
X1497296Y117174D01*
X1497294Y117014D01*
D84*
X1512516Y129985D02*
X1515651Y129985D01*
X1514084Y129985D02*
X1514084Y139391D01*
X1515651Y139391D02*
X1512516Y139391D01*
X1504711Y139391D02*
X1503144Y137824D01*
X1504711Y139391D02*
X1507847Y139391D01*
X1509414Y137824D01*
X1509414Y131553D01*
X1507847Y129985D01*
X1504711Y129985D01*
X1503144Y131553D01*
X1500059Y137824D02*
X1498492Y139391D01*
X1495356Y139391D01*
X1493789Y137824D01*
X1493789Y136256D01*
X1495356Y134688D01*
X1493789Y133121D01*
X1493789Y131553D01*
X1495356Y129985D01*
X1498492Y129985D01*
X1500059Y131553D01*
X1500059Y133121D01*
X1498492Y134688D01*
X1500059Y136256D01*
X1500059Y137824D01*
X1498492Y134688D02*
X1495356Y134688D01*
D85*
X1495144Y90684D02*
X1514444Y90684D01*
X1514444Y74944D02*
X1495144Y74944D01*
D86*
X1518061Y82805D03*
X1491526Y82823D03*
D85*
X1510035Y107032D02*
X1511984Y108981D01*
X1515882Y108981D01*
X1517831Y107032D01*
X1517831Y99236D01*
X1515882Y97287D01*
X1511984Y97287D01*
X1510035Y99236D01*
X1506137Y97287D02*
X1498341Y97287D01*
X1506137Y97287D02*
X1498341Y105083D01*
X1498341Y107032D01*
X1500290Y108981D01*
X1504188Y108981D01*
X1506137Y107032D01*
X1494443Y105083D02*
X1490545Y108981D01*
X1490545Y97287D01*
X1494443Y97287D02*
X1486647Y97287D01*
D91*
X865500Y444500D02*
X865500Y475500D01*
X884500Y475500D01*
X884500Y444500D01*
X865500Y444500D01*
D95*
X865000Y473000D02*
X865000Y476000D01*
X868000Y476000D01*
X865000Y447000D02*
X865000Y444000D01*
X868000Y444000D01*
X882000Y444000D02*
X885000Y444000D01*
X885000Y447000D01*
X885000Y476000D02*
X882000Y476000D01*
X885000Y476000D02*
X885000Y473000D01*
X877764Y470000D02*
X877766Y470094D01*
X877772Y470188D01*
X877782Y470282D01*
X877796Y470375D01*
X877814Y470468D01*
X877835Y470560D01*
X877861Y470650D01*
X877890Y470740D01*
X877923Y470828D01*
X877960Y470915D01*
X878000Y471000D01*
X878044Y471084D01*
X878092Y471165D01*
X878142Y471245D01*
X878197Y471322D01*
X878254Y471397D01*
X878314Y471469D01*
X878378Y471539D01*
X878444Y471606D01*
X878513Y471670D01*
X878585Y471731D01*
X878659Y471789D01*
X878736Y471844D01*
X878815Y471896D01*
X878896Y471944D01*
X878979Y471989D01*
X879063Y472030D01*
X879150Y472068D01*
X879238Y472102D01*
X879327Y472132D01*
X879417Y472159D01*
X879509Y472181D01*
X879601Y472200D01*
X879695Y472215D01*
X879788Y472226D01*
X879882Y472233D01*
X879976Y472236D01*
X880071Y472235D01*
X880165Y472230D01*
X880259Y472221D01*
X880352Y472208D01*
X880445Y472191D01*
X880537Y472171D01*
X880628Y472146D01*
X880718Y472118D01*
X880806Y472086D01*
X880894Y472050D01*
X880979Y472010D01*
X881063Y471967D01*
X881145Y471921D01*
X881225Y471871D01*
X881303Y471817D01*
X881378Y471761D01*
X881451Y471701D01*
X881522Y471638D01*
X881589Y471573D01*
X881654Y471504D01*
X881716Y471433D01*
X881775Y471360D01*
X881831Y471284D01*
X881883Y471205D01*
X881932Y471125D01*
X881978Y471042D01*
X882020Y470958D01*
X882059Y470872D01*
X882094Y470784D01*
X882125Y470695D01*
X882153Y470605D01*
X882176Y470514D01*
X882196Y470422D01*
X882212Y470329D01*
X882224Y470235D01*
X882232Y470141D01*
X882236Y470047D01*
X882236Y469953D01*
X882232Y469859D01*
X882224Y469765D01*
X882212Y469671D01*
X882196Y469578D01*
X882176Y469486D01*
X882153Y469395D01*
X882125Y469305D01*
X882094Y469216D01*
X882059Y469128D01*
X882020Y469042D01*
X881978Y468958D01*
X881932Y468875D01*
X881883Y468795D01*
X881831Y468716D01*
X881775Y468640D01*
X881716Y468567D01*
X881654Y468496D01*
X881589Y468427D01*
X881522Y468362D01*
X881451Y468299D01*
X881378Y468239D01*
X881303Y468183D01*
X881225Y468129D01*
X881145Y468079D01*
X881063Y468033D01*
X880979Y467990D01*
X880894Y467950D01*
X880806Y467914D01*
X880718Y467882D01*
X880628Y467854D01*
X880537Y467829D01*
X880445Y467809D01*
X880352Y467792D01*
X880259Y467779D01*
X880165Y467770D01*
X880071Y467765D01*
X879976Y467764D01*
X879882Y467767D01*
X879788Y467774D01*
X879695Y467785D01*
X879601Y467800D01*
X879509Y467819D01*
X879417Y467841D01*
X879327Y467868D01*
X879238Y467898D01*
X879150Y467932D01*
X879063Y467970D01*
X878979Y468011D01*
X878896Y468056D01*
X878815Y468104D01*
X878736Y468156D01*
X878659Y468211D01*
X878585Y468269D01*
X878513Y468330D01*
X878444Y468394D01*
X878378Y468461D01*
X878314Y468531D01*
X878254Y468603D01*
X878197Y468678D01*
X878142Y468755D01*
X878092Y468835D01*
X878044Y468916D01*
X878000Y469000D01*
X877960Y469085D01*
X877923Y469172D01*
X877890Y469260D01*
X877861Y469350D01*
X877835Y469440D01*
X877814Y469532D01*
X877796Y469625D01*
X877782Y469718D01*
X877772Y469812D01*
X877766Y469906D01*
X877764Y470000D01*
D84*
X843377Y452860D02*
X843377Y450402D01*
X843377Y451631D02*
X850749Y451631D01*
X850749Y450402D02*
X850749Y452860D01*
X850749Y459078D02*
X849521Y460306D01*
X850749Y459078D02*
X850749Y456620D01*
X849521Y455392D01*
X844606Y455392D01*
X843377Y456620D01*
X843377Y459078D01*
X844606Y460306D01*
X844606Y462876D02*
X843377Y464104D01*
X843377Y466562D01*
X844606Y467791D01*
X849521Y467791D01*
X850749Y466562D01*
X850749Y464104D01*
X849521Y462876D01*
X848292Y462876D01*
X847063Y464104D01*
X847063Y467791D01*
D82*
X915440Y464220D02*
X915440Y455580D01*
X922560Y455580D02*
X922560Y464220D01*
D97*
X919000Y466250D03*
X919000Y453550D03*
D85*
X925658Y442967D02*
X937352Y442967D01*
X937352Y448814D01*
X935403Y450763D01*
X931505Y450763D01*
X929556Y448814D01*
X929556Y442967D01*
X929556Y446865D02*
X925658Y450763D01*
X935403Y454661D02*
X937352Y456610D01*
X937352Y460508D01*
X935403Y462457D01*
X933454Y462457D01*
X931505Y460508D01*
X931505Y458559D01*
X931505Y460508D02*
X929556Y462457D01*
X927607Y462457D01*
X925658Y460508D01*
X925658Y456610D01*
X927607Y454661D01*
X927607Y466355D02*
X925658Y468304D01*
X925658Y472202D01*
X927607Y474151D01*
X935403Y474151D01*
X937352Y472202D01*
X937352Y468304D01*
X935403Y466355D01*
X933454Y466355D01*
X931505Y468304D01*
X931505Y474151D01*
D82*
X833560Y464420D02*
X833560Y455780D01*
X826440Y455780D02*
X826440Y464420D01*
D97*
X830000Y453750D03*
X830000Y466450D03*
D85*
X823352Y442967D02*
X811658Y442967D01*
X823352Y442967D02*
X823352Y448814D01*
X821403Y450763D01*
X817505Y450763D01*
X815556Y448814D01*
X815556Y442967D01*
X815556Y446865D02*
X811658Y450763D01*
X811658Y460508D02*
X823352Y460508D01*
X817505Y454661D01*
X817505Y462457D01*
X813607Y466355D02*
X821403Y466355D01*
X823352Y468304D01*
X823352Y472202D01*
X821403Y474151D01*
X813607Y474151D01*
X811658Y472202D01*
X811658Y468304D01*
X813607Y466355D01*
X821403Y474151D01*
D82*
X830780Y411440D02*
X839420Y411440D01*
X839420Y418560D02*
X830780Y418560D01*
D98*
X828750Y415000D03*
X841450Y415000D03*
D85*
X844237Y431403D02*
X846186Y433352D01*
X850084Y433352D01*
X852033Y431403D01*
X852033Y423607D01*
X850084Y421658D01*
X846186Y421658D01*
X844237Y423607D01*
X840339Y421658D02*
X832543Y421658D01*
X840339Y421658D02*
X832543Y429454D01*
X832543Y431403D01*
X834492Y433352D01*
X838390Y433352D01*
X840339Y431403D01*
X828645Y421658D02*
X820849Y421658D01*
X828645Y421658D02*
X820849Y429454D01*
X820849Y431403D01*
X822798Y433352D01*
X826696Y433352D01*
X828645Y431403D01*
D82*
X371442Y715010D02*
X371442Y808990D01*
X410558Y715010D02*
X410556Y714888D01*
X410550Y714766D01*
X410540Y714644D01*
X410527Y714523D01*
X410509Y714402D01*
X410488Y714282D01*
X410462Y714162D01*
X410433Y714044D01*
X410401Y713926D01*
X410364Y713809D01*
X410324Y713694D01*
X410280Y713580D01*
X410232Y713468D01*
X410181Y713357D01*
X410126Y713248D01*
X410068Y713140D01*
X410006Y713035D01*
X409941Y712932D01*
X409873Y712830D01*
X409801Y712731D01*
X409727Y712635D01*
X409649Y712540D01*
X409568Y712449D01*
X409485Y712359D01*
X409399Y712273D01*
X409309Y712190D01*
X409218Y712109D01*
X409123Y712031D01*
X409027Y711957D01*
X408928Y711885D01*
X408826Y711817D01*
X408723Y711752D01*
X408618Y711690D01*
X408510Y711632D01*
X408401Y711577D01*
X408290Y711526D01*
X408178Y711478D01*
X408064Y711434D01*
X407949Y711394D01*
X407832Y711357D01*
X407714Y711325D01*
X407596Y711296D01*
X407476Y711270D01*
X407356Y711249D01*
X407235Y711231D01*
X407114Y711218D01*
X406992Y711208D01*
X406870Y711202D01*
X406748Y711200D01*
X371442Y808990D02*
X371444Y809112D01*
X371450Y809234D01*
X371460Y809356D01*
X371473Y809477D01*
X371491Y809598D01*
X371512Y809718D01*
X371538Y809838D01*
X371567Y809956D01*
X371599Y810074D01*
X371636Y810191D01*
X371676Y810306D01*
X371720Y810420D01*
X371768Y810532D01*
X371819Y810643D01*
X371874Y810752D01*
X371932Y810860D01*
X371994Y810965D01*
X372059Y811068D01*
X372127Y811170D01*
X372199Y811269D01*
X372273Y811365D01*
X372351Y811460D01*
X372432Y811551D01*
X372515Y811641D01*
X372601Y811727D01*
X372691Y811810D01*
X372782Y811891D01*
X372877Y811969D01*
X372973Y812043D01*
X373072Y812115D01*
X373174Y812183D01*
X373277Y812248D01*
X373382Y812310D01*
X373490Y812368D01*
X373599Y812423D01*
X373710Y812474D01*
X373822Y812522D01*
X373936Y812566D01*
X374051Y812606D01*
X374168Y812643D01*
X374286Y812675D01*
X374404Y812704D01*
X374524Y812730D01*
X374644Y812751D01*
X374765Y812769D01*
X374886Y812782D01*
X375008Y812792D01*
X375130Y812798D01*
X375252Y812800D01*
X371442Y715010D02*
X371444Y714888D01*
X371450Y714766D01*
X371460Y714644D01*
X371473Y714523D01*
X371491Y714402D01*
X371512Y714282D01*
X371538Y714162D01*
X371567Y714044D01*
X371599Y713926D01*
X371636Y713809D01*
X371676Y713694D01*
X371720Y713580D01*
X371768Y713468D01*
X371819Y713357D01*
X371874Y713248D01*
X371932Y713140D01*
X371994Y713035D01*
X372059Y712932D01*
X372127Y712830D01*
X372199Y712731D01*
X372273Y712635D01*
X372351Y712540D01*
X372432Y712449D01*
X372515Y712359D01*
X372601Y712273D01*
X372691Y712190D01*
X372782Y712109D01*
X372877Y712031D01*
X372973Y711957D01*
X373072Y711885D01*
X373174Y711817D01*
X373277Y711752D01*
X373382Y711690D01*
X373490Y711632D01*
X373599Y711577D01*
X373710Y711526D01*
X373822Y711478D01*
X373936Y711434D01*
X374051Y711394D01*
X374168Y711357D01*
X374286Y711325D01*
X374404Y711296D01*
X374524Y711270D01*
X374644Y711249D01*
X374765Y711231D01*
X374886Y711218D01*
X375008Y711208D01*
X375130Y711202D01*
X375252Y711200D01*
X410558Y808990D02*
X410556Y809112D01*
X410550Y809234D01*
X410540Y809356D01*
X410527Y809477D01*
X410509Y809598D01*
X410488Y809718D01*
X410462Y809838D01*
X410433Y809956D01*
X410401Y810074D01*
X410364Y810191D01*
X410324Y810306D01*
X410280Y810420D01*
X410232Y810532D01*
X410181Y810643D01*
X410126Y810752D01*
X410068Y810860D01*
X410006Y810965D01*
X409941Y811068D01*
X409873Y811170D01*
X409801Y811269D01*
X409727Y811365D01*
X409649Y811460D01*
X409568Y811551D01*
X409485Y811641D01*
X409399Y811727D01*
X409309Y811810D01*
X409218Y811891D01*
X409123Y811969D01*
X409027Y812043D01*
X408928Y812115D01*
X408826Y812183D01*
X408723Y812248D01*
X408618Y812310D01*
X408510Y812368D01*
X408401Y812423D01*
X408290Y812474D01*
X408178Y812522D01*
X408064Y812566D01*
X407949Y812606D01*
X407832Y812643D01*
X407714Y812675D01*
X407596Y812704D01*
X407476Y812730D01*
X407356Y812751D01*
X407235Y812769D01*
X407114Y812782D01*
X406992Y812792D01*
X406870Y812798D01*
X406748Y812800D01*
X410558Y808990D02*
X410558Y715010D01*
X406748Y711200D02*
X375252Y711200D01*
X375252Y812800D02*
X406748Y812800D01*
X396080Y812800D02*
X396078Y812659D01*
X396072Y812518D01*
X396062Y812377D01*
X396049Y812236D01*
X396031Y812096D01*
X396009Y811957D01*
X395984Y811818D01*
X395955Y811679D01*
X395922Y811542D01*
X395885Y811406D01*
X395844Y811271D01*
X395800Y811136D01*
X395752Y811004D01*
X395700Y810872D01*
X395645Y810742D01*
X395586Y810614D01*
X395523Y810487D01*
X395457Y810363D01*
X395388Y810240D01*
X395315Y810119D01*
X395239Y810000D01*
X395159Y809883D01*
X395076Y809769D01*
X394991Y809656D01*
X394902Y809547D01*
X394810Y809439D01*
X394715Y809335D01*
X394617Y809233D01*
X394516Y809134D01*
X394413Y809037D01*
X394307Y808944D01*
X394199Y808854D01*
X394088Y808766D01*
X393975Y808682D01*
X393859Y808601D01*
X393741Y808523D01*
X393621Y808448D01*
X393499Y808377D01*
X393375Y808309D01*
X393249Y808245D01*
X393122Y808184D01*
X392993Y808127D01*
X392862Y808074D01*
X392730Y808024D01*
X392597Y807977D01*
X392462Y807935D01*
X392326Y807896D01*
X392189Y807861D01*
X392052Y807830D01*
X391913Y807803D01*
X391774Y807779D01*
X391634Y807760D01*
X391494Y807744D01*
X391353Y807732D01*
X391212Y807724D01*
X391071Y807720D01*
X390929Y807720D01*
X390788Y807724D01*
X390647Y807732D01*
X390506Y807744D01*
X390366Y807760D01*
X390226Y807779D01*
X390087Y807803D01*
X389948Y807830D01*
X389811Y807861D01*
X389674Y807896D01*
X389538Y807935D01*
X389403Y807977D01*
X389270Y808024D01*
X389138Y808074D01*
X389007Y808127D01*
X388878Y808184D01*
X388751Y808245D01*
X388625Y808309D01*
X388501Y808377D01*
X388379Y808448D01*
X388259Y808523D01*
X388141Y808601D01*
X388025Y808682D01*
X387912Y808766D01*
X387801Y808854D01*
X387693Y808944D01*
X387587Y809037D01*
X387484Y809134D01*
X387383Y809233D01*
X387285Y809335D01*
X387190Y809439D01*
X387098Y809547D01*
X387009Y809656D01*
X386924Y809769D01*
X386841Y809883D01*
X386761Y810000D01*
X386685Y810119D01*
X386612Y810240D01*
X386543Y810363D01*
X386477Y810487D01*
X386414Y810614D01*
X386355Y810742D01*
X386300Y810872D01*
X386248Y811004D01*
X386200Y811136D01*
X386156Y811271D01*
X386115Y811406D01*
X386078Y811542D01*
X386045Y811679D01*
X386016Y811818D01*
X385991Y811957D01*
X385969Y812096D01*
X385951Y812236D01*
X385938Y812377D01*
X385928Y812518D01*
X385922Y812659D01*
X385920Y812800D01*
D92*
X407002Y812800D02*
X407002Y711200D01*
D99*
X365727Y768350D03*
X416273Y806450D03*
X416273Y793750D03*
X416019Y781050D03*
X416273Y768350D03*
X365727Y781050D03*
X365727Y793750D03*
X365727Y806450D03*
X416273Y755650D03*
X416273Y742950D03*
X416273Y730250D03*
X416273Y717550D03*
X365727Y755650D03*
X365727Y742950D03*
X365727Y730250D03*
X365727Y717550D03*
D91*
X404332Y817245D02*
X408145Y817245D01*
X406238Y817245D02*
X406238Y828685D01*
X404332Y828685D02*
X408145Y828685D01*
X394629Y828685D02*
X392723Y826778D01*
X394629Y828685D02*
X398442Y828685D01*
X400349Y826778D01*
X400349Y819152D01*
X398442Y817245D01*
X394629Y817245D01*
X392723Y819152D01*
X388655Y824872D02*
X384842Y828685D01*
X384842Y817245D01*
X388655Y817245D02*
X381029Y817245D01*
X376961Y824872D02*
X373148Y828685D01*
X373148Y817245D01*
X376961Y817245D02*
X369335Y817245D01*
D82*
X1121872Y915348D02*
X1121872Y934525D01*
X1138128Y934525D02*
X1138128Y915348D01*
D100*
X1130000Y911792D03*
X1130000Y938208D03*
D84*
X1141928Y898641D02*
X1141928Y890506D01*
X1141928Y898641D02*
X1137860Y898641D01*
X1136504Y897285D01*
X1136504Y894573D01*
X1137860Y893218D01*
X1141928Y893218D01*
X1139216Y893218D02*
X1136504Y890506D01*
X1129674Y890506D02*
X1129674Y898641D01*
X1133742Y894573D01*
X1128319Y894573D01*
X1125556Y895929D02*
X1122845Y898641D01*
X1122845Y890506D01*
X1125556Y890506D02*
X1120133Y890506D01*
D82*
X1151872Y915348D02*
X1151872Y934525D01*
X1168128Y934525D02*
X1168128Y915348D01*
D100*
X1160000Y911792D03*
X1160000Y938208D03*
D84*
X1171928Y898641D02*
X1171928Y890506D01*
X1171928Y898641D02*
X1167860Y898641D01*
X1166504Y897285D01*
X1166504Y894573D01*
X1167860Y893218D01*
X1171928Y893218D01*
X1169216Y893218D02*
X1166504Y890506D01*
X1159674Y890506D02*
X1159674Y898641D01*
X1163742Y894573D01*
X1158319Y894573D01*
X1155556Y890506D02*
X1150133Y890506D01*
X1155556Y890506D02*
X1150133Y895929D01*
X1150133Y897285D01*
X1151489Y898641D01*
X1154200Y898641D01*
X1155556Y897285D01*
D82*
X1096872Y869525D02*
X1096872Y850348D01*
X1113128Y850348D02*
X1113128Y869525D01*
D100*
X1105000Y846792D03*
X1105000Y873208D03*
D84*
X1116928Y833641D02*
X1116928Y825506D01*
X1116928Y833641D02*
X1112860Y833641D01*
X1111504Y832285D01*
X1111504Y829573D01*
X1112860Y828218D01*
X1116928Y828218D01*
X1114216Y828218D02*
X1111504Y825506D01*
X1104674Y825506D02*
X1104674Y833641D01*
X1108742Y829573D01*
X1103319Y829573D01*
X1100556Y832285D02*
X1099200Y833641D01*
X1096489Y833641D01*
X1095133Y832285D01*
X1095133Y830929D01*
X1096489Y829573D01*
X1097845Y829573D01*
X1096489Y829573D02*
X1095133Y828218D01*
X1095133Y826862D01*
X1096489Y825506D01*
X1099200Y825506D01*
X1100556Y826862D01*
D82*
X1266872Y850348D02*
X1266872Y869525D01*
X1283128Y869525D02*
X1283128Y850348D01*
D100*
X1275000Y846792D03*
X1275000Y873208D03*
D84*
X1286928Y833641D02*
X1286928Y825506D01*
X1286928Y833641D02*
X1282860Y833641D01*
X1281504Y832285D01*
X1281504Y829573D01*
X1282860Y828218D01*
X1286928Y828218D01*
X1284216Y828218D02*
X1281504Y825506D01*
X1274674Y825506D02*
X1274674Y833641D01*
X1278742Y829573D01*
X1273319Y829573D01*
X1266489Y825506D02*
X1266489Y833641D01*
X1270556Y829573D01*
X1265133Y829573D01*
D82*
X1198128Y915475D02*
X1198128Y934652D01*
X1181872Y934652D02*
X1181872Y915475D01*
D100*
X1190000Y938208D03*
X1190000Y911792D03*
D84*
X1201868Y951366D02*
X1201868Y959501D01*
X1197800Y959501D01*
X1196444Y958145D01*
X1196444Y955433D01*
X1197800Y954078D01*
X1201868Y954078D01*
X1199156Y954078D02*
X1196444Y951366D01*
X1189614Y951366D02*
X1189614Y959501D01*
X1193682Y955433D01*
X1188259Y955433D01*
X1185496Y959501D02*
X1180073Y959501D01*
X1185496Y959501D02*
X1185496Y955433D01*
X1182785Y956789D01*
X1181429Y956789D01*
X1180073Y955433D01*
X1180073Y952722D01*
X1181429Y951366D01*
X1184140Y951366D01*
X1185496Y952722D01*
D82*
X1241872Y934525D02*
X1241872Y915348D01*
X1258128Y915348D02*
X1258128Y934525D01*
D100*
X1250000Y911792D03*
X1250000Y938208D03*
D84*
X1261928Y898641D02*
X1261928Y890506D01*
X1261928Y898641D02*
X1257860Y898641D01*
X1256504Y897285D01*
X1256504Y894573D01*
X1257860Y893218D01*
X1261928Y893218D01*
X1259216Y893218D02*
X1256504Y890506D01*
X1249674Y890506D02*
X1249674Y898641D01*
X1253742Y894573D01*
X1248319Y894573D01*
X1242845Y897285D02*
X1240133Y898641D01*
X1242845Y897285D02*
X1245556Y894573D01*
X1245556Y891862D01*
X1244200Y890506D01*
X1241489Y890506D01*
X1240133Y891862D01*
X1240133Y893218D01*
X1241489Y894573D01*
X1245556Y894573D01*
D82*
X1211872Y915348D02*
X1211872Y934525D01*
X1228128Y934525D02*
X1228128Y915348D01*
D100*
X1220000Y911792D03*
X1220000Y938208D03*
D84*
X1231928Y898641D02*
X1231928Y890506D01*
X1231928Y898641D02*
X1227860Y898641D01*
X1226504Y897285D01*
X1226504Y894573D01*
X1227860Y893218D01*
X1231928Y893218D01*
X1229216Y893218D02*
X1226504Y890506D01*
X1219674Y890506D02*
X1219674Y898641D01*
X1223742Y894573D01*
X1218319Y894573D01*
X1215556Y898641D02*
X1210133Y898641D01*
X1210133Y897285D01*
X1215556Y891862D01*
X1215556Y890506D01*
D82*
X1069990Y849442D02*
X976010Y849442D01*
X1069990Y888558D02*
X1070112Y888556D01*
X1070234Y888550D01*
X1070356Y888540D01*
X1070477Y888527D01*
X1070598Y888509D01*
X1070718Y888488D01*
X1070838Y888462D01*
X1070956Y888433D01*
X1071074Y888401D01*
X1071191Y888364D01*
X1071306Y888324D01*
X1071420Y888280D01*
X1071532Y888232D01*
X1071643Y888181D01*
X1071752Y888126D01*
X1071860Y888068D01*
X1071965Y888006D01*
X1072068Y887941D01*
X1072170Y887873D01*
X1072269Y887801D01*
X1072365Y887727D01*
X1072460Y887649D01*
X1072551Y887568D01*
X1072641Y887485D01*
X1072727Y887399D01*
X1072810Y887309D01*
X1072891Y887218D01*
X1072969Y887123D01*
X1073043Y887027D01*
X1073115Y886928D01*
X1073183Y886826D01*
X1073248Y886723D01*
X1073310Y886618D01*
X1073368Y886510D01*
X1073423Y886401D01*
X1073474Y886290D01*
X1073522Y886178D01*
X1073566Y886064D01*
X1073606Y885949D01*
X1073643Y885832D01*
X1073675Y885714D01*
X1073704Y885596D01*
X1073730Y885476D01*
X1073751Y885356D01*
X1073769Y885235D01*
X1073782Y885114D01*
X1073792Y884992D01*
X1073798Y884870D01*
X1073800Y884748D01*
X976010Y849442D02*
X975888Y849444D01*
X975766Y849450D01*
X975644Y849460D01*
X975523Y849473D01*
X975402Y849491D01*
X975282Y849512D01*
X975162Y849538D01*
X975044Y849567D01*
X974926Y849599D01*
X974809Y849636D01*
X974694Y849676D01*
X974580Y849720D01*
X974468Y849768D01*
X974357Y849819D01*
X974248Y849874D01*
X974140Y849932D01*
X974035Y849994D01*
X973932Y850059D01*
X973830Y850127D01*
X973731Y850199D01*
X973635Y850273D01*
X973540Y850351D01*
X973449Y850432D01*
X973359Y850515D01*
X973273Y850601D01*
X973190Y850691D01*
X973109Y850782D01*
X973031Y850877D01*
X972957Y850973D01*
X972885Y851072D01*
X972817Y851174D01*
X972752Y851277D01*
X972690Y851382D01*
X972632Y851490D01*
X972577Y851599D01*
X972526Y851710D01*
X972478Y851822D01*
X972434Y851936D01*
X972394Y852051D01*
X972357Y852168D01*
X972325Y852286D01*
X972296Y852404D01*
X972270Y852524D01*
X972249Y852644D01*
X972231Y852765D01*
X972218Y852886D01*
X972208Y853008D01*
X972202Y853130D01*
X972200Y853252D01*
X1069990Y849442D02*
X1070112Y849444D01*
X1070234Y849450D01*
X1070356Y849460D01*
X1070477Y849473D01*
X1070598Y849491D01*
X1070718Y849512D01*
X1070838Y849538D01*
X1070956Y849567D01*
X1071074Y849599D01*
X1071191Y849636D01*
X1071306Y849676D01*
X1071420Y849720D01*
X1071532Y849768D01*
X1071643Y849819D01*
X1071752Y849874D01*
X1071860Y849932D01*
X1071965Y849994D01*
X1072068Y850059D01*
X1072170Y850127D01*
X1072269Y850199D01*
X1072365Y850273D01*
X1072460Y850351D01*
X1072551Y850432D01*
X1072641Y850515D01*
X1072727Y850601D01*
X1072810Y850691D01*
X1072891Y850782D01*
X1072969Y850877D01*
X1073043Y850973D01*
X1073115Y851072D01*
X1073183Y851174D01*
X1073248Y851277D01*
X1073310Y851382D01*
X1073368Y851490D01*
X1073423Y851599D01*
X1073474Y851710D01*
X1073522Y851822D01*
X1073566Y851936D01*
X1073606Y852051D01*
X1073643Y852168D01*
X1073675Y852286D01*
X1073704Y852404D01*
X1073730Y852524D01*
X1073751Y852644D01*
X1073769Y852765D01*
X1073782Y852886D01*
X1073792Y853008D01*
X1073798Y853130D01*
X1073800Y853252D01*
X976010Y888558D02*
X975888Y888556D01*
X975766Y888550D01*
X975644Y888540D01*
X975523Y888527D01*
X975402Y888509D01*
X975282Y888488D01*
X975162Y888462D01*
X975044Y888433D01*
X974926Y888401D01*
X974809Y888364D01*
X974694Y888324D01*
X974580Y888280D01*
X974468Y888232D01*
X974357Y888181D01*
X974248Y888126D01*
X974140Y888068D01*
X974035Y888006D01*
X973932Y887941D01*
X973830Y887873D01*
X973731Y887801D01*
X973635Y887727D01*
X973540Y887649D01*
X973449Y887568D01*
X973359Y887485D01*
X973273Y887399D01*
X973190Y887309D01*
X973109Y887218D01*
X973031Y887123D01*
X972957Y887027D01*
X972885Y886928D01*
X972817Y886826D01*
X972752Y886723D01*
X972690Y886618D01*
X972632Y886510D01*
X972577Y886401D01*
X972526Y886290D01*
X972478Y886178D01*
X972434Y886064D01*
X972394Y885949D01*
X972357Y885832D01*
X972325Y885714D01*
X972296Y885596D01*
X972270Y885476D01*
X972249Y885356D01*
X972231Y885235D01*
X972218Y885114D01*
X972208Y884992D01*
X972202Y884870D01*
X972200Y884748D01*
X976010Y888558D02*
X1069990Y888558D01*
X1073800Y884748D02*
X1073800Y853252D01*
X972200Y853252D02*
X972200Y863920D01*
X972200Y874080D01*
X972200Y884748D01*
X972200Y874080D02*
X972341Y874078D01*
X972482Y874072D01*
X972623Y874062D01*
X972764Y874049D01*
X972904Y874031D01*
X973043Y874009D01*
X973182Y873984D01*
X973321Y873955D01*
X973458Y873922D01*
X973594Y873885D01*
X973729Y873844D01*
X973864Y873800D01*
X973996Y873752D01*
X974128Y873700D01*
X974258Y873645D01*
X974386Y873586D01*
X974513Y873523D01*
X974637Y873457D01*
X974760Y873388D01*
X974881Y873315D01*
X975000Y873239D01*
X975117Y873159D01*
X975231Y873076D01*
X975344Y872991D01*
X975453Y872902D01*
X975561Y872810D01*
X975665Y872715D01*
X975767Y872617D01*
X975866Y872516D01*
X975963Y872413D01*
X976056Y872307D01*
X976146Y872199D01*
X976234Y872088D01*
X976318Y871975D01*
X976399Y871859D01*
X976477Y871741D01*
X976552Y871621D01*
X976623Y871499D01*
X976691Y871375D01*
X976755Y871249D01*
X976816Y871122D01*
X976873Y870993D01*
X976926Y870862D01*
X976976Y870730D01*
X977023Y870597D01*
X977065Y870462D01*
X977104Y870326D01*
X977139Y870189D01*
X977170Y870052D01*
X977197Y869913D01*
X977221Y869774D01*
X977240Y869634D01*
X977256Y869494D01*
X977268Y869353D01*
X977276Y869212D01*
X977280Y869071D01*
X977280Y868929D01*
X977276Y868788D01*
X977268Y868647D01*
X977256Y868506D01*
X977240Y868366D01*
X977221Y868226D01*
X977197Y868087D01*
X977170Y867948D01*
X977139Y867811D01*
X977104Y867674D01*
X977065Y867538D01*
X977023Y867403D01*
X976976Y867270D01*
X976926Y867138D01*
X976873Y867007D01*
X976816Y866878D01*
X976755Y866751D01*
X976691Y866625D01*
X976623Y866501D01*
X976552Y866379D01*
X976477Y866259D01*
X976399Y866141D01*
X976318Y866025D01*
X976234Y865912D01*
X976146Y865801D01*
X976056Y865693D01*
X975963Y865587D01*
X975866Y865484D01*
X975767Y865383D01*
X975665Y865285D01*
X975561Y865190D01*
X975453Y865098D01*
X975344Y865009D01*
X975231Y864924D01*
X975117Y864841D01*
X975000Y864761D01*
X974881Y864685D01*
X974760Y864612D01*
X974637Y864543D01*
X974513Y864477D01*
X974386Y864414D01*
X974258Y864355D01*
X974128Y864300D01*
X973996Y864248D01*
X973864Y864200D01*
X973729Y864156D01*
X973594Y864115D01*
X973458Y864078D01*
X973321Y864045D01*
X973182Y864016D01*
X973043Y863991D01*
X972904Y863969D01*
X972764Y863951D01*
X972623Y863938D01*
X972482Y863928D01*
X972341Y863922D01*
X972200Y863920D01*
D92*
X972200Y885002D02*
X1073800Y885002D01*
D93*
X1016650Y843727D03*
X978550Y894273D03*
X991250Y894273D03*
X1003950Y894019D03*
X1016650Y894273D03*
X1003950Y843727D03*
X991250Y843727D03*
X978550Y843727D03*
X1029350Y894273D03*
X1042050Y894273D03*
X1054750Y894273D03*
X1067450Y894273D03*
X1029350Y843727D03*
X1042050Y843727D03*
X1054750Y843727D03*
X1067450Y843727D03*
D85*
X958738Y855526D02*
X958738Y858576D01*
X958738Y857051D02*
X967890Y857051D01*
X967890Y855526D02*
X967890Y858576D01*
X967890Y866338D02*
X966365Y867864D01*
X967890Y866338D02*
X967890Y863288D01*
X966365Y861762D01*
X960263Y861762D01*
X958738Y863288D01*
X958738Y866338D01*
X960263Y867864D01*
X964839Y871118D02*
X967890Y874168D01*
X958738Y874168D01*
X958738Y871118D02*
X958738Y877219D01*
X960263Y880473D02*
X966365Y880473D01*
X967890Y881998D01*
X967890Y885049D01*
X966365Y886574D01*
X960263Y886574D01*
X958738Y885049D01*
X958738Y881998D01*
X960263Y880473D01*
X966365Y886574D01*
D82*
X765072Y758025D02*
X765072Y738848D01*
X781328Y738848D02*
X781328Y758025D01*
D100*
X773200Y735292D03*
X773200Y761708D03*
D84*
X785128Y722141D02*
X785128Y714006D01*
X785128Y722141D02*
X781060Y722141D01*
X779704Y720785D01*
X779704Y718073D01*
X781060Y716718D01*
X785128Y716718D01*
X782416Y716718D02*
X779704Y714006D01*
X772874Y714006D02*
X772874Y722141D01*
X776942Y718073D01*
X771519Y718073D01*
X768756Y720785D02*
X767400Y722141D01*
X764689Y722141D01*
X763333Y720785D01*
X763333Y719429D01*
X764689Y718073D01*
X763333Y716718D01*
X763333Y715362D01*
X764689Y714006D01*
X767400Y714006D01*
X768756Y715362D01*
X768756Y716718D01*
X767400Y718073D01*
X768756Y719429D01*
X768756Y720785D01*
X767400Y718073D02*
X764689Y718073D01*
D82*
X790472Y738848D02*
X790472Y758025D01*
X806728Y758025D02*
X806728Y738848D01*
D100*
X798600Y735292D03*
X798600Y761708D03*
D84*
X810528Y722141D02*
X810528Y714006D01*
X810528Y722141D02*
X806460Y722141D01*
X805104Y720785D01*
X805104Y718073D01*
X806460Y716718D01*
X810528Y716718D01*
X807816Y716718D02*
X805104Y714006D01*
X798274Y714006D02*
X798274Y722141D01*
X802342Y718073D01*
X796919Y718073D01*
X794156Y715362D02*
X792800Y714006D01*
X790089Y714006D01*
X788733Y715362D01*
X788733Y720785D01*
X790089Y722141D01*
X792800Y722141D01*
X794156Y720785D01*
X794156Y719429D01*
X792800Y718073D01*
X788733Y718073D01*
D82*
X815872Y738848D02*
X815872Y758025D01*
X832128Y758025D02*
X832128Y738848D01*
D100*
X824000Y735292D03*
X824000Y761708D03*
D84*
X835928Y722141D02*
X835928Y714006D01*
X835928Y722141D02*
X831860Y722141D01*
X830504Y720785D01*
X830504Y718073D01*
X831860Y716718D01*
X835928Y716718D01*
X833216Y716718D02*
X830504Y714006D01*
X827742Y722141D02*
X822319Y722141D01*
X827742Y722141D02*
X827742Y718073D01*
X825030Y719429D01*
X823674Y719429D01*
X822319Y718073D01*
X822319Y715362D01*
X823674Y714006D01*
X826386Y714006D01*
X827742Y715362D01*
X819556Y715362D02*
X819556Y720785D01*
X818200Y722141D01*
X815489Y722141D01*
X814133Y720785D01*
X814133Y715362D01*
X815489Y714006D01*
X818200Y714006D01*
X819556Y715362D01*
X814133Y720785D01*
D82*
X841272Y738848D02*
X841272Y758025D01*
X857528Y758025D02*
X857528Y738848D01*
D100*
X849400Y735292D03*
X849400Y761708D03*
D84*
X861328Y722141D02*
X861328Y714006D01*
X861328Y722141D02*
X857260Y722141D01*
X855904Y720785D01*
X855904Y718073D01*
X857260Y716718D01*
X861328Y716718D01*
X858616Y716718D02*
X855904Y714006D01*
X853142Y722141D02*
X847719Y722141D01*
X853142Y722141D02*
X853142Y718073D01*
X850430Y719429D01*
X849074Y719429D01*
X847719Y718073D01*
X847719Y715362D01*
X849074Y714006D01*
X851786Y714006D01*
X853142Y715362D01*
X844956Y719429D02*
X842245Y722141D01*
X842245Y714006D01*
X844956Y714006D02*
X839533Y714006D01*
D82*
X866672Y738848D02*
X866672Y758025D01*
X882928Y758025D02*
X882928Y738848D01*
D100*
X874800Y735292D03*
X874800Y761708D03*
D84*
X886728Y722141D02*
X886728Y714006D01*
X886728Y722141D02*
X882660Y722141D01*
X881304Y720785D01*
X881304Y718073D01*
X882660Y716718D01*
X886728Y716718D01*
X884016Y716718D02*
X881304Y714006D01*
X878542Y722141D02*
X873119Y722141D01*
X878542Y722141D02*
X878542Y718073D01*
X875830Y719429D01*
X874474Y719429D01*
X873119Y718073D01*
X873119Y715362D01*
X874474Y714006D01*
X877186Y714006D01*
X878542Y715362D01*
X870356Y714006D02*
X864933Y714006D01*
X870356Y714006D02*
X864933Y719429D01*
X864933Y720785D01*
X866289Y722141D01*
X869000Y722141D01*
X870356Y720785D01*
D82*
X892072Y738848D02*
X892072Y758025D01*
X908328Y758025D02*
X908328Y738848D01*
D100*
X900200Y735292D03*
X900200Y761708D03*
D84*
X912128Y722141D02*
X912128Y714006D01*
X912128Y722141D02*
X908060Y722141D01*
X906704Y720785D01*
X906704Y718073D01*
X908060Y716718D01*
X912128Y716718D01*
X909416Y716718D02*
X906704Y714006D01*
X903942Y722141D02*
X898519Y722141D01*
X903942Y722141D02*
X903942Y718073D01*
X901230Y719429D01*
X899874Y719429D01*
X898519Y718073D01*
X898519Y715362D01*
X899874Y714006D01*
X902586Y714006D01*
X903942Y715362D01*
X895756Y720785D02*
X894400Y722141D01*
X891689Y722141D01*
X890333Y720785D01*
X890333Y719429D01*
X891689Y718073D01*
X893045Y718073D01*
X891689Y718073D02*
X890333Y716718D01*
X890333Y715362D01*
X891689Y714006D01*
X894400Y714006D01*
X895756Y715362D01*
D82*
X917472Y738848D02*
X917472Y758025D01*
X933728Y758025D02*
X933728Y738848D01*
D100*
X925600Y735292D03*
X925600Y761708D03*
D84*
X937528Y722141D02*
X937528Y714006D01*
X937528Y722141D02*
X933460Y722141D01*
X932104Y720785D01*
X932104Y718073D01*
X933460Y716718D01*
X937528Y716718D01*
X934816Y716718D02*
X932104Y714006D01*
X929342Y722141D02*
X923919Y722141D01*
X929342Y722141D02*
X929342Y718073D01*
X926630Y719429D01*
X925274Y719429D01*
X923919Y718073D01*
X923919Y715362D01*
X925274Y714006D01*
X927986Y714006D01*
X929342Y715362D01*
X917089Y714006D02*
X917089Y722141D01*
X921156Y718073D01*
X915733Y718073D01*
D82*
X942872Y738848D02*
X942872Y758025D01*
X959128Y758025D02*
X959128Y738848D01*
D100*
X951000Y735292D03*
X951000Y761708D03*
D84*
X962928Y722141D02*
X962928Y714006D01*
X962928Y722141D02*
X958860Y722141D01*
X957504Y720785D01*
X957504Y718073D01*
X958860Y716718D01*
X962928Y716718D01*
X960216Y716718D02*
X957504Y714006D01*
X954742Y722141D02*
X949319Y722141D01*
X954742Y722141D02*
X954742Y718073D01*
X952030Y719429D01*
X950674Y719429D01*
X949319Y718073D01*
X949319Y715362D01*
X950674Y714006D01*
X953386Y714006D01*
X954742Y715362D01*
X946556Y722141D02*
X941133Y722141D01*
X946556Y722141D02*
X946556Y718073D01*
X943845Y719429D01*
X942489Y719429D01*
X941133Y718073D01*
X941133Y715362D01*
X942489Y714006D01*
X945200Y714006D01*
X946556Y715362D01*
D82*
X968272Y738848D02*
X968272Y758025D01*
X984528Y758025D02*
X984528Y738848D01*
D100*
X976400Y735292D03*
X976400Y761708D03*
D84*
X988328Y722141D02*
X988328Y714006D01*
X988328Y722141D02*
X984260Y722141D01*
X982904Y720785D01*
X982904Y718073D01*
X984260Y716718D01*
X988328Y716718D01*
X985616Y716718D02*
X982904Y714006D01*
X980142Y722141D02*
X974719Y722141D01*
X980142Y722141D02*
X980142Y718073D01*
X977430Y719429D01*
X976074Y719429D01*
X974719Y718073D01*
X974719Y715362D01*
X976074Y714006D01*
X978786Y714006D01*
X980142Y715362D01*
X969245Y720785D02*
X966533Y722141D01*
X969245Y720785D02*
X971956Y718073D01*
X971956Y715362D01*
X970600Y714006D01*
X967889Y714006D01*
X966533Y715362D01*
X966533Y716718D01*
X967889Y718073D01*
X971956Y718073D01*
D82*
X884652Y868872D02*
X865475Y868872D01*
X865475Y885128D02*
X884652Y885128D01*
D83*
X888208Y877000D03*
X861792Y877000D03*
D84*
X901366Y865132D02*
X909501Y865132D01*
X909501Y869200D01*
X908145Y870556D01*
X905433Y870556D01*
X904078Y869200D01*
X904078Y865132D01*
X904078Y867844D02*
X901366Y870556D01*
X909501Y873318D02*
X909501Y878741D01*
X909501Y873318D02*
X905433Y873318D01*
X906789Y876030D01*
X906789Y877386D01*
X905433Y878741D01*
X902722Y878741D01*
X901366Y877386D01*
X901366Y874674D01*
X902722Y873318D01*
X909501Y881504D02*
X909501Y886927D01*
X908145Y886927D01*
X902722Y881504D01*
X901366Y881504D01*
D82*
X884652Y916872D02*
X865475Y916872D01*
X865475Y933128D02*
X884652Y933128D01*
D83*
X888208Y925000D03*
X861792Y925000D03*
D84*
X901366Y913132D02*
X909501Y913132D01*
X909501Y917200D01*
X908145Y918556D01*
X905433Y918556D01*
X904078Y917200D01*
X904078Y913132D01*
X904078Y915844D02*
X901366Y918556D01*
X909501Y921318D02*
X909501Y926741D01*
X909501Y921318D02*
X905433Y921318D01*
X906789Y924030D01*
X906789Y925386D01*
X905433Y926741D01*
X902722Y926741D01*
X901366Y925386D01*
X901366Y922674D01*
X902722Y921318D01*
X908145Y929504D02*
X909501Y930860D01*
X909501Y933571D01*
X908145Y934927D01*
X906789Y934927D01*
X905433Y933571D01*
X904078Y934927D01*
X902722Y934927D01*
X901366Y933571D01*
X901366Y930860D01*
X902722Y929504D01*
X904078Y929504D01*
X905433Y930860D01*
X906789Y929504D01*
X908145Y929504D01*
X905433Y930860D02*
X905433Y933571D01*
D82*
X884652Y964872D02*
X865475Y964872D01*
X865475Y981128D02*
X884652Y981128D01*
D83*
X888208Y973000D03*
X861792Y973000D03*
D84*
X901366Y961132D02*
X909501Y961132D01*
X909501Y965200D01*
X908145Y966556D01*
X905433Y966556D01*
X904078Y965200D01*
X904078Y961132D01*
X904078Y963844D02*
X901366Y966556D01*
X909501Y969318D02*
X909501Y974741D01*
X909501Y969318D02*
X905433Y969318D01*
X906789Y972030D01*
X906789Y973386D01*
X905433Y974741D01*
X902722Y974741D01*
X901366Y973386D01*
X901366Y970674D01*
X902722Y969318D01*
X902722Y977504D02*
X901366Y978860D01*
X901366Y981571D01*
X902722Y982927D01*
X908145Y982927D01*
X909501Y981571D01*
X909501Y978860D01*
X908145Y977504D01*
X906789Y977504D01*
X905433Y978860D01*
X905433Y982927D01*
D85*
X319130Y765650D02*
X319130Y746350D01*
X334870Y746350D02*
X334870Y765650D01*
D101*
X327009Y769268D03*
X326991Y742733D03*
D85*
X315072Y739973D02*
X313123Y741922D01*
X315072Y739973D02*
X315072Y736075D01*
X313123Y734126D01*
X305327Y734126D01*
X303378Y736075D01*
X303378Y739973D01*
X305327Y741922D01*
X303378Y745820D02*
X303378Y753616D01*
X303378Y745820D02*
X311174Y753616D01*
X313123Y753616D01*
X315072Y751667D01*
X315072Y747769D01*
X313123Y745820D01*
X313123Y757514D02*
X315072Y759463D01*
X315072Y763361D01*
X313123Y765310D01*
X311174Y765310D01*
X309225Y763361D01*
X309225Y761412D01*
X309225Y763361D02*
X307276Y765310D01*
X305327Y765310D01*
X303378Y763361D01*
X303378Y759463D01*
X305327Y757514D01*
X447130Y766650D02*
X447130Y747350D01*
X462870Y747350D02*
X462870Y766650D01*
D101*
X455009Y770268D03*
X454991Y743733D03*
D85*
X443072Y740973D02*
X441123Y742922D01*
X443072Y740973D02*
X443072Y737075D01*
X441123Y735126D01*
X433327Y735126D01*
X431378Y737075D01*
X431378Y740973D01*
X433327Y742922D01*
X431378Y746820D02*
X431378Y754616D01*
X431378Y746820D02*
X439174Y754616D01*
X441123Y754616D01*
X443072Y752667D01*
X443072Y748769D01*
X441123Y746820D01*
X443072Y764361D02*
X431378Y764361D01*
X437225Y758514D02*
X443072Y764361D01*
X437225Y766310D02*
X437225Y758514D01*
X399650Y700870D02*
X380350Y700870D01*
X380350Y685130D02*
X399650Y685130D01*
D86*
X403268Y692991D03*
X376733Y693009D03*
D85*
X394396Y714683D02*
X396345Y716632D01*
X400243Y716632D01*
X402192Y714683D01*
X402192Y706887D01*
X400243Y704938D01*
X396345Y704938D01*
X394396Y706887D01*
X390498Y704938D02*
X382702Y704938D01*
X390498Y704938D02*
X382702Y712734D01*
X382702Y714683D01*
X384651Y716632D01*
X388549Y716632D01*
X390498Y714683D01*
X378804Y716632D02*
X371008Y716632D01*
X378804Y716632D02*
X378804Y710785D01*
X374906Y712734D01*
X372957Y712734D01*
X371008Y710785D01*
X371008Y706887D01*
X372957Y704938D01*
X376855Y704938D01*
X378804Y706887D01*
X521870Y746350D02*
X521870Y765650D01*
X506130Y765650D02*
X506130Y746350D01*
D101*
X513991Y742733D03*
X514009Y769268D03*
D85*
X535683Y751604D02*
X537632Y749655D01*
X537632Y745757D01*
X535683Y743808D01*
X527887Y743808D01*
X525938Y745757D01*
X525938Y749655D01*
X527887Y751604D01*
X525938Y755502D02*
X525938Y763298D01*
X525938Y755502D02*
X533734Y763298D01*
X535683Y763298D01*
X537632Y761349D01*
X537632Y757451D01*
X535683Y755502D01*
X535683Y771094D02*
X537632Y774992D01*
X535683Y771094D02*
X531785Y767196D01*
X527887Y767196D01*
X525938Y769145D01*
X525938Y773043D01*
X527887Y774992D01*
X529836Y774992D01*
X531785Y773043D01*
X531785Y767196D01*
X427750Y843000D02*
X358750Y843000D01*
X427750Y843000D02*
X427750Y885000D01*
X358750Y885000D01*
X358750Y843000D01*
D89*
X357500Y864000D03*
X429000Y864000D03*
D90*
X422375Y864000D03*
D84*
X403299Y876407D02*
X401731Y874839D01*
X403299Y876407D02*
X406434Y876407D01*
X408002Y874839D01*
X408002Y868569D01*
X406434Y867001D01*
X403299Y867001D01*
X401731Y868569D01*
X398647Y867001D02*
X392376Y867001D01*
X398647Y867001D02*
X392376Y873272D01*
X392376Y874839D01*
X393944Y876407D01*
X397079Y876407D01*
X398647Y874839D01*
X389291Y876407D02*
X383021Y876407D01*
X383021Y874839D01*
X389291Y868569D01*
X389291Y867001D01*
D82*
X477872Y766525D02*
X477872Y747348D01*
X494128Y747348D02*
X494128Y766525D01*
D100*
X486000Y743792D03*
X486000Y770208D03*
D84*
X497928Y730641D02*
X497928Y722506D01*
X497928Y730641D02*
X493860Y730641D01*
X492504Y729285D01*
X492504Y726573D01*
X493860Y725218D01*
X497928Y725218D01*
X495216Y725218D02*
X492504Y722506D01*
X487030Y729285D02*
X484319Y730641D01*
X487030Y729285D02*
X489742Y726573D01*
X489742Y723862D01*
X488386Y722506D01*
X485674Y722506D01*
X484319Y723862D01*
X484319Y725218D01*
X485674Y726573D01*
X489742Y726573D01*
X481556Y723862D02*
X481556Y729285D01*
X480200Y730641D01*
X477489Y730641D01*
X476133Y729285D01*
X476133Y723862D01*
X477489Y722506D01*
X480200Y722506D01*
X481556Y723862D01*
X476133Y729285D01*
D91*
X1359400Y598100D02*
X1391400Y598100D01*
X1359400Y598100D02*
X1359400Y582100D01*
X1391400Y582100D02*
X1391400Y598100D01*
X1391400Y582100D02*
X1359400Y582100D01*
D84*
X1400241Y576448D02*
X1406512Y576448D01*
X1409647Y579584D01*
X1406512Y582719D01*
X1400241Y582719D01*
X1404944Y582719D02*
X1404944Y576448D01*
X1400241Y585803D02*
X1409647Y585803D01*
X1409647Y590506D01*
X1408079Y592074D01*
X1404944Y592074D01*
X1403376Y590506D01*
X1403376Y585803D01*
X1403376Y588939D02*
X1400241Y592074D01*
X1406512Y595159D02*
X1409647Y598294D01*
X1400241Y598294D01*
X1400241Y595159D02*
X1400241Y601429D01*
X1350567Y584261D02*
X1347432Y581126D01*
X1350567Y584261D02*
X1341161Y584261D01*
X1341161Y581126D02*
X1341161Y587397D01*
X1341161Y590481D02*
X1350567Y590481D01*
X1344296Y590481D02*
X1350567Y596752D01*
X1345864Y592049D02*
X1341161Y596752D01*
D91*
X1514400Y598100D02*
X1546400Y598100D01*
X1514400Y598100D02*
X1514400Y582100D01*
X1546400Y582100D02*
X1546400Y598100D01*
X1546400Y582100D02*
X1514400Y582100D01*
D84*
X1555241Y576448D02*
X1561512Y576448D01*
X1564647Y579584D01*
X1561512Y582719D01*
X1555241Y582719D01*
X1559944Y582719D02*
X1559944Y576448D01*
X1555241Y585803D02*
X1564647Y585803D01*
X1564647Y590506D01*
X1563079Y592074D01*
X1559944Y592074D01*
X1558376Y590506D01*
X1558376Y585803D01*
X1558376Y588939D02*
X1555241Y592074D01*
X1555241Y595159D02*
X1555241Y601429D01*
X1555241Y595159D02*
X1561512Y601429D01*
X1563079Y601429D01*
X1564647Y599862D01*
X1564647Y596726D01*
X1563079Y595159D01*
X1505567Y584261D02*
X1502432Y581126D01*
X1505567Y584261D02*
X1496161Y584261D01*
X1496161Y581126D02*
X1496161Y587397D01*
X1496161Y590481D02*
X1505567Y590481D01*
X1499296Y590481D02*
X1505567Y596752D01*
X1500864Y592049D02*
X1496161Y596752D01*
D91*
X1654400Y598100D02*
X1686400Y598100D01*
X1654400Y598100D02*
X1654400Y582100D01*
X1686400Y582100D02*
X1686400Y598100D01*
X1686400Y582100D02*
X1654400Y582100D01*
D84*
X1695241Y576448D02*
X1701512Y576448D01*
X1704647Y579584D01*
X1701512Y582719D01*
X1695241Y582719D01*
X1699944Y582719D02*
X1699944Y576448D01*
X1695241Y585803D02*
X1704647Y585803D01*
X1704647Y590506D01*
X1703079Y592074D01*
X1699944Y592074D01*
X1698376Y590506D01*
X1698376Y585803D01*
X1698376Y588939D02*
X1695241Y592074D01*
X1703079Y595159D02*
X1704647Y596726D01*
X1704647Y599862D01*
X1703079Y601429D01*
X1701512Y601429D01*
X1699944Y599862D01*
X1699944Y598294D01*
X1699944Y599862D02*
X1698376Y601429D01*
X1696809Y601429D01*
X1695241Y599862D01*
X1695241Y596726D01*
X1696809Y595159D01*
X1645567Y584261D02*
X1642432Y581126D01*
X1645567Y584261D02*
X1636161Y584261D01*
X1636161Y581126D02*
X1636161Y587397D01*
X1636161Y590481D02*
X1645567Y590481D01*
X1639296Y590481D02*
X1645567Y596752D01*
X1640864Y592049D02*
X1636161Y596752D01*
D91*
X1043000Y948000D02*
X1011000Y948000D01*
X1011000Y932000D01*
X1043000Y932000D02*
X1043000Y948000D01*
X1043000Y932000D02*
X1011000Y932000D01*
D84*
X1051841Y926348D02*
X1058112Y926348D01*
X1061247Y929484D01*
X1058112Y932619D01*
X1051841Y932619D01*
X1056544Y932619D02*
X1056544Y926348D01*
X1051841Y935703D02*
X1061247Y935703D01*
X1061247Y940406D01*
X1059679Y941974D01*
X1056544Y941974D01*
X1054976Y940406D01*
X1054976Y935703D01*
X1054976Y938839D02*
X1051841Y941974D01*
X1051841Y949762D02*
X1061247Y949762D01*
X1056544Y945059D01*
X1056544Y951329D01*
X1002167Y934161D02*
X999032Y931026D01*
X1002167Y934161D02*
X992761Y934161D01*
X992761Y931026D02*
X992761Y937297D01*
X992761Y940381D02*
X1002167Y940381D01*
X995896Y940381D02*
X1002167Y946652D01*
X997464Y941949D02*
X992761Y946652D01*
D82*
X1127940Y509520D02*
X1127940Y500880D01*
X1135060Y500880D02*
X1135060Y509520D01*
D97*
X1131500Y511550D03*
X1131500Y498850D03*
D85*
X1137937Y531903D02*
X1139886Y533852D01*
X1143784Y533852D01*
X1145733Y531903D01*
X1145733Y524107D01*
X1143784Y522158D01*
X1139886Y522158D01*
X1137937Y524107D01*
X1134039Y531903D02*
X1132090Y533852D01*
X1128192Y533852D01*
X1126243Y531903D01*
X1126243Y529954D01*
X1128192Y528005D01*
X1130141Y528005D01*
X1128192Y528005D02*
X1126243Y526056D01*
X1126243Y524107D01*
X1128192Y522158D01*
X1132090Y522158D01*
X1134039Y524107D01*
X1122345Y522158D02*
X1114549Y522158D01*
X1122345Y522158D02*
X1114549Y529954D01*
X1114549Y531903D01*
X1116498Y533852D01*
X1120396Y533852D01*
X1122345Y531903D01*
D95*
X1179524Y508894D02*
X1179524Y500306D01*
D82*
X1179300Y512600D02*
X1151300Y512600D01*
D95*
X1151076Y508894D02*
X1151076Y500306D01*
D82*
X1151300Y496600D02*
X1179300Y496600D01*
D95*
X1167984Y496496D02*
X1162616Y496496D01*
D82*
X1179300Y496600D02*
X1179300Y512600D01*
X1151300Y512600D02*
X1151300Y496600D01*
D102*
X1155800Y516350D03*
X1165300Y516350D03*
X1174800Y516350D03*
X1174800Y492850D03*
X1155800Y492850D03*
D84*
X1178935Y525901D02*
X1182070Y525901D01*
X1180503Y525901D02*
X1180503Y535307D01*
X1182070Y535307D02*
X1178935Y535307D01*
X1171130Y535307D02*
X1169563Y533739D01*
X1171130Y535307D02*
X1174266Y535307D01*
X1175833Y533739D01*
X1175833Y527469D01*
X1174266Y525901D01*
X1171130Y525901D01*
X1169563Y527469D01*
X1166478Y532172D02*
X1163343Y535307D01*
X1163343Y525901D01*
X1166478Y525901D02*
X1160208Y525901D01*
X1152420Y525901D02*
X1152420Y535307D01*
X1157123Y530604D01*
X1150852Y530604D01*
D82*
X1103165Y509520D02*
X1103165Y500880D01*
X1110285Y500880D02*
X1110285Y509520D01*
D97*
X1106725Y511550D03*
X1106725Y498850D03*
D85*
X1097627Y494514D02*
X1095678Y496463D01*
X1097627Y494514D02*
X1097627Y490616D01*
X1095678Y488667D01*
X1087882Y488667D01*
X1085933Y490616D01*
X1085933Y494514D01*
X1087882Y496463D01*
X1095678Y500361D02*
X1097627Y502310D01*
X1097627Y506208D01*
X1095678Y508157D01*
X1093729Y508157D01*
X1091780Y506208D01*
X1091780Y504259D01*
X1091780Y506208D02*
X1089831Y508157D01*
X1087882Y508157D01*
X1085933Y506208D01*
X1085933Y502310D01*
X1087882Y500361D01*
X1095678Y512055D02*
X1097627Y514004D01*
X1097627Y517902D01*
X1095678Y519851D01*
X1093729Y519851D01*
X1091780Y517902D01*
X1091780Y515953D01*
X1091780Y517902D02*
X1089831Y519851D01*
X1087882Y519851D01*
X1085933Y517902D01*
X1085933Y514004D01*
X1087882Y512055D01*
D82*
X1206035Y510720D02*
X1206035Y502080D01*
X1198915Y502080D02*
X1198915Y510720D01*
D97*
X1202475Y500050D03*
X1202475Y512750D03*
D85*
X1221878Y497063D02*
X1223827Y495114D01*
X1223827Y491216D01*
X1221878Y489267D01*
X1214082Y489267D01*
X1212133Y491216D01*
X1212133Y495114D01*
X1214082Y497063D01*
X1221878Y500961D02*
X1223827Y502910D01*
X1223827Y506808D01*
X1221878Y508757D01*
X1219929Y508757D01*
X1217980Y506808D01*
X1217980Y504859D01*
X1217980Y506808D02*
X1216031Y508757D01*
X1214082Y508757D01*
X1212133Y506808D01*
X1212133Y502910D01*
X1214082Y500961D01*
X1212133Y518502D02*
X1223827Y518502D01*
X1217980Y512655D01*
X1217980Y520451D01*
D82*
X1189365Y470995D02*
X1189365Y462355D01*
X1196485Y462355D02*
X1196485Y470995D01*
D97*
X1192925Y473025D03*
X1192925Y460325D03*
D85*
X1211328Y457538D02*
X1213277Y455589D01*
X1213277Y451691D01*
X1211328Y449742D01*
X1203532Y449742D01*
X1201583Y451691D01*
X1201583Y455589D01*
X1203532Y457538D01*
X1201583Y461436D02*
X1201583Y469232D01*
X1201583Y461436D02*
X1209379Y469232D01*
X1211328Y469232D01*
X1213277Y467283D01*
X1213277Y463385D01*
X1211328Y461436D01*
X1203532Y473130D02*
X1201583Y475079D01*
X1201583Y478977D01*
X1203532Y480926D01*
X1211328Y480926D01*
X1213277Y478977D01*
X1213277Y475079D01*
X1211328Y473130D01*
X1209379Y473130D01*
X1207430Y475079D01*
X1207430Y480926D01*
D82*
X1161365Y471070D02*
X1161365Y462430D01*
X1168485Y462430D02*
X1168485Y471070D01*
D97*
X1164925Y473100D03*
X1164925Y460400D03*
D85*
X1176336Y449277D02*
X1174387Y447328D01*
X1176336Y449277D02*
X1180234Y449277D01*
X1182183Y447328D01*
X1182183Y439532D01*
X1180234Y437583D01*
X1176336Y437583D01*
X1174387Y439532D01*
X1170489Y447328D02*
X1168540Y449277D01*
X1164642Y449277D01*
X1162693Y447328D01*
X1162693Y445379D01*
X1164642Y443430D01*
X1166591Y443430D01*
X1164642Y443430D02*
X1162693Y441481D01*
X1162693Y439532D01*
X1164642Y437583D01*
X1168540Y437583D01*
X1170489Y439532D01*
X1158795Y439532D02*
X1158795Y447328D01*
X1156846Y449277D01*
X1152948Y449277D01*
X1150999Y447328D01*
X1150999Y439532D01*
X1152948Y437583D01*
X1156846Y437583D01*
X1158795Y439532D01*
X1150999Y447328D01*
D82*
X1131540Y461755D02*
X1131540Y470395D01*
X1138660Y470395D02*
X1138660Y461755D01*
D97*
X1135100Y472425D03*
X1135100Y459725D03*
D85*
X1125452Y455989D02*
X1123503Y457938D01*
X1125452Y455989D02*
X1125452Y452091D01*
X1123503Y450142D01*
X1115707Y450142D01*
X1113758Y452091D01*
X1113758Y455989D01*
X1115707Y457938D01*
X1123503Y461836D02*
X1125452Y463785D01*
X1125452Y467683D01*
X1123503Y469632D01*
X1121554Y469632D01*
X1119605Y467683D01*
X1119605Y465734D01*
X1119605Y467683D02*
X1117656Y469632D01*
X1115707Y469632D01*
X1113758Y467683D01*
X1113758Y463785D01*
X1115707Y461836D01*
X1121554Y473530D02*
X1125452Y477428D01*
X1113758Y477428D01*
X1113758Y473530D02*
X1113758Y481326D01*
D82*
X919420Y411440D02*
X910780Y411440D01*
X910780Y418560D02*
X919420Y418560D01*
D98*
X908750Y415000D03*
X921450Y415000D03*
D85*
X924237Y431403D02*
X926186Y433352D01*
X930084Y433352D01*
X932033Y431403D01*
X932033Y423607D01*
X930084Y421658D01*
X926186Y421658D01*
X924237Y423607D01*
X920339Y421658D02*
X912543Y421658D01*
X920339Y421658D02*
X912543Y429454D01*
X912543Y431403D01*
X914492Y433352D01*
X918390Y433352D01*
X920339Y431403D01*
X908645Y431403D02*
X906696Y433352D01*
X902798Y433352D01*
X900849Y431403D01*
X900849Y429454D01*
X902798Y427505D01*
X900849Y425556D01*
X900849Y423607D01*
X902798Y421658D01*
X906696Y421658D01*
X908645Y423607D01*
X908645Y425556D01*
X906696Y427505D01*
X908645Y429454D01*
X908645Y431403D01*
X906696Y427505D02*
X902798Y427505D01*
D82*
X879420Y411440D02*
X870780Y411440D01*
X870780Y418560D02*
X879420Y418560D01*
D98*
X868750Y415000D03*
X881450Y415000D03*
D85*
X892033Y421658D02*
X892033Y433352D01*
X886186Y433352D01*
X884237Y431403D01*
X884237Y427505D01*
X886186Y425556D01*
X892033Y425556D01*
X888135Y425556D02*
X884237Y421658D01*
X876441Y431403D02*
X872543Y433352D01*
X876441Y431403D02*
X880339Y427505D01*
X880339Y423607D01*
X878390Y421658D01*
X874492Y421658D01*
X872543Y423607D01*
X872543Y425556D01*
X874492Y427505D01*
X880339Y427505D01*
X868645Y433352D02*
X860849Y433352D01*
X860849Y431403D01*
X868645Y423607D01*
X868645Y421658D01*
X377260Y106000D02*
X308260Y106000D01*
X308260Y64000D01*
X377260Y64000D01*
X377260Y106000D01*
D89*
X378510Y85000D03*
X307010Y85000D03*
D90*
X313635Y85000D03*
D84*
X350641Y101139D02*
X352209Y102707D01*
X355344Y102707D01*
X356912Y101139D01*
X356912Y94869D01*
X355344Y93301D01*
X352209Y93301D01*
X350641Y94869D01*
X347557Y101139D02*
X345989Y102707D01*
X342854Y102707D01*
X341286Y101139D01*
X341286Y99572D01*
X342854Y98004D01*
X344421Y98004D01*
X342854Y98004D02*
X341286Y96436D01*
X341286Y94869D01*
X342854Y93301D01*
X345989Y93301D01*
X347557Y94869D01*
X338201Y102707D02*
X331931Y102707D01*
X338201Y102707D02*
X338201Y98004D01*
X335066Y99572D01*
X333498Y99572D01*
X331931Y98004D01*
X331931Y94869D01*
X333498Y93301D01*
X336634Y93301D01*
X338201Y94869D01*
D85*
X199260Y106000D02*
X130260Y106000D01*
X130260Y64000D01*
X199260Y64000D01*
X199260Y106000D01*
D89*
X200510Y85000D03*
X129010Y85000D03*
D90*
X135635Y85000D03*
D84*
X172641Y98139D02*
X174209Y99707D01*
X177344Y99707D01*
X178912Y98139D01*
X178912Y91869D01*
X177344Y90301D01*
X174209Y90301D01*
X172641Y91869D01*
X169557Y98139D02*
X167989Y99707D01*
X164854Y99707D01*
X163286Y98139D01*
X163286Y96572D01*
X164854Y95004D01*
X166421Y95004D01*
X164854Y95004D02*
X163286Y93436D01*
X163286Y91869D01*
X164854Y90301D01*
X167989Y90301D01*
X169557Y91869D01*
X157066Y98139D02*
X153931Y99707D01*
X157066Y98139D02*
X160201Y95004D01*
X160201Y91869D01*
X158634Y90301D01*
X155498Y90301D01*
X153931Y91869D01*
X153931Y93436D01*
X155498Y95004D01*
X160201Y95004D01*
M02*
