G04 EAGLE Gerber RS-274X export*
G75*
%MOMM*%
%FSLAX34Y34*%
%LPD*%
%INSolderpaste Top*%
%IPPOS*%
%AMOC8*
5,1,8,0,0,1.08239X$1,22.5*%
G01*
%ADD10R,0.400000X1.750000*%
%ADD11R,1.600000X1.803000*%
%ADD12R,1.270000X2.540000*%
%ADD13C,0.304800*%
%ADD14C,0.406400*%
%ADD15R,1.803000X1.600000*%
%ADD16R,2.108200X2.108200*%
%ADD17R,0.250000X0.400000*%
%ADD18R,0.400000X0.250000*%
%ADD19R,0.711200X0.711200*%
%ADD20R,2.850000X1.875000*%
%ADD21R,2.850000X1.450000*%


D10*
X317000Y951550D03*
X343000Y951550D03*
X323500Y951550D03*
X330000Y951550D03*
X336500Y951550D03*
D11*
X315780Y919200D03*
X344220Y919200D03*
X136680Y895900D03*
X165120Y895900D03*
X136680Y860500D03*
X165120Y860500D03*
X136680Y825100D03*
X165120Y825100D03*
X136680Y789700D03*
X165120Y789700D03*
X136680Y754300D03*
X165120Y754300D03*
X136680Y718900D03*
X165120Y718900D03*
X136680Y683500D03*
X165120Y683500D03*
D12*
X518410Y263710D03*
X561590Y263710D03*
X561590Y346290D03*
X518410Y346290D03*
X618410Y263710D03*
X661590Y263710D03*
X661590Y346290D03*
X618410Y346290D03*
X718410Y263710D03*
X761590Y263710D03*
X761590Y346290D03*
X718410Y346290D03*
X518410Y148710D03*
X561590Y148710D03*
X561590Y231290D03*
X518410Y231290D03*
X618410Y148710D03*
X661590Y148710D03*
X661590Y231290D03*
X618410Y231290D03*
X718410Y148710D03*
X761590Y148710D03*
X761590Y231290D03*
X718410Y231290D03*
X518410Y33710D03*
X561590Y33710D03*
X561590Y116290D03*
X518410Y116290D03*
X618410Y33710D03*
X661590Y33710D03*
X661590Y116290D03*
X618410Y116290D03*
X718410Y33710D03*
X761590Y33710D03*
X761590Y116290D03*
X718410Y116290D03*
D13*
X865502Y164980D02*
X865502Y168028D01*
X884498Y168028D02*
X884498Y164980D01*
D14*
X875000Y342968D02*
X875000Y347032D01*
D15*
X995000Y484220D03*
X995000Y455780D03*
D16*
X508570Y971378D03*
X508570Y881462D03*
X591374Y978998D03*
X591374Y952836D03*
X559624Y838282D03*
D15*
X773200Y734280D03*
X773200Y762720D03*
X798600Y734280D03*
X798600Y762720D03*
X824000Y734280D03*
X824000Y762720D03*
X849400Y734280D03*
X849400Y762720D03*
X874800Y734280D03*
X874800Y762720D03*
X900200Y734280D03*
X900200Y762720D03*
X925600Y734280D03*
X925600Y762720D03*
X951000Y734280D03*
X951000Y762720D03*
X976400Y734280D03*
X976400Y762720D03*
D17*
X1157725Y453715D03*
X1162725Y453715D03*
X1167725Y453715D03*
X1172725Y453715D03*
D18*
X1178225Y459215D03*
X1178225Y464215D03*
X1178225Y469215D03*
X1178225Y474215D03*
D17*
X1172725Y479715D03*
X1167725Y479715D03*
X1162725Y479715D03*
X1157725Y479715D03*
D18*
X1152225Y474215D03*
X1152225Y469215D03*
X1152225Y464215D03*
X1152225Y459215D03*
D19*
X1165225Y466715D03*
D20*
X901900Y901425D03*
D21*
X901900Y924300D03*
D20*
X901850Y947225D03*
X847900Y947175D03*
D21*
X847900Y924300D03*
D20*
X847950Y901375D03*
M02*
